<?xml version="1.0" standalone="no"?>
<!DOCTYPE svg PUBLIC "-//W3C//DTD SVG 1.1//EN" "http://www.w3.org/Graphics/SVG/1.1/DTD/svg11.dtd" >
<svg xmlns="http://www.w3.org/2000/svg">
<metadata></metadata>
<defs>
<font id="trajan_proregular" horiz-adv-x="1169" >
<font-face units-per-em="2048" ascent="1536" descent="-512" />
<missing-glyph horiz-adv-x="665" />
<glyph horiz-adv-x="2048" />
<glyph horiz-adv-x="2048" />
<glyph unicode="&#xd;" horiz-adv-x="665" />
<glyph unicode=" "  horiz-adv-x="665" />
<glyph unicode="&#x09;" horiz-adv-x="665" />
<glyph unicode="&#xa0;" horiz-adv-x="665" />
<glyph unicode="!" horiz-adv-x="655" d="M221 1393q0 -8 2 -17.5t6 -21.5q6 -25 11.5 -83.5t9.5 -123t7 -116.5t3 -64l33 -545q4 -59 9 -83t22 -24q16 0 19 21.5t5 44.5q0 12 4 80.5t9.5 166t11.5 208t10 206t8 163t4 75.5q8 115 19.5 187.5t11.5 82.5q0 20 -12 21q-10 0 -31 -10q-43 -23 -86 -63t-66 -77 q-10 -16 -10 -28zM225 70q0 -35 25 -70t78 -35q47 0 76.5 32t29.5 79q0 45 -29.5 71.5t-74.5 26.5q-55 0 -80 -36t-25 -68z" />
<glyph unicode="&#x22;" horiz-adv-x="665" d="M119 1518q0 -12 7 -39t17.5 -70t21.5 -105.5t17 -146.5q4 -61 9.5 -76.5t13.5 -15.5t13 15.5t9 76.5q6 84 17.5 146.5t21.5 105.5t17.5 69.5t7.5 39.5q0 23 -23.5 25.5t-62.5 2.5t-62.5 -3t-23.5 -25zM375 1518q0 -12 7 -39t17.5 -70t21.5 -105.5t17 -146.5 q4 -61 9.5 -76.5t13.5 -15.5t13 15.5t9 76.5q6 84 17.5 146.5t21.5 105.5t17.5 69.5t7.5 39.5q0 23 -23.5 25.5t-62.5 2.5t-62.5 -3t-23.5 -25z" />
<glyph unicode="#" d="M66 492h249l-77 -492h71l78 492h334l-76 -492h72l74 492h251v114h-233l49 336h246v115h-230l66 487h-72l-65 -487h-328l68 487h-74l-68 -487h-270v-115h254l-51 -336h-268v-114zM408 606l51 336h327l-49 -336h-329z" />
<glyph unicode="$" d="M176 123q0 -33 9.5 -45t47.5 -29q31 -12 69 -21.5t76 -15.5t70.5 -9t53.5 -3l-17 -174q-2 -23 15 -21l39 13q18 4 20 16l14 166q53 0 128 20.5t142.5 68.5t116 126t48.5 193q0 86 -29 152.5t-78 120.5t-113.5 101t-138.5 95l60 610q37 0 82 -17.5t71 -42.5 q41 -37 50.5 -79.5t9.5 -81.5q0 -18 4 -24.5t12 -6.5q14 0 16 20q2 12 3 46t2.5 72t2.5 72t1 50q0 23 -17 31q-29 10 -91 19t-138 9l18 187q0 14 -16 10l-47 -14q-12 -4 -13 -19l-14 -164q-66 0 -140.5 -22.5t-138 -67.5t-104.5 -114.5t-41 -163.5q0 -70 22.5 -126 t65.5 -109.5t107.5 -105.5t150.5 -112l-59 -655q-61 0 -121.5 21.5t-101.5 68.5q-39 45 -47.5 91t-6.5 99q2 27 0 36t-10 9q-16 0 -22 -38q-2 -10 -6.5 -33t-7.5 -55.5t-6 -72.5t-3 -81zM358 1239q0 78 34 126t79 75.5t92 37t74 9.5l-53 -559q-111 78 -168.5 148.5 t-57.5 162.5zM582 78l53 608q104 -68 164.5 -143.5t60.5 -180.5q0 -125 -73.5 -201.5t-204.5 -82.5z" />
<glyph unicode="%" horiz-adv-x="1781" d="M102 1143q0 -59 19.5 -124t61.5 -117t105.5 -86t153.5 -34t157 35t110 91.5t64.5 126t21.5 139.5q0 98 -39 175.5t-94 116.5v4q12 0 71.5 4.5t134 9.5t151.5 11t126 8q-4 -10 -40 -94t-90 -213t-123 -290t-139.5 -323.5t-137 -316t-117.5 -268.5q-4 -10 1 -18.5t21 -4.5 l94 17q10 2 21 24l602 1500q10 23 16.5 37t6.5 22t-15 8q-20 0 -95 -7t-183.5 -16.5t-238.5 -16.5t-261 -7q-92 0 -160.5 -35t-114 -90t-68 -126t-22.5 -142zM229 1171q0 61 12.5 118t38 99t66.5 66.5t100 24.5q55 0 96.5 -30t69 -78t42 -107.5t14.5 -118.5 q0 -61 -11.5 -116.5t-38 -97.5t-67.5 -66.5t-100 -24.5q-55 0 -97.5 29.5t-70 76.5t-41 106.5t-13.5 118.5zM985 360q0 -59 19.5 -123.5t61.5 -116.5t105.5 -86t153.5 -34q92 0 158.5 35t110.5 91t64.5 126t20.5 139q0 61 -20.5 125t-62.5 116t-105.5 86t-151.5 34 q-94 0 -160.5 -35t-109.5 -90.5t-63.5 -126t-20.5 -140.5zM1112 389q0 61 12.5 117.5t38 97.5t66.5 65.5t100 24.5q55 0 96 -29.5t70 -76.5t43 -106.5t14 -119.5q0 -61 -12 -116.5t-37.5 -97.5t-68 -66.5t-101.5 -24.5q-55 0 -97 30t-69.5 77t-41 106.5t-13.5 118.5z" />
<glyph unicode="&#x26;" horiz-adv-x="1587" d="M102 418q0 -68 28 -146.5t87 -146.5t153.5 -114t229.5 -46q113 0 201 27.5t151.5 64.5t102.5 74t57 55q84 -68 140.5 -105.5t100.5 -57t86 -24.5t99 -5h201q14 0 24.5 4t10.5 10q0 14 -29 15q-55 0 -125 25.5t-119 53.5q-43 25 -111.5 71t-170.5 132q33 41 69.5 98.5 t65 122t48 133t19.5 129.5q0 16 -7 26.5t-30 14.5q-86 10 -147 12.5t-98 2.5q-12 0 -22.5 -3t-10.5 -12q0 -8 7 -11t17 -3q23 0 51.5 -6t49.5 -27q23 -23 31 -50t8 -50q0 -94 -31 -187.5t-74 -152.5q-25 20 -79 69.5t-113.5 105.5t-113.5 109.5t-81 82.5q-80 86 -140 156.5 t-101 132t-61.5 119t-20.5 116.5q0 72 23.5 123t60 82.5t83 47t93.5 15.5q68 0 119 -27.5t86 -62.5q39 -41 51 -87t12 -87q0 -23 2 -31t10 -8q6 0 11.5 6t9.5 29q2 12 5 42t5 64.5t3 70.5t1 58q0 18 -4 29.5t-22 22.5q-41 23 -105.5 37t-142.5 14q-102 0 -184.5 -36 t-139.5 -91t-87 -122t-30 -128q0 -70 21.5 -136.5t79.5 -146.5q-59 -35 -115.5 -83t-100.5 -109.5t-71 -136t-27 -164.5zM262 514q0 123 52.5 207t131.5 137q20 -31 54.5 -72t69 -81.5t66.5 -76.5t52 -57q20 -23 64.5 -65.5t97.5 -94t109.5 -101.5t99.5 -85 q-27 -27 -64 -54.5t-85 -49t-107 -34.5t-131 -13q-86 0 -161 32.5t-130 91t-87 139.5t-32 177z" />
<glyph unicode="'" horiz-adv-x="409" d="M119 1518q0 -12 7 -39t17.5 -70t21.5 -105.5t17 -146.5q4 -61 9.5 -76.5t13.5 -15.5t13 15.5t9 76.5q6 84 17.5 146.5t21.5 105.5t17.5 69.5t7.5 39.5q0 23 -23.5 25.5t-62.5 2.5t-62.5 -3t-23.5 -25z" />
<glyph unicode="(" horiz-adv-x="737" d="M127 627q0 -164 44 -303.5t108.5 -251t139.5 -191.5t134 -125q14 -10 18 -10q14 0 15 14q0 6 -4 11.5t-11 13.5q-63 76 -116.5 162t-92 190.5t-60 231t-21.5 284.5q0 156 31.5 292t77.5 243.5t96.5 183.5t86.5 113q14 14 15 22q0 16 -15 17q-6 0 -22 -13 q-47 -35 -120 -115.5t-140.5 -197.5t-115.5 -262t-48 -309z" />
<glyph unicode=")" horiz-adv-x="737" d="M150 -238q0 -16 14 -16q6 0 22 12q47 33 120 115t140.5 198.5t115.5 263t48 312.5q0 162 -44 300t-108.5 250t-139 191.5t-134.5 124.5q-14 10 -18 11q-14 0 -14 -15q0 -6 4 -11t10 -13q63 -76 116.5 -162t92.5 -190.5t60.5 -231.5t21.5 -285q0 -156 -32 -292t-78 -243.5 t-96 -183t-87 -112.5q-14 -14 -14 -23z" />
<glyph unicode="*" horiz-adv-x="716" d="M68 1475q0 -12 1 -35t4 -46.5t7 -40t10 -16.5q4 0 9 3t16 3q10 0 34.5 -1t54 -2t58.5 -4t47 -7q8 0 8 -6t-6 -12q-10 -8 -39.5 -34t-63.5 -56.5t-63.5 -57t-38.5 -39.5q-10 -12 -12 -19t-2 -13q0 -10 41 -18.5t88 -8.5q25 0 25 10q0 12 4 24.5t8 22.5t15.5 36t23.5 53.5 t23.5 51t15.5 29.5q2 6 8 6q4 0 5 -4t3 -8q6 -18 17.5 -48t25 -60.5t25.5 -59t20 -43.5q16 -29 29 -28q12 0 29.5 11t34 27.5t28.5 34t12 29.5q0 10 -22 18q-10 2 -34.5 19.5t-52.5 40t-52.5 45t-32.5 39.5q-6 10 -2 14q8 4 12 4q23 0 61.5 1t76.5 3t66 3t32 1q25 6 24 19 q0 14 -7 36.5t-16.5 43t-18.5 35t-15 14.5q-4 0 -8 -4t-13 -11q-6 -6 -23.5 -21t-44 -32.5t-58 -34t-66.5 -24.5q-8 -2 -10 0q-4 6 0 14q8 29 18 66t18.5 73.5t13.5 69.5t5 51q0 23 -16 23q-14 0 -36 -6.5t-43.5 -15.5t-37 -19t-15.5 -19q0 -6 9 -22q4 -8 13 -37t18.5 -61.5 t15.5 -62.5t6 -40t-2 -14q-8 -2 -17 2q-8 6 -36.5 27.5t-64.5 45t-71.5 41t-58.5 17.5q-20 0 -20 -16z" />
<glyph unicode="+" horiz-adv-x="1044" d="M86 498h385v-383h107v383h380v104h-383v383h-106v-383h-383v-104z" />
<glyph unicode="," horiz-adv-x="512" d="M158 141q0 -10 11 -20t23.5 -26.5t23.5 -40t11 -58.5q0 -29 -11 -64.5t-38 -81.5q-4 -6 -9 -14t-5 -14q0 -14 14 -15q12 0 27 19q20 25 40.5 54.5t38 60t31 58.5t21.5 46q8 20 14 44t6 36q0 14 -7 35.5t-27 52.5q-16 25 -22.5 32t-14.5 7q-20 0 -43 -9.5t-41.5 -24.5 t-30.5 -35.5t-12 -41.5z" />
<glyph unicode="-" horiz-adv-x="798" d="M74 504q-6 -31 10 -31q8 0 31.5 11.5t52.5 19.5q16 4 56 11t89 14.5t103.5 15.5t102.5 15t85 12.5t51 7.5q25 4 48.5 10t23.5 24q0 12 -17.5 16.5t-43.5 4.5h-516q-25 0 -33 -3t-13 -14z" />
<glyph unicode="." horiz-adv-x="512" d="M143 113q0 -39 26 -76t85 -37q53 0 84 35t31 84t-33 77.5t-80 28.5q-31 0 -51.5 -11t-34.5 -27.5t-20.5 -36t-6.5 -37.5z" />
<glyph unicode="/" horiz-adv-x="1130" d="M47 12l66 -43q14 -8 24 11l950 1527q8 12 -4 21l-61 37q-16 10 -29 -9l-944 -1513q-14 -25 -2 -31z" />
<glyph unicode="0" d="M86 721q0 -137 30.5 -272.5t90 -243t149.5 -174t211 -66.5q125 0 221.5 66.5t162 181.5t99 270.5t33.5 331.5q0 68 -10 150t-31.5 165.5t-58.5 162.5t-91 141.5t-126 99.5t-166 37q-123 0 -218 -64.5t-161.5 -179.5t-100.5 -270.5t-34 -335.5zM252 805q0 156 21.5 282.5 t61.5 218t96 140.5t128 49q86 0 153.5 -65.5t112.5 -173t69 -246t24 -283.5q0 -152 -23 -277.5t-63.5 -217t-97 -141.5t-126.5 -50q-94 0 -161.5 68.5t-110.5 178t-63.5 246t-20.5 271.5z" />
<glyph unicode="1" d="M227 1262q0 -6 5.5 -12.5t9.5 -6.5q10 0 24 8q18 8 52 25.5t69 33t66.5 28t46.5 12.5q25 0 31 -16.5t6 -47.5v-311v-359q0 -154 -1 -278.5t-6 -192.5q-4 -47 -19 -71.5t-67 -34.5q-14 -4 -38.5 -6l-49 -4t-46 -3t-29.5 -1q-16 0 -17 -17q0 -14 35 -14q49 0 102.5 1 t99.5 2t76.5 2t34.5 1t29 -1t64.5 -2t92 -2t109.5 -1q35 0 35 14q0 6 -6 11.5t-12 5.5t-24.5 1t-39 3t-40 4t-32.5 4q-49 10 -62 35.5t-19 72.5q-8 68 -10.5 193t-0.5 278l2 379q2 236 6.5 378.5t4.5 154.5q0 16 -5.5 29.5t-17.5 13.5q-10 0 -22.5 -7.5t-26.5 -17.5 l-395 -264q-14 -10 -15 -20z" />
<glyph unicode="2" d="M72 29q0 -12 9 -20.5t19 -8.5h777q66 0 93 10t40 51q8 27 18 67t19.5 80t16.5 73.5t7 48.5q0 10 -2 20t-10 10q-16 0 -25 -30q-18 -82 -72.5 -134.5t-166.5 -62.5q-29 -4 -82.5 -5t-108.5 -3t-102 -2h-58h-149q-8 0 -10 4t6 10q63 53 141 121t157 145.5t153.5 165.5 t133 183.5t93.5 197t35 207.5q0 82 -29 157t-87.5 132t-144.5 91t-202 34q-125 0 -214 -22.5t-147 -49.5q-14 -10 -17 -15t-3 -16q0 -25 2 -63.5t4 -78.5t4 -71.5t2 -37.5q2 -27 16 -27q18 0 19 31q0 59 17.5 111t54.5 87q45 41 95 59.5t124 18.5q51 0 108.5 -18.5 t105.5 -61.5t79.5 -115.5t31.5 -183.5q0 -147 -54 -277t-149.5 -254t-226.5 -248t-284 -261q-12 -10 -24.5 -23.5t-12.5 -25.5z" />
<glyph unicode="3" d="M137 72q0 -18 5 -30.5t28 -27.5q16 -10 45 -18t64.5 -15.5t72.5 -11.5t68 -4q137 0 249.5 42t193.5 114t125 167t44 204q0 88 -34.5 156.5t-86 117.5t-110 77.5t-107.5 41.5v10q25 10 70 41t91 78t80 109.5t34 140.5q0 39 -16.5 91t-61.5 100t-124 82t-204 34 q-117 0 -200.5 -23.5t-131.5 -46.5q-18 -12 -22 -20t-4 -23q0 -35 4 -95t10 -110q2 -23 14 -22q4 0 9.5 4t5.5 20q0 119 72.5 180.5t185.5 61.5q90 0 147.5 -30.5t90 -74.5t45 -91.5t12.5 -79.5q0 -90 -37 -155t-88 -106.5t-107.5 -65.5t-93.5 -30q-20 -4 -33.5 -9 t-13.5 -15q0 -16 53 -27q49 -10 115 -34.5t124 -70.5t99 -118t41 -174q0 -92 -28.5 -160t-79 -113t-118 -67.5t-145.5 -22.5q-80 0 -136 21.5t-92 58.5t-54.5 87t-24.5 110q-2 29 -14 28q-14 0 -16 -30q-2 -16 -5.5 -45t-5.5 -64t-3 -72.5t-1 -74.5z" />
<glyph unicode="4" d="M29 485q0 -14 12 -19t31 -5h624v-66v-84t-1 -89t-3 -77q-4 -47 -20.5 -76.5t-67.5 -37.5q-25 -4 -53.5 -5t-42.5 -1q-16 0 -16 -17q0 -14 32 -14q43 0 83 1t73 2t54.5 2t27.5 1t30.5 -1t61.5 -2t80 -2t86 -1q33 0 33 14q0 16 -19 17q-16 0 -41.5 2t-48.5 6 q-49 12 -66.5 38.5t-21.5 73.5q-4 33 -5 77t-1 89t1 85t1 65h188q18 0 26.5 5t16.5 21q6 18 12.5 46t6.5 36t-1 16.5t-9 8.5q-6 0 -24.5 -11.5t-59.5 -11.5h-156v658v90q0 49 1 94t1 78v45q0 35 -20 35q-16 0 -43 -37q-16 -23 -77 -104.5t-143 -192.5t-173 -233.5 t-167.5 -227t-129 -174.5t-54.5 -74q-6 -8 -12 -19t-6 -24zM172 571q10 12 50 67.5t95.5 131.5t118 163t116.5 162.5t93 132t47 68.5h4v-725h-524z" />
<glyph unicode="5" d="M158 59q0 -16 6 -29.5t33 -27.5q39 -23 90 -30t98 -7q156 0 270.5 51.5t191.5 132t114.5 182t37.5 199.5q0 137 -63.5 236.5t-158.5 167t-206.5 105.5t-210.5 53l29 315h387q61 0 97 -9t54.5 -26.5t23.5 -42t5 -53.5q0 -27 13 -27q6 0 10 7.5t6 15.5q16 113 21.5 178.5 t5.5 79.5q0 20 -15 20q-4 0 -14 -2t-29 -4q-18 -4 -46.5 -6t-71.5 -2h-482q-37 0 -39 -27l-47 -522q-4 -35 54 -37q59 -4 147 -35.5t171 -93t142.5 -154t59.5 -214.5q0 -106 -32 -181t-84 -123.5t-116.5 -71t-128.5 -22.5q-55 0 -106 10.5t-90 40t-61.5 81t-22.5 132.5 q0 35 -17 35q-6 0 -10 -10t-8 -27q-4 -25 -6 -58.5t-2 -70.5v-69v-60z" />
<glyph unicode="6" d="M100 555q0 -139 35 -248.5t98.5 -185.5t151.5 -116t197 -40q115 0 198.5 34t155.5 103q68 66 107.5 166.5t39.5 223.5q0 68 -24.5 141.5t-74.5 134.5t-128 100t-184 39q-86 0 -146.5 -24.5t-91.5 -46.5q-18 -12 -18 -25q0 -16 8 -16q4 0 13 3t14 5q35 16 73.5 21t79.5 5 q47 0 101.5 -27.5t100.5 -80.5t76.5 -134.5t30.5 -187.5q0 -84 -22.5 -150.5t-62.5 -112.5t-93 -69.5t-114 -23.5q-88 0 -153 46t-107 120t-62 165t-20 181q0 182 49 334.5t128 273.5t177 209t196 144q16 10 27.5 17t11.5 19q0 18 -16 19q-10 0 -43 -15q-150 -66 -279 -174 t-224 -242t-150.5 -284.5t-55.5 -300.5z" />
<glyph unicode="7" d="M168 1202q0 -33 12 -33q14 0 19 29q4 43 24.5 87t52.5 71q37 31 91.5 41t99.5 10h504q-117 -201 -215.5 -399.5t-176 -376.5t-133 -326.5t-86.5 -249.5q-4 -14 -8 -33.5t-4 -35.5q0 -20 19 -21q14 0 48 13.5t67.5 34t59 41t25.5 36.5t-2 30.5t2 41.5q8 66 39 172t77 232 t101.5 261.5t111.5 259t110.5 226t95.5 164.5q8 12 10 22t2 17q0 20 -37 20h-663q-100 0 -142.5 10t-52.5 10q-20 0 -20 -28q0 -8 -5.5 -50t-10.5 -95.5t-10 -104.5t-5 -76z" />
<glyph unicode="8" d="M109 362q0 -92 36.5 -165.5t99 -125t147.5 -79t181 -27.5q111 0 200 37t153.5 99.5t99.5 143.5t35 171q0 94 -37 165.5t-91 126t-115.5 91.5t-112.5 63q43 20 94 55t95 83.5t73.5 113t29.5 143.5q0 76 -28.5 134.5t-78.5 98.5t-119 60.5t-148 20.5q-113 0 -195 -36 t-136 -89t-80 -118.5t-26 -123.5q0 -68 22.5 -124t61.5 -102t91.5 -85t111.5 -74q-70 -29 -135.5 -70.5t-116.5 -99t-81.5 -129.5t-30.5 -158zM266 383q0 76 21.5 138.5t59.5 112.5t88 87t108 65q70 -37 134 -74.5t114.5 -85.5t81 -110.5t30.5 -146.5q0 -68 -22.5 -127.5 t-63.5 -103.5t-99 -69.5t-128 -25.5q-72 0 -131.5 27.5t-102.5 73.5t-66.5 108.5t-23.5 130.5zM332 1243q0 43 15 88t48 83t83 62.5t120 24.5q119 0 187.5 -75.5t68.5 -192.5q0 -78 -22.5 -134.5t-56.5 -95t-71.5 -64.5t-68.5 -44q-63 33 -118.5 67.5t-96.5 75.5t-64.5 90.5 t-23.5 114.5z" />
<glyph unicode="9" d="M100 1094q0 -66 23.5 -135.5t74 -127t129.5 -95.5t187 -38q61 0 131 23.5t115 71.5q8 8 8 16q0 14 -10 14q-8 0 -27 -12q-20 -12 -56 -24.5t-108 -12.5q-20 0 -71.5 15.5t-103.5 60.5t-92 125t-40 207q0 61 17.5 117.5t53.5 99.5t88 69.5t122 26.5q68 0 129 -34 t107 -101.5t74 -168.5t28 -237q0 -180 -53.5 -333.5t-135.5 -274.5t-180 -209t-188 -137q-20 -10 -21 -29q0 -20 16 -20t33 8q61 31 138 81t156 119.5t153.5 158t133 194.5t93.5 232t35 270q0 117 -33 218t-93.5 177t-147 119t-195.5 43q-106 0 -195.5 -35t-155 -98.5 t-102.5 -150.5t-37 -193z" />
<glyph unicode=":" horiz-adv-x="512" d="M143 174q0 -39 26 -76t85 -37q53 0 84 35t31 84t-33 78t-80 29q-31 0 -51.5 -11.5t-34.5 -28t-20.5 -35.5t-6.5 -38zM143 866q0 -39 26 -75.5t85 -36.5q53 0 84 34.5t31 83.5t-33 78t-80 29q-31 0 -51.5 -11.5t-34.5 -27.5t-20.5 -35.5t-6.5 -38.5z" />
<glyph unicode=";" horiz-adv-x="512" d="M143 866q0 -39 26 -75.5t85 -36.5q53 0 84 34.5t31 83.5t-33 78t-80 29q-31 0 -51.5 -11.5t-34.5 -27.5t-20.5 -35.5t-6.5 -38.5zM168 141q0 -10 11 -20t23.5 -26.5t24 -40t11.5 -58.5q0 -29 -11.5 -64.5t-38.5 -81.5q-4 -6 -9 -14t-5 -14q0 -14 14 -15q12 0 27 19 q20 25 40.5 54.5t38 60t31 58.5t21.5 46q8 20 14.5 44t6.5 36q0 14 -7.5 35.5t-27.5 52.5q-16 25 -22.5 32t-14.5 7q-20 0 -43 -9.5t-41 -24.5t-30.5 -35.5t-12.5 -41.5z" />
<glyph unicode="&#x3c;" horiz-adv-x="1044" d="M51 485l873 -405v108l-760 351l760 348v108l-873 -401v-109z" />
<glyph unicode="=" horiz-adv-x="1044" d="M86 313h872v105h-872v-105zM86 674h872v104h-872v-104z" />
<glyph unicode="&#x3e;" horiz-adv-x="1044" d="M86 80l872 405v109l-872 401v-108l762 -348l-762 -351v-108z" />
<glyph unicode="?" horiz-adv-x="999" d="M143 1389q0 -37 1 -72t3.5 -62.5t4.5 -37.5q2 -20 16 -21q12 0 16 35q4 53 19.5 99t52.5 91q25 31 75 55.5t126 24.5q70 0 115.5 -27.5t73.5 -67.5t39 -86t11 -83q0 -51 -8 -99t-28.5 -98.5t-55.5 -108t-88 -124.5q-35 -43 -70.5 -83t-70.5 -87q-45 -57 -45 -102 q0 -29 14 -55.5t45 -65.5q18 -23 45 -47.5t41 -24.5q6 0 14.5 6t8.5 12q0 10 -19 35q-23 29 -31 55.5t-8 49.5q0 12 2 26.5t11.5 33t26 43t44.5 61.5q74 92 138.5 161.5t111.5 134t75 133t28 158.5q0 55 -19.5 111.5t-64.5 102.5t-116 76t-171 30q-119 0 -206 -26.5 t-134 -55.5q-16 -10 -19.5 -16.5t-3.5 -16.5v-67zM356 70q0 -35 25 -70t78 -35q47 0 76.5 32t29.5 79q0 45 -29.5 71.5t-74.5 26.5q-55 0 -80 -36t-25 -68z" />
<glyph unicode="@" horiz-adv-x="1855" d="M135 449q0 -172 54.5 -298t147.5 -209t216 -123t260 -40q102 0 195.5 19.5t171 51t138 71.5t101.5 79q23 23 30 36t3 19q-4 8 -17.5 7t-37.5 -21q-51 -41 -103.5 -76t-115 -59.5t-140 -37.5t-180.5 -13q-129 0 -236.5 41t-185.5 119.5t-121 191t-43 258.5q0 182 53.5 340 t153 274.5t241.5 183t322 66.5q143 0 253 -42t183.5 -113.5t110.5 -170t37 -208.5q0 -117 -27.5 -212.5t-71.5 -161t-102.5 -101t-119.5 -35.5q-53 0 -81 23.5t-40.5 63.5t-12.5 89q0 51 5 106q2 31 7 73t13 86t16.5 85t16.5 70q18 66 42.5 108.5t33.5 54.5q4 10 -1.5 18.5 t-15.5 4.5q-14 -4 -32.5 -15.5t-35 -24.5t-30.5 -26.5t-21 -21.5q-14 6 -40.5 15.5t-73.5 9.5q-49 0 -123 -32t-141 -83q-23 -16 -64 -54t-81 -97.5t-69.5 -143.5t-29.5 -193q0 -80 31.5 -137t76.5 -57q66 0 168.5 74.5t204.5 228.5l6 -2q-2 -41 -3 -68.5t1 -51t5 -43 t10 -42.5q14 -49 55 -76.5t88 -27.5q127 0 256 86t201.5 221t72.5 295q0 127 -41 233.5t-122.5 183t-206.5 119.5t-293 43q-125 0 -241 -34.5t-218 -97t-187 -148.5t-146.5 -189.5t-95.5 -221.5t-34 -240zM696 449q0 68 16.5 146.5t45.5 147.5q43 98 100 143.5t133 45.5 q33 0 71 -13.5t54 -23.5q-14 -43 -24.5 -76t-17.5 -63.5t-15 -64.5t-17 -79q-27 -45 -66.5 -95t-81.5 -93t-82 -71.5t-67 -28.5q-12 0 -21 12t-15.5 30.5t-9.5 41t-3 41.5z" />
<glyph unicode="A" horiz-adv-x="1433" d="M-55 10q0 -16 39 -16q37 0 73.5 1t69.5 2t56.5 2t31.5 1t27.5 -1t42 -2t47 -2t43.5 -1q31 0 31 16q0 12 -21 13h-20q-27 0 -52.5 14t-25.5 45q0 57 28 137l123 363q6 16 21 16h440q12 0 19 -12l190 -504q10 -25 4 -38t-16 -17q-14 -4 -15 -15q0 -10 16.5 -11t45.5 -3 q53 -2 105 -3t95 -1h76h45q16 0 28.5 3t12.5 13q0 12 -20 13q-16 0 -38 2t-44 10q-16 4 -35.5 14t-41 35t-47.5 68t-52 110q-31 78 -77 194.5t-96 247t-101.5 263.5t-93.5 244.5t-71.5 189.5t-37.5 96q-18 47 -26.5 60.5t-18.5 13.5t-18.5 -14.5t-27.5 -65.5l-464 -1272 q-29 -78 -65 -130t-107 -62q-12 -2 -31 -3t-29 -1q-18 0 -18 -13zM475 686l180 553q7 22 15 22.5t16 -22.5l195 -553q1 -3 1 -6q0 -8 -10 -8h-391q-8 0 -8 6q0 3 2 8z" />
<glyph unicode="B" horiz-adv-x="1406" d="M186 1526q0 -12 17 -13q14 0 35.5 -1t33.5 -5q51 -10 67.5 -36.5t20.5 -79.5q2 -25 3.5 -52.5t1.5 -74.5v-121v-195v-360q0 -147 -1.5 -263t-9.5 -182q-6 -45 -17 -75.5t-42 -36.5q-14 -4 -30.5 -6t-31.5 -2q-16 0 -16 -13q0 -16 33 -16q23 0 55.5 2t63.5 2q33 2 55 2h27 q6 0 42.5 -1t81.5 -5q45 -2 88.5 -4t59.5 -2q131 0 229.5 39t163 102.5t97 143t32.5 161.5q0 90 -33.5 162t-86 126t-115 90t-119.5 54q37 37 70.5 76t61.5 83t44 95t16 115q0 39 -16 91t-62.5 100.5t-126 82t-204.5 33.5q-72 0 -129.5 -3t-93.5 -3q-4 0 -28 1t-57.5 2 t-72.5 2t-74 1q-33 0 -33 -16zM528 418v137v131v117q0 14 13 14h34h48t46 -1t31 -3q37 -4 77 -14.5t93 -44.5q59 -41 97.5 -92.5t61 -106.5t31.5 -110.5t9 -100.5q0 -86 -29.5 -142.5t-73.5 -89t-94.5 -46t-91.5 -13.5q-14 0 -35.5 1t-47 4t-51 9.5t-46.5 16.5 q-25 12 -37 24.5t-19 30t-9.5 43t-4.5 62.5q0 12 -1 60t-1 114zM528 903v549q0 16 25 23q25 6 53.5 8t44.5 2q76 0 128 -31t85 -81t48.5 -113.5t15.5 -126.5t-20.5 -116.5t-53.5 -90.5q-16 -18 -31.5 -28.5t-35 -17t-48 -7.5t-71.5 -1q-57 0 -86 3.5t-39 5.5q-14 6 -15 22z " />
<glyph unicode="C" horiz-adv-x="1648" d="M131 793q0 -74 11.5 -153t39 -156.5t75.5 -153.5t122 -144q123 -111 284 -166t392 -55q49 0 101 3t101.5 8.5t92.5 14.5t73 21q29 12 36 21.5t18 38.5q8 27 16 68.5t14 82.5t10.5 73t4.5 38q0 12 -3 21.5t-12 9.5q-14 0 -20 -31q-4 -29 -23.5 -83t-52.5 -89 q-61 -63 -150.5 -83t-205.5 -20q-164 0 -300.5 62.5t-233.5 166t-151.5 239t-54.5 282.5q0 158 36 292t149 242q27 27 65.5 53.5t95 48t132 35t178.5 13.5q135 0 245.5 -35t163.5 -82q41 -35 63.5 -92t22.5 -117q0 -43 17 -43q16 0 18 43q0 12 1 37t1 56t1 62.5t3 55.5 q4 55 7.5 79t3.5 36q0 10 -5.5 15t-21.5 8q-49 4 -99.5 12t-109.5 18q-76 14 -155.5 19.5t-141.5 5.5q-119 0 -214 -17.5t-171 -46t-135 -69.5t-105 -86q-68 -68 -112.5 -145t-70 -151.5t-36 -143t-10.5 -119.5z" />
<glyph unicode="D" horiz-adv-x="1878" d="M186 1526q0 -12 17 -13q14 0 35.5 -1t33.5 -5q51 -10 67.5 -36.5t20.5 -79.5q2 -25 3.5 -52.5t1.5 -74.5v-121v-195v-360q0 -147 -1.5 -263t-9.5 -182q-6 -45 -17 -75.5t-42 -36.5q-14 -4 -30.5 -6t-31.5 -2q-16 0 -16 -13q0 -16 33 -16q23 0 55.5 2t63.5 2q33 2 55 2h27 q8 0 55 -4t115 -8q66 -4 142.5 -8.5t141.5 -4.5q131 0 231.5 24t176.5 59.5t128 76.5t85 76q43 45 83 104.5t70.5 132t49 158.5t18.5 182q0 92 -16.5 170t-44 142.5t-63.5 116t-75 92.5q-92 94 -202.5 142t-223 68.5t-216 21.5t-179.5 1q-47 0 -92 -1t-83 -2t-65.5 -2 t-35.5 -1q-4 0 -28 1t-57.5 2t-72.5 2t-74 1q-33 0 -33 -16zM537 571v156v254v125v125q0 61 1 110.5t1 75.5q0 31 24 41q6 2 21.5 5t36 5t40 3.5t35.5 1.5q92 0 181.5 -7.5t173.5 -32t163.5 -70.5t151.5 -122q31 -33 65.5 -81t64.5 -112.5t48.5 -144.5t18.5 -178 q0 -72 -10.5 -141.5t-32 -134t-52 -120t-69.5 -93.5q-92 -92 -218 -141.5t-270 -49.5q-90 0 -152.5 7t-102.5 19.5t-61.5 27t-31.5 28.5q-6 8 -10 26.5t-6 41t-4 46t-2 42.5q0 14 -1 55t-2 100.5t-1 132.5z" />
<glyph unicode="E" horiz-adv-x="1249" d="M186 1526q0 -12 17 -13q14 0 35.5 -1t33.5 -5q51 -10 67.5 -36.5t20.5 -79.5q2 -25 3.5 -52.5t1.5 -74.5v-121v-195v-360q0 -147 -1.5 -263t-9.5 -182q-6 -45 -17 -75.5t-42 -36.5q-14 -4 -30.5 -6t-31.5 -2q-16 0 -16 -13q0 -16 33 -16q23 0 55.5 2t63.5 2q33 2 55 2h27 q23 0 61.5 -1t97.5 -5q59 -2 144.5 -4t201.5 -2q31 0 49.5 1t31 6t18.5 15t12 31q4 16 8 47t8 62.5t7.5 57t3.5 32.5q0 10 -1 20t-12 10q-12 0 -18 -30q-10 -63 -30.5 -97t-61.5 -51q-41 -16 -98.5 -19t-98.5 -3q-76 0 -121 6t-70.5 24.5t-34.5 51t-11 86.5v63v102v107v78 v180q0 14 14 14q12 0 52 -1t86 -2t90 -3t65 -4q59 -6 79.5 -27.5t26.5 -44.5q6 -20 7 -35.5t1 -31.5q0 -18 15 -19q10 0 12 13.5t2 25.5q0 6 1 21.5t2 35l2 39t3 35.5q4 51 10.5 78t6.5 37q0 16 -11 16q-8 0 -30 -26q-14 -16 -37 -20.5t-60 -8.5q-18 -2 -67 -3t-105 -1h-98 h-55q-12 0 -12 21v565q0 20 12 20h47q41 0 88 -1t90 -2t55 -3q82 -10 109 -27.5t37 -42.5q8 -18 10 -40.5t2 -32.5q0 -27 17 -27q6 0 9 7t5 16q2 8 3 27.5t3 41t3 40t1 26.5q4 43 10 64.5t6 31.5q0 18 -8 19q-8 0 -14 -4.5t-14 -6.5q-29 -6 -88 -10q-18 0 -91 -1t-157 -1 h-150h-71l-84 4q-35 2 -74 2h-74q-33 0 -33 -16z" />
<glyph unicode="F" horiz-adv-x="1212" d="M186 1526q0 -12 17 -13q14 0 35.5 -1t33.5 -5q51 -10 67.5 -36.5t20.5 -79.5q2 -25 3.5 -52.5t1.5 -74.5v-121v-195v-360q0 -147 -1.5 -263t-9.5 -182q-6 -45 -17 -75.5t-42 -36.5q-14 -4 -30.5 -6t-31.5 -2q-16 0 -16 -13q0 -16 33 -16q23 0 55.5 1t63 2t54 2t28.5 1 q4 0 27.5 -1t59 -2t78.5 -2t86 -1q33 0 33 16q0 12 -16 13q-14 0 -42 2t-50 6q-47 6 -61.5 36.5t-18.5 75.5q-8 66 -9 181.5t-1 263.5v174q0 18 14 18h55t93.5 -1t96.5 -2t64 -3q47 -6 72.5 -28.5t34.5 -45.5q6 -18 8 -37.5t4 -35.5q0 -18 14 -19q10 0 12.5 12.5t2.5 26.5 q0 6 1 22.5t2 37l2 41t3 36.5q4 51 10 78t6 37q0 16 -10 16q-6 0 -11 -6t-12 -14q-14 -20 -35.5 -26.5t-58.5 -10.5q-23 -2 -45 -2h-47l-262 -2q-14 0 -14 18v566q0 23 18 22l315 -6q59 -2 94 -23.5t46 -41.5q10 -20 14 -43t4 -35q0 -25 14 -25q8 0 11.5 7t5.5 16 q2 8 3 27.5t3 41t3 40t1 26.5q4 43 10 64.5t6 31.5q0 18 -12 19q-6 0 -12 -4.5t-17 -8.5q-14 -4 -37.5 -5t-52.5 -3q-12 0 -51 -1t-92 -1h-111h-112h-90h-47l-84 4q-35 2 -74 2h-74q-33 0 -33 -16z" />
<glyph unicode="G" horiz-adv-x="1765" d="M131 768q0 -96 20.5 -184t54.5 -163t78 -135.5t91 -101.5q86 -74 179 -117.5t184 -66.5t171 -29t140 -6q45 0 99 4t112.5 15.5t116 29t106.5 43.5l14 10.5t8 15.5t3 30.5t1 54.5v229v115t4 98q4 53 19.5 81t56.5 36q18 4 29.5 5t21.5 1q16 0 17 12q0 16 -33 17 q-23 0 -55.5 -1t-63 -2t-54.5 -2t-28 -1t-27.5 1t-57 2t-72.5 2t-74 1q-33 0 -33 -17q0 -12 17 -12q14 0 35.5 -1t33.5 -5q31 -8 49.5 -19.5t27.5 -33t12 -59t3 -99.5v-348q0 -49 -41 -72q-20 -12 -48.5 -20t-60.5 -13.5t-64.5 -7.5t-59.5 -2q-141 0 -277.5 50.5 t-259.5 168.5q-27 27 -64.5 78t-71.5 124t-57.5 165t-23.5 201q0 180 56.5 314t146.5 206q57 45 115.5 72.5t114 41t107.5 17.5t101 4q98 0 179 -15.5t141.5 -39t101.5 -53t60 -58.5q23 -37 32 -74.5t11 -60.5q4 -31 14 -31t14 9.5t4 33.5q0 76 2 127t5.5 84t5.5 51.5 t2 28.5q0 6 -4.5 11t-20.5 8q-39 2 -86 7t-80 13q-14 2 -47 8t-76 12.5t-92 10.5t-98 4q-59 0 -126 -4t-136.5 -17.5t-141 -39t-141.5 -68.5q-68 -43 -130 -107.5t-109.5 -149.5t-75 -189.5t-27.5 -227.5z" />
<glyph unicode="H" horiz-adv-x="1966" d="M186 1526q0 -12 17 -13q14 0 35.5 -1t33.5 -5q51 -10 67.5 -36.5t20.5 -79.5q2 -25 3.5 -52.5t1.5 -74.5v-121v-195v-360q0 -147 -1.5 -263t-9.5 -182q-6 -45 -17 -75.5t-42 -36.5q-14 -4 -30.5 -6t-31.5 -2q-16 0 -16 -13q0 -16 33 -16q23 0 55.5 1t63 2t54 2t28.5 1 q4 0 27.5 -1t59 -2t78.5 -2t86 -1q33 0 33 16q0 12 -16 13q-14 0 -42 2t-50 6q-47 6 -61.5 36.5t-18.5 75.5q-8 66 -9 181.5t-1 263.5v215q0 12 12 12h868q12 0 13 -12v-215q0 -147 -1.5 -263t-9.5 -182q-6 -45 -17 -75.5t-42 -36.5q-14 -4 -30.5 -6t-31.5 -2q-16 0 -16 -13 q0 -16 33 -16q23 0 55.5 1t63 2t54 2t28.5 1q4 0 27.5 -1t59 -2t78.5 -2t86 -1q33 0 33 16q0 12 -16 13q-14 0 -42 2t-50 6q-47 6 -61.5 36.5t-18.5 75.5q-8 66 -9 181.5t-1 263.5v360v195v121q0 47 1 74.5t3 52.5q4 53 19 80.5t56 35.5q18 4 29.5 5t22.5 1q16 0 16 13 q0 16 -33 16q-23 0 -55.5 -1t-63 -2t-54 -2t-27.5 -1t-28 1t-57.5 2t-72.5 2t-74 1q-33 0 -33 -16q0 -12 17 -13q14 0 35.5 -1t33.5 -5q51 -10 67.5 -36.5t20.5 -79.5q2 -25 3.5 -52.5t1.5 -74.5v-121v-195v-43q0 -12 -13 -12h-868q-12 0 -12 12v43v195v121q0 47 1 74.5 t3 52.5q4 53 19 80.5t56 35.5q18 4 29.5 5t22.5 1q16 0 16 13q0 16 -33 16q-23 0 -55.5 -1t-63 -2t-54 -2t-27.5 -1t-28 1t-57.5 2t-72.5 2t-74 1q-33 0 -33 -16z" />
<glyph unicode="I" horiz-adv-x="901" d="M211 1526q0 -12 16 -13q10 0 28.5 -2t35.5 -6q63 -14 69 -114q2 -25 3.5 -52.5t1.5 -74.5v-121v-195v-360q0 -147 -1.5 -263t-9.5 -182q-6 -45 -17 -75.5t-42 -36.5q-14 -4 -30.5 -6t-31.5 -2q-16 0 -16 -13q0 -16 33 -16q23 0 55.5 1t63 2t54 2t28.5 1q4 0 27.5 -1 t59 -2t78.5 -2t86 -1q33 0 33 16q0 12 -16 13q-14 0 -42 2t-50 6q-47 6 -61.5 36.5t-18.5 75.5q-8 66 -9 181.5t-1 263.5v360v195v121q0 47 1 74.5t3 52.5q4 53 19 80.5t56 35.5q18 4 29.5 5t22.5 1q16 0 16 13q0 16 -33 16q-23 0 -55.5 -1t-63 -2t-54 -2t-27.5 -1t-28 1 t-54.5 2t-65.5 2t-59 1q-33 0 -33 -16z" />
<glyph unicode="J" horiz-adv-x="847" d="M68 -504q0 -12 14 -12q6 0 14 4q16 8 38 22.5t42 28.5q125 86 195.5 161t103.5 153q23 55 35 109t18.5 123t7.5 158t1 214v491v195v121q0 47 1 74.5t3 52.5q4 53 19 80.5t56 35.5q18 4 29.5 5t22.5 1q16 0 16 13q0 16 -33 16q-23 0 -55.5 -1t-63 -2t-54 -2t-27.5 -1 t-28 1t-57.5 2t-72.5 2t-74 1q-33 0 -33 -16q0 -12 17 -13q14 0 35.5 -1t33.5 -5q51 -10 67.5 -36.5t20.5 -79.5q2 -25 3.5 -52.5t1.5 -74.5v-121v-195v-592q0 -199 -12.5 -324.5t-37 -208.5t-61.5 -135.5t-86 -103.5q-14 -14 -33.5 -30.5t-38.5 -26.5q-14 -10 -21 -15.5 t-7 -15.5z" />
<glyph unicode="K" horiz-adv-x="1540" d="M186 1526q0 -12 17 -13q14 0 35.5 -1t33.5 -5q51 -10 67.5 -36.5t20.5 -79.5q2 -25 3.5 -52.5t1.5 -74.5v-121v-195v-360q0 -147 -1.5 -263t-9.5 -182q-6 -45 -17 -75.5t-42 -36.5q-14 -4 -30.5 -6t-31.5 -2q-16 0 -16 -13q0 -16 33 -16q23 0 54.5 1t61 2t52 2t28.5 1 t30 -1t56.5 -2t72.5 -2t77 -1q33 0 33 16q0 12 -17 13q-14 0 -35.5 2t-44.5 6q-47 6 -61 36.5t-18 75.5q-8 66 -9.5 181.5t-1.5 263.5v200h11q25 -31 74 -86t111 -122.5t130 -140t128 -137t109.5 -113t71.5 -66.5q33 -27 60.5 -48.5t55.5 -36.5t59.5 -25.5t72.5 -14.5 q35 -4 66 -4h75h105q27 0 36 4t9 12q0 12 -27 13q-10 0 -48 5t-79 21q-37 14 -64.5 30.5t-60 41t-74.5 63.5t-106 99q-20 18 -66.5 65t-104.5 105.5t-121.5 124t-119 124t-97.5 101.5t-54 57q10 12 44 47t80 81t98 97.5t98.5 96.5t82 79.5t47.5 47.5q35 33 62 59.5t52.5 48 t51 37.5t56.5 31q61 28 111 28h3q20 0 21 15q0 14 -31 14q-18 0 -50 -1t-63.5 -2t-55 -2t-27.5 -1q-37 0 -80 3t-74 3q-25 0 -25 -14q0 -8 19 -17q27 -10 26 -43q0 -27 -33.5 -64.5t-76.5 -82.5q-18 -20 -58 -62t-90.5 -93.5t-105.5 -108t-102.5 -104.5t-81 -82.5 t-41.5 -45.5h-9v123v195v121q0 47 1 74.5t3 52.5q4 53 19.5 80.5t56.5 35.5q18 4 29.5 5t21.5 1q16 0 17 13q0 16 -33 16q-23 0 -54.5 -1t-61 -2t-53 -2t-30.5 -1q-4 0 -27.5 1t-55 2t-69.5 2t-73 1q-33 0 -33 -16z" />
<glyph unicode="L" horiz-adv-x="1212" d="M186 1526q0 -12 17 -13q14 0 35.5 -1t33.5 -5q51 -10 67.5 -36.5t20.5 -79.5q2 -25 3.5 -52.5t1.5 -74.5v-121v-195v-360q0 -147 -1.5 -263t-9.5 -182q-6 -45 -17 -75.5t-42 -36.5q-14 -4 -30.5 -6t-31.5 -2q-16 0 -16 -13q0 -16 33 -16q23 0 54.5 1t62.5 3q31 0 54 1 t30 1q45 0 94 -1t114 -5q66 -2 148 -4t192 -2q41 0 64.5 2t36 8t17.5 16.5t11 28.5q6 23 11.5 54.5t10.5 62t7 55.5t2 33q0 31 -12 31q-14 0 -19 -27q-4 -29 -18 -63.5t-35 -59.5q-37 -45 -101.5 -53t-146.5 -8q-59 0 -101 3t-69.5 8t-45 14t-29.5 22q-29 27 -37 135t-8 334 v364v195v121q0 47 1 74.5t3 52.5q4 53 19 80.5t61 35.5q18 4 37.5 5t29.5 1q16 0 17 13q0 16 -33 16q-23 0 -58.5 -1t-70.5 -2t-61.5 -2t-30.5 -1t-28 1t-57.5 2t-72.5 2t-74 1q-33 0 -33 -16z" />
<glyph unicode="M" horiz-adv-x="2150" d="M102 12q0 -18 35 -18q20 0 47 1t52.5 2t46 2t26.5 1t25.5 -1t47.5 -2t58.5 -2t59.5 -1q37 0 37 18q0 10 -17 11q-10 0 -30.5 2t-47.5 8q-23 4 -38 22.5t-15 40.5v54t2 51l82 950h8q6 -14 26.5 -60.5t49.5 -107.5t60.5 -131t60.5 -130t49.5 -103.5t24.5 -51.5t34.5 -68.5 t69.5 -138t77 -154.5t58 -114q29 -55 41 -74.5t23 -19.5q14 0 24.5 20.5t42.5 87.5l502 1065h6l99 -1056q4 -29 2 -50.5t-11 -23.5q-14 -2 -14 -14q0 -8 11.5 -12.5t45.5 -8.5q29 -2 79 -4t103.5 -4t98.5 -3t61 -1q18 0 30.5 4t12.5 14t-16 11q-16 0 -52 2t-81 16 q-33 10 -53.5 35.5t-31.5 56.5t-17.5 63.5t-8.5 61.5l-137 1258q-6 55 -25 55q-16 0 -30 -33l-602 -1286l-627 1288q-14 31 -31 31q-18 0 -22 -37l-148 -1335q-6 -59 -18 -109.5t-64 -60.5q-23 -4 -36 -5t-25 -1q-20 0 -21 -11z" />
<glyph unicode="N" horiz-adv-x="1939" d="M135 10q0 -16 33 -16q70 0 126 3t71 3q14 0 71.5 -3t145.5 -3q37 0 36 16q0 12 -16 13q-14 0 -44 2t-58 10q-20 6 -34.5 20.5t-24 42t-14.5 69.5t-7 105l-27 981q25 -29 78 -87t125 -138t157 -173t175 -189q82 -88 172 -182.5t168 -175.5t132 -135l62 -62 q41 -41 66.5 -67t42 -40t26 -19t15.5 -5t9 4t5 18t3 43t1 80l4 1200q0 92 12.5 132t63.5 50q18 4 29.5 5t19.5 1q23 0 23 15q0 14 -37 14q-63 0 -110.5 -3t-63.5 -3q-8 0 -29.5 1t-51.5 2t-63.5 2t-68.5 1q-41 0 -41 -14t16 -15q12 0 42 -2t59 -8q47 -12 62 -53t17 -141 l23 -1041q-25 25 -76 81.5t-118.5 130t-144.5 157.5t-153 166q-119 127 -230.5 247.5t-201.5 217t-148 161t-71 76.5q-16 16 -37.5 41t-33.5 25t-17.5 -21.5t-5.5 -81.5l-2 -1173q0 -139 -11.5 -194.5t-49.5 -65.5q-23 -8 -47.5 -10t-36.5 -2q-16 0 -17 -13z" />
<glyph unicode="O" horiz-adv-x="1873" d="M131 770q0 -139 45 -281.5t141.5 -259t247 -190.5t361.5 -74q184 0 335.5 66.5t258 180.5t165 266.5t58.5 324.5q0 178 -61.5 320.5t-169 241.5t-255 152.5t-319.5 53.5q-141 0 -256 -36t-205 -97.5t-154.5 -142.5t-107.5 -170t-63.5 -181t-20.5 -174zM326 827 q0 168 45 294t124.5 211t189.5 127t239 42q121 0 233.5 -49t198.5 -144.5t138 -236.5t52 -326q0 -223 -62.5 -361t-151.5 -214t-185 -101.5t-166 -25.5q-139 0 -258 55.5t-208 157.5t-139 247.5t-50 323.5z" />
<glyph unicode="P" horiz-adv-x="1314" d="M186 1526q0 -12 17 -13q14 0 35.5 -1t33.5 -5q51 -10 67.5 -36.5t20.5 -79.5q2 -25 3.5 -52.5t1.5 -74.5v-121v-195v-360q0 -147 -1.5 -263t-9.5 -182q-6 -45 -17 -75.5t-42 -36.5q-14 -4 -30.5 -6t-31.5 -2q-16 0 -16 -13q0 -16 33 -16q23 0 55.5 1t63 2t53 2t24.5 1 q4 0 28 -1t59.5 -2t78.5 -2t86 -1q33 0 33 16q0 12 -16 13q-14 0 -42 2t-50 6q-47 6 -61.5 36.5t-18.5 75.5q-8 66 -9.5 181.5t-1.5 263.5v842q0 33 17 38q14 6 37.5 9.5t50.5 3.5h49t69 -9.5t80 -31t83 -62.5t63.5 -86t33.5 -88t14 -80t3 -61q0 -72 -27.5 -132.5 t-74.5 -105.5t-112.5 -70.5t-139.5 -25.5q-33 0 -44 -3t-11 -15q0 -8 7 -11.5t15 -3.5q8 -2 21 -2h22q109 0 201 35t159.5 99.5t105.5 154.5t38 199q0 82 -34 146.5t-68 96.5q-12 12 -37 32t-70 38t-111.5 32.5t-162.5 14.5q-72 0 -148 -3t-110 -3q-6 0 -30 1t-57.5 2 t-71.5 2t-73 1q-33 0 -33 -16z" />
<glyph unicode="Q" horiz-adv-x="1884" d="M131 770q0 -139 45 -281.5t142.5 -259t249 -190.5t364.5 -74q41 0 86 5t88 14.5t81 22.5t66 28l344 -191q250 -139 454 -206.5t390 -67.5q113 0 212.5 14.5t182 36t147 46t107.5 44.5q16 8 17 21q0 12 -12 12q-4 0 -11.5 -2t-17.5 -6q-106 -43 -216 -61.5t-188 -18.5 q-39 0 -114.5 5t-186 28.5t-252 73t-309.5 135.5l-420 217q51 33 113.5 94t118 148t93.5 199t38 247q0 178 -61.5 320.5t-169 241.5t-255 152.5t-319.5 53.5q-141 0 -256 -36t-205 -97.5t-154.5 -142.5t-107.5 -170t-63.5 -181t-20.5 -174zM326 827q0 168 45 294t124.5 211 t189.5 127t239 42q121 0 233.5 -49t198.5 -144.5t138 -236.5t52 -326q0 -223 -62.5 -361t-151.5 -214t-185 -101.5t-166 -25.5q-139 0 -258 55.5t-208 157.5t-139 247.5t-50 323.5z" />
<glyph unicode="R" horiz-adv-x="1544" d="M186 1526q0 -12 17 -13q14 0 35.5 -1t33.5 -5q51 -10 67.5 -36.5t20.5 -79.5q2 -25 3.5 -52.5t1.5 -74.5v-121v-195v-360q0 -147 -1.5 -263t-9.5 -182q-6 -45 -17 -75.5t-42 -36.5q-14 -4 -30.5 -6t-31.5 -2q-16 0 -16 -13q0 -16 33 -16q23 0 55.5 1t63 2t51.5 2l22 1 q4 0 28 -1t59.5 -2t78.5 -2t86 -1q33 0 33 16q0 12 -16 13q-14 0 -42 2t-51 6q-47 6 -61 36.5t-18 75.5q-8 66 -9.5 181.5t-1.5 263.5v49q0 16 15 16l252 -4q14 0 26 -12q14 -20 40 -54t55.5 -75t62.5 -86t65 -88q88 -117 149.5 -191.5t127.5 -109.5q39 -23 86 -31t133 -8 h146q29 0 39 3t10 13q0 12 -19 13q-10 0 -30.5 1t-49.5 5q-39 6 -102.5 32.5t-147.5 114.5q-90 96 -194.5 229.5t-230.5 294.5q137 127 192 243t55 231q0 53 -15 98t-36.5 79.5t-46.5 60.5t-43 40q-82 59 -179 74.5t-196 15.5q-25 0 -61.5 -1t-74.5 -2t-67.5 -2t-37.5 -1 q-4 0 -28 1t-57.5 2t-72.5 2t-74 1q-33 0 -33 -16zM528 770v670q0 18 17 24q16 4 53 8.5t84 4.5q166 0 260 -108.5t94 -301.5q0 -117 -35.5 -198t-89.5 -117q-35 -25 -75.5 -32t-77.5 -7q-68 0 -130.5 9t-84.5 23q-14 8 -15 25z" />
<glyph unicode="S" horiz-adv-x="1167" d="M203 98q0 -41 4 -54t26 -24q63 -31 133 -43t142 -12q84 0 164 19.5t145 66.5q53 37 87 83t53.5 93t26.5 90t7 74q0 61 -12 117.5t-46 113t-92.5 118t-148.5 132.5l-57 46q-74 57 -122 102t-76.5 84t-40 77t-11.5 81q0 113 72.5 175t179.5 62q70 0 117 -13t76.5 -31.5 t44 -37t18.5 -26.5q10 -16 17.5 -50t9.5 -53q2 -12 4 -19t12 -7q14 0 14 47q0 104 4 156.5t4 60.5q0 14 -20 14q-12 0 -27.5 2t-44.5 8q-39 10 -85 15.5t-105 5.5q-98 0 -176 -26.5t-133.5 -76t-85 -117t-29.5 -149.5q0 -53 11 -103t41 -104.5t81 -112t133 -124.5l92 -76 q66 -55 111 -99t72.5 -86t40 -86t12.5 -98q0 -49 -18.5 -98t-54.5 -87t-91 -62.5t-129 -24.5q-51 0 -100.5 11t-91.5 36t-70.5 65t-40.5 97q-4 23 -5 42t-1 34q0 23 -15 22q-14 0 -16 -33q-2 -25 -6 -82t-4 -135z" />
<glyph unicode="T" horiz-adv-x="1415" d="M51 1319q0 -18 10 -19q12 0 21 21q4 10 11 23.5t24 39.5q12 18 28.5 30.5t41 20t58.5 11.5t81 4l303 4v-866q0 -147 -1 -263t-10 -182q-6 -45 -17 -75.5t-42 -36.5q-14 -4 -30.5 -6t-30.5 -2q-16 0 -17 -13q0 -16 33 -16q23 0 55.5 1t63.5 2t54.5 2t27.5 1t27.5 -1 t59.5 -2t79 -2t86 -1q33 0 32 16q0 12 -16 13q-14 0 -42 2t-50 6q-47 6 -61.5 36.5t-18.5 75.5q-8 66 -9 181.5t-1 263.5v866l258 -4q74 -2 122 -11t75.5 -23.5t40 -35t14.5 -43.5l2 -22q2 -23 5 -29t11 -6q14 0 14 27q0 8 1.5 35.5t2.5 62.5t2 69.5t1 57.5q0 10 -1 17 t-10 7q-6 0 -20 -3t-37 -7q-25 -4 -60.5 -7t-84.5 -3h-768q-18 0 -67.5 3t-94.5 7q-41 4 -60.5 14.5t-29.5 10.5q-6 0 -11.5 -14.5t-9.5 -24.5q-2 -6 -9 -37t-15.5 -67.5t-14.5 -68.5t-6 -40z" />
<glyph unicode="U" horiz-adv-x="1699" d="M84 1513q14 0 35.5 -1t34.5 -5q51 -10 67.5 -36.5t20.5 -79.5q2 -25 3 -52.5t1 -74.5v-121v-195v-299q0 -113 13 -196.5t38 -148t57.5 -111t69.5 -82.5q55 -51 117.5 -81t122 -44.5t107.5 -17.5t75 -3q45 0 96 5t104.5 21.5t109.5 46.5t112 79q61 55 98 125.5t57.5 151.5 t26.5 166t6 169v219v195v121q0 47 1 74.5t3 52.5q4 53 19.5 79.5t56.5 36.5q18 4 29.5 5t21.5 1q16 0 17 13q0 16 -33 16q-23 0 -50.5 -1t-53 -2t-44 -2t-24.5 -1q-4 0 -25.5 1t-52.5 2t-67.5 2t-71.5 1q-33 0 -33 -16q0 -12 16 -13q14 0 36 -1t34 -5q51 -10 67.5 -36.5 t20.5 -79.5q2 -25 3 -52.5t1 -74.5v-121v-195v-256q0 -160 -23.5 -286.5t-95.5 -215.5q-55 -66 -141 -106.5t-180 -40.5q-88 0 -161 20.5t-148 92.5q-33 31 -62 72.5t-49.5 101t-31.5 140.5t-11 192v286v195v121q0 47 1 74.5t3 52.5q4 53 19.5 81.5t56.5 34.5q18 4 29.5 5 t21.5 1q16 0 16 13q0 16 -32 16q-23 0 -54.5 -1t-62.5 -2t-55.5 -2t-30.5 -1t-31.5 1t-59.5 2t-72 2t-73 1q-32 0 -32 -15q0 -13 16 -14z" />
<glyph unicode="V" horiz-adv-x="1519" d="M-53 1528q0 -14 16 -15q10 0 32.5 -1t45.5 -7q27 -8 47.5 -17t36.5 -26.5t31.5 -44t31.5 -69.5l502 -1256q29 -74 42 -100.5t32 -26.5q14 0 28.5 32t57.5 124q35 76 102.5 235.5t161.5 384.5q39 94 77 184.5t68.5 166t53 129t30.5 75.5q20 51 37 86t30 56.5t24.5 33 t21.5 17.5q29 18 58.5 21t39.5 3q25 0 25 15q0 14 -35 14q-23 0 -48.5 -1t-49 -2t-40.5 -2t-22 -1q-18 0 -78.5 3t-121.5 3q-45 0 -45 -16q0 -12 22 -13q16 0 38 -1t40 -7q16 -8 21.5 -21.5t5.5 -25.5q0 -14 -5.5 -34.5t-13.5 -43.5q-12 -37 -39.5 -116.5t-66.5 -183 t-85 -221.5t-91 -231.5t-86 -214t-70 -169.5l-393 1048q-23 59 -39.5 104.5t-16.5 65.5q0 10 5.5 21.5t21.5 19.5q14 6 38 8t40 2q20 0 20 15q0 14 -55 14q-59 0 -116.5 -3t-73.5 -3q-10 0 -35 1t-57.5 2t-71.5 2t-76 1q-53 0 -53 -14z" />
<glyph unicode="W" horiz-adv-x="2252" d="M-23 1528q0 -14 19 -15q10 0 41 -2t51 -10q39 -16 63.5 -47t49.5 -113l364 -1214q14 -53 24.5 -85t18.5 -48.5t14.5 -22.5t14.5 -6q18 0 30.5 21.5t37.5 87.5q18 47 52 136t74.5 199.5t87 230.5t87.5 230.5t74.5 200.5t52.5 139h4l401 -1138q23 -59 34 -83t27 -24 q8 0 15.5 6t16.5 24.5t21.5 53.5t33.5 92q20 57 48.5 146.5t63.5 194t72 218t72.5 222t66.5 202t53 158.5q29 86 57.5 145.5t75.5 75.5q16 6 40 8t30 2q18 0 19 17q0 12 -29 12q-25 0 -51.5 -1t-50 -2t-41 -2t-23.5 -1q-14 0 -72.5 3t-136.5 3q-35 0 -35 -14t19 -15 q72 0 94 -16t22 -45q0 -20 -3 -47t-19 -84q-18 -66 -45 -156t-56.5 -190.5t-62.5 -203.5t-61.5 -197.5t-52 -172t-38.5 -125.5h-8l-407 1162q-18 53 -29.5 74.5t-21.5 21.5t-19.5 -15.5t-32.5 -78.5l-434 -1168h-4q-8 27 -28.5 102t-49 174t-59.5 210.5t-59.5 213t-49 180.5 t-28.5 112q-16 68 -27.5 118t-11.5 70t8 32.5t18 16.5q18 10 43 11t37 1q20 0 21 15q0 6 -7.5 10t-29.5 4q-78 0 -137.5 -3t-73.5 -3q-8 0 -31.5 1t-57.5 2t-74 2t-79 1q-33 0 -33 -14z" />
<glyph unicode="X" horiz-adv-x="1421" d="M-10 8q0 -14 20 -14q25 0 54.5 1t57.5 2t48 2t27 1q6 0 30.5 -1t55 -2t61.5 -2t49 -1q25 0 25 14t-17 15q-8 0 -18 1t-21 3q-33 8 -32 39q0 16 6 40.5t20 49.5l320 542q92 -156 180 -307t172 -303q14 -25 6 -39t-16 -18q-12 -4 -12 -17q0 -8 11 -11t52 -5q78 -4 156 -4 h172q28 0 28 15q0 13 -16 14q-10 0 -29.5 3t-42.5 9q-45 14 -70.5 36.5t-49.5 55.5q-10 14 -44 67.5t-79 128t-95.5 158.5t-94.5 159t-76.5 130t-43.5 72l330 495q45 66 79 109t79 57q16 6 36.5 8t30.5 2q23 0 23 15q0 14 -33 14q-53 0 -105.5 -3t-66.5 -3t-68.5 3t-113.5 3 q-35 0 -35 -14t18 -15q10 0 28 -1t34 -5q35 -10 35 -37q0 -18 -5.5 -34.5t-15.5 -38.5q-6 -10 -25.5 -44t-48 -80t-61.5 -99.5t-64.5 -103.5t-59 -91t-42.5 -64q-80 133 -145.5 250t-130.5 240q-20 37 -21 68q0 27 25 34q12 4 28.5 5t26.5 1q18 0 19 15q0 8 -6.5 11t-28.5 3 q-27 0 -57.5 -1t-58.5 -2t-49.5 -2t-27.5 -1t-35.5 1t-68.5 2t-77 2t-58 1q-35 0 -35 -14t18 -15q10 0 36 -3t50 -11q53 -18 89 -61t71 -103l328 -551l-371 -585q-49 -78 -86 -116t-84 -50q-23 -6 -44.5 -8t-33.5 -2q-16 0 -16 -15z" />
<glyph unicode="Y" horiz-adv-x="1339" d="M-43 1513q14 0 40 -8t48 -24q29 -18 64.5 -56.5t74.5 -95.5q18 -27 51 -79t72 -114.5t79 -129t75 -123t57.5 -96t26.5 -48.5q10 -23 18 -43t14.5 -44.5t10.5 -55.5t4 -72v-176q0 -25 -1 -82t-5 -123q-4 -45 -18.5 -75.5t-45.5 -36.5q-14 -4 -30.5 -6t-30.5 -2 q-16 0 -17 -13q0 -16 33 -16q23 0 55.5 1t63.5 2t54.5 2t27.5 1t27.5 -1t59.5 -2t79 -2t86 -1q33 0 33 16q0 12 -17 13q-14 0 -41.5 2t-50.5 6q-47 6 -63.5 36.5t-20.5 75.5q-4 66 -5 123.5t-1 81.5v176q0 51 4 100.5t27 104.5q8 23 36.5 74t66.5 116.5t81 138t84 137.5 t73.5 115t49.5 70q35 41 56.5 63.5t51.5 41.5q25 16 51.5 22t43.5 6q26 0 26 16v1q0 12 -26 12q-14 0 -46 -1l-64 -2t-58.5 -2t-30.5 -1q-12 0 -53 3t-82 3q-33 0 -33 -12q0 -10 31 -21q18 -4 25 -19t7 -38q0 -20 -7 -46t-27 -58q-10 -16 -37 -61.5t-61.5 -106t-72.5 -128 t-73 -128t-60.5 -108.5t-35.5 -71q-10 14 -39 64.5t-68 117t-83 142.5t-83 142.5t-67.5 116.5t-36.5 65q-12 23 -19.5 42t-7.5 38q0 23 27 36q14 6 22.5 9.5t8.5 9.5t-5.5 10t-21.5 4q-59 0 -110.5 -3t-61.5 -3q-4 0 -30.5 1t-60.5 2t-66 2t-46 1q-26 0 -26 -13 q0 -15 20 -16z" />
<glyph unicode="Z" horiz-adv-x="1417" d="M150 16q0 -16 36 -16q270 0 528.5 -5t516.5 -5q18 0 27.5 1t15.5 7t10 16.5t8 28.5t11.5 49t13.5 64.5t11 65.5t5 57q0 29 -3 38t-13 9q-12 0 -19 -33q-4 -23 -15 -56.5t-26 -54.5q-16 -23 -38.5 -41t-58.5 -31.5t-91 -20.5t-135 -7h-557q236 356 465 706.5t452 706.5 q6 10 7.5 14t1.5 11q0 16 -41 16h-572h-129t-227 6q-41 2 -56.5 8t-29.5 6t-21 -38q-4 -23 -11 -65t-13 -85t-11.5 -79t-5.5 -44q0 -27 13 -26q8 0 13 7t9 29q4 35 33 84.5t84 77.5q25 12 59.5 20.5t73.5 13.5t81 6t81 1h444q-215 -350 -442 -693t-457 -691q-18 -29 -23 -39 t-5 -19z" />
<glyph unicode="[" horiz-adv-x="737" d="M199 -221q0 -23 5 -28t27 -5h349q25 0 24 14q0 14 -35 17q-47 4 -110.5 12t-110.5 31q-14 59 -14 190v1250q0 131 14 190q47 20 111.5 29.5t111.5 13.5q35 2 35 16t-24 15h-349q-23 0 -28.5 -5.5t-5.5 -21.5v-1718z" />
<glyph unicode="\" horiz-adv-x="1073" d="M43 1432l903 -1452q6 -10 11.5 -11.5t11.5 2.5l61 41q14 6 0 29l-897 1438q-12 18 -29 8l-57 -35q-12 -8 -4 -20z" />
<glyph unicode="]" horiz-adv-x="737" d="M131 -240q0 -14 25 -14h348q23 0 29 5t6 22v1718q0 23 -5.5 28t-27.5 5h-348q-25 0 -25 -15q0 -14 35 -16q47 -4 110.5 -12t110.5 -31q14 -59 14 -190v-1250q0 -131 -14 -190q-47 -23 -112.5 -31t-110.5 -12q-35 -2 -35 -17z" />
<glyph unicode="^" horiz-adv-x="1044" d="M61 666h111l350 759l350 -759h111l-408 872h-106z" />
<glyph unicode="_" horiz-adv-x="1024" d="M0 -154v-102h1024v102h-1024z" />
<glyph unicode="`" horiz-adv-x="1865" d="M606 1855q0 -12 60 -34q8 -4 35.5 -13.5t66.5 -24t82 -28.5t81 -26.5t66.5 -20.5t38.5 -8q18 0 19 10q0 6 -11.5 12.5t-27.5 16.5q-31 20 -64.5 43.5t-61.5 45t-48.5 38t-26.5 22.5q-14 14 -18 23.5t-13 9.5q-6 0 -13 -3t-19 -7q-18 -8 -54 -18.5t-69 -20.5 q-23 -6 -23 -17z" />
<glyph unicode="a" horiz-adv-x="1277" d="M-53 8q0 -14 35 -14q27 0 56.5 1t55 2t45 2t25.5 1q8 0 27.5 -1t44 -2l49 -2t41.5 -1q27 0 26 14q0 14 -18 15h-17q-23 0 -42 10t-19 37q0 47 27 116l102 279q6 14 18 14h416q10 0 17 -10l161 -399q10 -23 1 -33t-17 -14q-6 -4 -9 -5.5t-3 -7.5q0 -8 18.5 -9t44.5 -3 q47 -2 93 -3t85 -1h68h39q16 0 28.5 3t12.5 11t-7.5 11.5t-15.5 3.5q-14 0 -32.5 2t-38.5 8q-14 4 -30.5 12t-36 28.5t-41 55.5t-46.5 94q-29 66 -69 165t-85 210t-91 224.5t-85 208.5t-66.5 163t-35.5 86q-14 29 -21.5 46t-21.5 17q-10 0 -18.5 -12t-24.5 -55l-424 -1090 q-27 -66 -58.5 -108.5t-93.5 -50.5q-10 -2 -26.5 -3t-26.5 -1q-16 0 -16 -15zM422 563l168 477q7 20 14.5 20t16.5 -20l178 -477q2 -12 -6 -12h-365q-7 0 -7 6q0 3 1 6z" />
<glyph unicode="b" horiz-adv-x="1257" d="M164 1296q0 -10 14 -10q12 0 31.5 -1t30.5 -3q45 -6 57 -30.5t16 -69.5q2 -20 3 -44t1 -65v-102v-164v-307q0 -127 -1 -225.5t-9 -151.5q-6 -39 -13 -65.5t-34 -30.5q-12 -2 -27.5 -5.5t-27.5 -3.5q-14 0 -15 -10q0 -14 29 -14q23 0 51.5 1t57.5 3q29 0 49 1t24 1 q6 0 40 -1t77 -3q43 -4 87 -5t69 -1q115 0 199.5 32.5t141 87t84 124t27.5 143.5t-30.5 134t-76.5 105.5t-102.5 76t-107.5 46.5q35 31 67.5 63t58.5 68.5t41 79.5t15 94q0 35 -16.5 81t-59.5 87t-116.5 70t-186.5 29q-63 0 -120.5 -2t-90.5 -2q-4 0 -25.5 1t-51.5 1 q-31 0 -66 1t-65 1q-29 0 -29 -15zM473 350v115v113v96q0 12 10 12h31h41q23 0 42 -1t28 -3q33 -6 73.5 -11t87.5 -34q53 -35 87 -77t52.5 -86t25.5 -85t7 -70q0 -84 -24.5 -136t-63.5 -81.5t-85 -40t-91 -10.5q-25 0 -73 4t-84 21q-20 10 -31.5 20t-18 23.5t-8.5 35 t-4 52.5q0 10 -1 50t-1 93zM473 770v459q0 12 23 18q23 4 49 6t43 2q68 0 116 -25.5t78.5 -65.5t45 -90t14.5 -99q0 -63 -20.5 -108.5t-49.5 -78.5q-29 -31 -64.5 -38t-111.5 -7q-51 0 -76.5 3.5t-34.5 5.5q-12 2 -12 18z" />
<glyph unicode="c" horiz-adv-x="1449" d="M113 674q0 -61 9 -129t33.5 -134.5t67.5 -131t109 -121.5q106 -92 247.5 -139.5t346.5 -47.5q88 0 179 8.5t146 30.5q23 10 30 18.5t15 32.5q6 23 14.5 59t14.5 70.5t10 62.5t4 32q0 10 -5 17t-11 7q-10 0 -12 -5t-6 -19q-4 -25 -22.5 -71t-47.5 -75q-53 -53 -124 -67.5 t-173 -14.5q-145 0 -264 51.5t-205 138.5t-133 201.5t-47 239.5q0 133 30.5 248t131.5 207q25 23 58.5 44t81.5 38.5t113.5 28t151.5 10.5q121 0 214 -28t140 -69q35 -29 55.5 -76t20.5 -98q0 -37 14 -37q18 0 21 37q0 8 1 29.5t1 46.5q0 27 1 53.5t1 48.5q4 47 6 68t2 31 q0 18 -22 18q-45 2 -89 9.5t-96 17.5q-66 10 -137 15t-125 5q-104 0 -187 -14t-149.5 -40t-119 -59.5t-93.5 -72.5q-59 -59 -99 -123.5t-62.5 -128t-31.5 -122t-9 -101.5z" />
<glyph unicode="d" horiz-adv-x="1656" d="M164 1296q0 -14 14 -14q12 0 31.5 -1t30.5 -3q45 -6 57 -28.5t16 -67.5q2 -20 3 -44t1 -65v-102v-164v-307q0 -127 -1 -225.5t-9 -151.5q-6 -39 -13 -62.5t-34 -29.5q-12 -4 -27.5 -6t-27.5 -2q-14 0 -15 -15q0 -14 29 -14q23 0 51.5 1t57.5 3q29 0 49 1t24 1q6 0 47 -3 t101 -7q59 -4 125.5 -7t126.5 -3q115 0 204 20t155.5 50t112.5 65t75 65q37 39 72.5 89t62 111.5t43 134.5t16.5 155q0 156 -54 265t-122 177q-80 80 -177 122t-196.5 58.5t-190.5 17.5t-159 1q-41 0 -80 -1t-74 -1q-33 0 -56 -1t-32 -1q-4 0 -25.5 1t-51.5 1q-31 0 -66 1 t-65 1q-29 0 -29 -15zM481 371v114v133v582q0 27 23 35q12 4 47 8t61 4q80 0 158 -6t151.5 -26.5t142.5 -59.5t132 -102q27 -29 57.5 -69t55 -94t41 -123t16.5 -151q0 -59 -9 -119.5t-26.5 -114.5t-44 -100t-61.5 -79q-82 -78 -189.5 -118t-232.5 -40q-80 0 -133.5 6 t-87 16.5t-52 22.5t-26.5 25q-10 14 -14.5 53t-6.5 72q0 12 -1 47t-1 84z" />
<glyph unicode="e" horiz-adv-x="1128" d="M164 1296q0 -14 14 -14q12 0 31.5 -1t30.5 -3q45 -6 57 -28.5t16 -67.5q2 -20 3 -44t1 -65v-102v-164v-307q0 -127 -1 -225.5t-9 -151.5q-6 -39 -13 -63.5t-34 -28.5q-12 -2 -27.5 -5t-27.5 -3q-14 0 -15 -15q0 -14 29 -14q23 0 50.5 1t54.5 3q29 2 51 2h26h56 q37 0 94 -4q55 -2 133 -4t180 -2q27 0 44.5 1t27.5 5t17.5 13t11.5 26q4 14 8 39.5t8 53.5t6 49.5t2 25.5q0 10 -2 18t-10 8q-12 0 -19 -26q-8 -53 -27.5 -79t-53.5 -42q-35 -14 -90.5 -16.5t-90.5 -2.5q-68 0 -108.5 5.5t-64 20.5t-32 43t-10.5 71v51v88v90v68v145 q0 12 13 12h49t80 -1t84 -3t59 -4q53 -6 70.5 -20.5t21.5 -32.5q6 -16 7 -30.5t1 -26.5q0 -16 13 -17q10 0 13 11.5t3 21.5t2 48t6 65q4 43 9.5 65.5t5.5 30.5q0 14 -11 14q-4 0 -26 -22q-14 -14 -35 -17.5t-53 -7.5q-16 -2 -61.5 -3t-96.5 -1h-94h-49q-10 0 -11 18v474 q0 18 11 18h45t81 -1t82.5 -2t51.5 -3q37 -4 59.5 -9t36.5 -11.5t21.5 -14.5t11.5 -18q6 -16 8 -34t2 -28q0 -23 14 -22q6 0 10.5 6t6.5 12q2 8 3 24.5t3 35t3 34t1 21.5q4 37 9 54t5 28q0 16 -8 16q-6 0 -12 -3t-13 -5q-10 -2 -32.5 -5t-49.5 -5h-45h-81h-101h-96h-74h-33 q-4 0 -25.5 1t-51.5 1q-31 0 -66 1t-65 1q-29 0 -29 -15z" />
<glyph unicode="f" horiz-adv-x="1095" d="M164 1296q0 -14 14 -14q12 0 31.5 -1t30.5 -3q45 -6 57 -28.5t16 -67.5q2 -20 3 -44t1 -65v-102v-164v-307q0 -127 -1 -225.5t-9 -151.5q-6 -39 -13 -63.5t-34 -28.5q-12 -2 -27.5 -5t-27.5 -3q-14 0 -15 -15q0 -14 29 -14q20 0 49 1t56.5 2t48 2t24.5 1q2 0 23.5 -1 t54.5 -2t72 -2t76 -1q29 0 28 14q0 14 -14 15q-12 0 -37 2t-45 6q-37 6 -49 29.5t-17 62.5q-6 51 -7 149.5t-1 227.5v139q0 16 13 16h51h88t90 -1t59 -3q41 -6 63.5 -21.5t28.5 -33.5q6 -16 8.5 -32.5t4.5 -31.5q0 -16 12 -16q10 0 13 11.5t3 23.5q0 10 1.5 50t5.5 67 q4 43 10 65.5t6 30.5q0 14 -10 14q-8 0 -23 -18q-12 -16 -31.5 -21.5t-52.5 -9.5q-18 -2 -39 -2h-43l-245 -2q-10 0 -11.5 4t-1.5 12v476q0 18 15 18l295 -4q53 0 83.5 -17.5t38.5 -33.5t12.5 -36t4.5 -30q0 -20 14 -20q6 0 10 6t7 12q2 8 3 24.5t2 35t2 34t1 21.5 q4 37 9 54t5 28q0 16 -12 16q-4 0 -10.5 -4t-14.5 -6q-12 -4 -33.5 -5t-48.5 -3h-47h-84h-104h-105h-84h-43q-4 0 -24.5 1t-50.5 1q-29 0 -64 1t-65 1q-29 0 -29 -15z" />
<glyph unicode="g" horiz-adv-x="1554" d="M113 653q0 -82 18.5 -156.5t48 -138t68.5 -114.5t80 -86q76 -63 158.5 -100.5t162.5 -56.5t150.5 -24.5t122.5 -5.5q39 0 88 4.5t100 13.5t101.5 23.5t93.5 36.5q16 8 20 21.5t4 72.5v195v96q0 43 2 84q4 47 17.5 68.5t50.5 27.5q16 4 24 4h21q14 0 14 15q0 14 -28 14 q-20 0 -49 -1t-58 -1q-27 0 -47.5 -1t-22.5 -1q-4 0 -26.5 1t-52.5 1q-31 0 -67 1t-67 1q-29 0 -28 -14q0 -14 14 -15q12 0 31.5 -1t29.5 -3q27 -6 43.5 -14t23.5 -26.5t9 -50t2 -85.5v-301q0 -25 -10 -34t-27 -19q-35 -20 -91 -26.5t-103 -6.5q-125 0 -238.5 41t-222.5 141 q-25 23 -57.5 66t-62 104.5t-50 140.5t-20.5 171q0 154 50 266.5t128 171.5q102 78 198.5 95.5t178.5 17.5q176 0 278.5 -43t136.5 -93q23 -31 31 -64.5t10 -49.5q0 -27 13 -27q10 0 15 7.5t5 29.5q0 66 2 109t3 70.5t3 42t2 24.5q0 16 -22 16q-35 0 -76 6t-70 13 q-12 2 -40.5 7t-66.5 10t-82 8t-87 3q-104 0 -230 -18.5t-249 -91.5q-59 -37 -114.5 -91.5t-96.5 -126t-65.5 -160.5t-24.5 -194z" />
<glyph unicode="h" horiz-adv-x="1734" d="M164 1296q0 -14 14 -14q12 0 31.5 -1t30.5 -3q45 -6 57 -28.5t16 -67.5q2 -20 3 -44t1 -65v-102v-164v-307q0 -127 -1 -225.5t-9 -151.5q-6 -39 -13 -62.5t-34 -29.5q-12 -4 -27.5 -6t-27.5 -2q-14 0 -15 -15q0 -14 29 -14q20 0 50 1t57.5 2t48 2t24.5 1q2 0 23.5 -1 t53.5 -2t71 -2t76 -1q29 0 28 14q0 14 -14 15q-12 0 -37 2t-45 6q-41 6 -51 29.5t-15 62.5q-6 53 -7 149.5t-1 223.5v174q0 10 11 10h751q10 0 10 -10v-174q0 -127 -1 -222.5t-7 -148.5q-4 -39 -12 -63.5t-37 -30.5q-12 -4 -26.5 -6t-26.5 -2q-14 0 -15 -15q0 -14 29 -14 q20 0 49 1t56.5 2t48 2t24.5 1t25.5 -1t53.5 -2t70 -2t75 -1q30 0 30 13q0 15 -16 16q-10 0 -36 2t-44 6q-41 6 -51 29.5t-15 62.5q-6 53 -8 151.5t-2 225.5v307v164v102q0 41 1 64.5t3 44.5q4 47 15.5 67.5t46.5 28.5q16 4 24 4h21q16 0 16 14t-31 15q-20 0 -48.5 -1 t-57.5 -1q-27 0 -47.5 -1t-24.5 -1t-24.5 1t-50.5 1q-31 0 -65 1t-65 1q-29 0 -28 -15q0 -14 14 -14q12 0 31.5 -1t30.5 -3q45 -6 56 -28.5t15 -67.5q0 -20 1 -44t2 -65t1 -106v-164v-37q0 -10 -10 -10h-751q-10 0 -11 10v37v164v106q0 41 1 64.5t1 44.5q4 47 15.5 67.5 t48.5 28.5q16 4 24 4h21q14 0 14 14t-28 15q-20 0 -50 -1t-59 -1q-27 0 -47.5 -1t-22.5 -1q-4 0 -25.5 1t-51.5 1q-29 0 -64 1t-65 1q-29 0 -29 -15z" />
<glyph unicode="i" horiz-adv-x="796" d="M186 1296q0 -14 15 -14q10 0 24.5 -1t30.5 -5q29 -6 41 -27.5t16 -66.5q2 -20 3 -44t1 -65v-102v-164v-307q0 -127 -2 -225.5t-8 -151.5q-4 -39 -12 -62.5t-35 -29.5q-12 -4 -27.5 -6t-27.5 -2q-14 0 -15 -15q0 -14 29 -14q20 0 49 1t56.5 2t48 2t24.5 1q2 0 23.5 -1 t54.5 -2t72 -2t76 -1q28 0 28 13q0 15 -14 16q-12 0 -37 2t-45 6q-41 6 -51 29.5t-15 62.5q-6 53 -7 151.5t-1 225.5v307v164v102q0 41 1 64.5t1 44.5q4 47 15.5 67.5t48.5 28.5q16 4 24 4h21q14 0 14 14t-28 15q-20 0 -50 -1t-59 -1q-27 0 -48.5 -1t-23.5 -1q-4 0 -24.5 1 t-48.5 1q-27 0 -56.5 1t-52.5 1q-29 0 -29 -15z" />
<glyph unicode="j" horiz-adv-x="755" d="M59 -428q0 -6 4.5 -8t8.5 -2t7 1t5 1q14 8 34.5 20.5t39.5 24.5q111 72 173 136.5t91 129.5q20 45 31.5 92t17.5 105.5t8 134.5t2 182v418v164v102q0 41 1 64.5t1 44.5q4 47 15.5 67.5t48.5 28.5q16 4 24 4h21q14 0 14 14t-28 15q-20 0 -49 -1t-58 -1q-27 0 -47.5 -1 t-22.5 -1q-4 0 -25.5 1t-51.5 1q-31 0 -66 1t-65 1q-29 0 -29 -15q0 -14 14 -14q12 0 31.5 -1t30.5 -3q45 -6 57 -28.5t16 -67.5q2 -20 3 -44t1 -65v-102v-164v-504q0 -168 -10 -275.5t-31.5 -177t-54.5 -114.5t-76 -88q-12 -10 -29.5 -23.5t-33.5 -23.5q-23 -14 -23 -29z " />
<glyph unicode="k" horiz-adv-x="1363" d="M164 1296q0 -14 14 -14q12 0 31.5 -1t30.5 -3q45 -6 57 -28.5t16 -67.5q2 -20 3 -44t1 -65v-102v-164v-307q0 -127 -1 -225.5t-9 -151.5q-6 -39 -13 -62.5t-34 -29.5q-12 -4 -27.5 -6t-27.5 -2q-14 0 -15 -15q0 -14 29 -14q20 0 49 1t55.5 2t47 2t26.5 1t26.5 -1t51.5 -2 t65.5 -2t67.5 -1q29 0 29 14t-14 15q-12 0 -32 2t-38 6q-41 6 -53.5 29.5t-16.5 62.5q-6 53 -7 151.5t-1 225.5v170h8q20 -27 64.5 -74t97.5 -104.5t112.5 -119t114 -115.5t96.5 -95t62 -58q29 -23 53.5 -41t50 -31.5t53 -22.5t62.5 -11q31 -4 58 -4h67h92q23 0 31 4t8 10 q0 14 -22 15q-10 0 -43 5t-68 19q-33 12 -55.5 25.5t-49 33t-61.5 51t-92 83.5q-18 16 -59 56t-92.5 90t-106.5 106.5t-104.5 105.5t-85 86t-48.5 49l40 40l69 69t84 82t86 81.5t70.5 67.5t42.5 39q59 57 96 90t92 58q27 10 53.5 17t46.5 7q18 0 19 14q0 12 -27 13 q-16 0 -43.5 -1t-56.5 -1q-27 0 -48.5 -1t-25.5 -1q-33 0 -69.5 2t-65.5 2q-20 0 -20 -13q0 -12 16 -16q23 -4 22 -35q0 -23 -29.5 -54.5t-68.5 -70.5q-16 -18 -52 -53t-80 -79l-91 -91l-88 -88t-71 -70.5t-36 -38.5h-8v105v164v102q0 41 1 64.5t3 44.5q4 47 16.5 67.5 t47.5 28.5q16 4 24 4h21q14 0 14 14t-29 15q-20 0 -47.5 -1t-54.5 -1t-48.5 -1t-27.5 -1q-4 0 -24.5 1t-51.5 1q-29 0 -62.5 1t-63.5 1q-29 0 -29 -15z" />
<glyph unicode="l" horiz-adv-x="1095" d="M164 1296q0 -14 14 -14q12 0 31.5 -1t30.5 -3q45 -6 57 -28.5t16 -67.5q2 -20 3 -44t1 -65v-102v-164v-307q0 -127 -1 -225.5t-9 -151.5q-6 -39 -13 -62.5t-34 -29.5q-12 -4 -27.5 -6t-27.5 -2q-14 0 -15 -15q0 -14 29 -14q23 0 49.5 1t55.5 3q27 2 47 2h26q41 0 88 -1 t109 -3q125 -6 313 -6q37 0 57.5 2t32 6t16.5 13t9 26q6 18 10 46t8 53.5t6.5 47t2.5 27.5q0 27 -13 27q-14 0 -18 -23q-4 -27 -15.5 -52.5t-27.5 -45.5q-33 -39 -89.5 -46.5t-127.5 -7.5q-106 0 -161.5 9.5t-78.5 31.5q-12 12 -19 39t-11.5 73t-5.5 114.5t-1 165.5v311v164 v102q0 41 1 64.5t1 44.5q4 47 15.5 68.5t52.5 29.5q16 2 32.5 3t26.5 1q14 0 15 12q0 14 -29 15q-20 0 -53 -1t-64 -1t-55.5 -1t-26.5 -1q-4 0 -24.5 1t-50.5 1q-29 0 -64 1t-65 1q-29 0 -29 -15z" />
<glyph unicode="m" horiz-adv-x="1892" d="M90 10q0 -16 31 -16q18 0 41.5 1t46 2t40 2t23.5 1t23.5 -1t41 -2t51.5 -2t52 -1q33 0 33 16q0 12 -14 13q-10 0 -28.5 2t-41.5 8q-43 10 -43 49v45q0 23 2 43l70 786h8q12 -27 42 -89t64.5 -133.5t68.5 -141.5t54 -111q16 -35 45 -90t60 -114.5t59.5 -112.5t46.5 -86 q27 -47 38 -63.5t24 -16.5q12 0 23.5 17.5t39.5 74.5l434 889h5l86 -881q4 -25 2 -42t-11 -19q-12 -4 -12 -14q0 -6 9 -10.5t42 -8.5q25 -2 70 -4t93 -3t88 -2t56 -1t26.5 4t10.5 12q0 12 -14 13q-14 0 -46 2t-71 14q-29 8 -45 29.5t-26.5 47t-14.5 53.5t-6 50l-123 1069 q-6 47 -26 47q-14 0 -29 -28l-524 -1080l-545 1082q-14 26 -35 26h-2q-16 0 -21 -30l-131 -1137q-6 -49 -15 -90t-54 -49q-20 -4 -31.5 -5t-21.5 -1q-18 0 -19 -13z" />
<glyph unicode="n" horiz-adv-x="1705" d="M141 8q0 -14 29 -14q61 0 111.5 3t62.5 3t62.5 -3t128.5 -3q33 0 32 14q0 14 -14 15q-12 0 -39 2t-51 8q-18 4 -30.5 15t-21 34.5t-12.5 59.5t-6 89l-20 822q20 -23 66 -72t109.5 -115.5t138.5 -145.5t153 -161q72 -74 151.5 -154.5t147 -149.5t116 -115t54.5 -52 q37 -35 60.5 -55.5t38.5 -31.5t23.5 -15t14.5 -4q4 0 7 3t4 16t2 37.5t1 67.5l4 1020q0 39 2 66t8.5 44t18.5 27.5t35 14.5q16 4 26 4h17q10 0 15 6t5 10q0 12 -32 13q-55 0 -96.5 -2t-57.5 -2t-71.5 2t-116.5 2q-35 0 -35 -13q0 -4 2 -10t12 -6t37 -2t51 -6q41 -8 53.5 -43 t14.5 -119l18 -872q-20 20 -64 67t-102.5 108.5t-125 132t-134.5 140.5q-104 106 -202.5 208.5t-176.5 184.5t-129 136.5t-61 64.5l-33.5 33.5t-36.5 19.5q-10 0 -17 -17.5t-7 -70.5v-997q0 -59 -2.5 -99t-7.5 -65t-15 -37t-27 -16q-20 -6 -41.5 -8t-31.5 -2q-14 0 -15 -15z " />
<glyph unicode="o" horiz-adv-x="1654" d="M113 655q0 -117 41 -238.5t127 -221t219 -162t317 -62.5q162 0 296 56.5t228.5 152.5t146.5 226.5t52 275.5q0 152 -54 272.5t-149.5 205.5t-226.5 130t-283 45q-186 0 -321 -66.5t-222 -168t-129 -221.5t-42 -224zM299 702q0 141 39 248t107.5 177.5t164 106.5t207.5 36 q106 0 203.5 -41t172.5 -121t119 -200t44 -275q0 -188 -53.5 -304t-130 -179.5t-159.5 -85t-145 -21.5q-123 0 -226 46t-180 132t-120 207.5t-43 273.5z" />
<glyph unicode="p" horiz-adv-x="1200" d="M164 1296q0 -14 14 -14q12 0 31.5 -1t30.5 -3q45 -6 57 -28.5t16 -67.5q2 -20 3 -44t1 -65v-102v-164v-307q0 -127 -1 -225.5t-9 -151.5q-6 -39 -13 -62.5t-34 -29.5q-12 -4 -27.5 -6t-27.5 -2q-14 0 -15 -15q0 -14 29 -14q20 0 50 1t57.5 2t48 2t22.5 1t24.5 -1t54.5 -2 t71 -2t76 -1q29 0 28 14q0 14 -14 15q-12 0 -37 2t-43 6q-41 6 -54.5 29.5t-17.5 62.5q-6 53 -7 151.5t-1 225.5v708q0 31 15 33q14 4 45.5 8t54.5 4h41q29 0 61.5 -7t69.5 -24.5t72 -52.5q37 -35 57 -72.5t30.5 -73.5t12.5 -66.5t2 -51.5q0 -59 -24.5 -110.5t-69.5 -89 t-105.5 -59t-134.5 -21.5q-29 0 -38 -4.5t-9 -14.5q0 -6 6 -11t12 -5q8 -2 25 -2h27q104 0 189 29.5t146.5 84t95.5 131t34 171.5q0 72 -30 126t-61 82q-12 10 -34.5 26.5t-62.5 33t-100.5 28t-146.5 11.5q-31 0 -68.5 -1t-74.5 -1t-67.5 -1t-45.5 -1q-6 0 -27.5 1t-51.5 1 q-29 0 -64 1t-65 1q-29 0 -29 -15z" />
<glyph unicode="q" horiz-adv-x="1658" d="M111 655q0 -117 39.5 -238.5t125.5 -221t220.5 -162t320.5 -62.5q37 0 76 4.5t78 10.5t72.5 16t58.5 23l299 -162q219 -119 399 -174.5t346 -55.5q100 0 187.5 12.5t161 31t130 40t95.5 37.5q14 6 14 19q0 4 -3 8t-7 4q-8 0 -27 -6q-94 -35 -189 -51.5t-163 -16.5 q-35 0 -101.5 5t-162.5 24.5t-220 60.5t-272 115l-368 182q45 27 100 79t103.5 126t81 169t32.5 210q0 152 -54 272.5t-149.5 205.5t-226.5 130t-283 45q-186 0 -321 -66.5t-222 -168t-129 -221t-42 -224.5zM295 702q0 143 39 250t107.5 177.5t163.5 105.5t208 35 q106 0 204.5 -41t173.5 -122t119 -200t44 -274q0 -125 -24.5 -218t-65.5 -159t-93.5 -106.5t-106.5 -64.5t-106.5 -33t-93.5 -9q-123 0 -226 46t-180 132t-120 207.5t-43 273.5z" />
<glyph unicode="r" horiz-adv-x="1376" d="M164 1296q0 -14 14 -14q12 0 31.5 -1t30.5 -3q45 -6 57 -28.5t16 -67.5q2 -20 3 -44t1 -65v-102v-164v-307q0 -127 -1 -225.5t-9 -151.5q-6 -39 -13 -62.5t-34 -29.5q-12 -4 -27.5 -6t-27.5 -2q-14 0 -15 -15q0 -14 29 -14q20 0 51 1t58.5 2t47.5 2l21 1q2 0 23.5 -1 t53.5 -2t70 -2t74 -1q29 0 29 14t-14 15q-12 0 -37 2t-43 6q-41 6 -54.5 29.5t-17.5 62.5q-6 53 -7 150.5t-1 224.5v41q0 14 12 14l230 -4q14 0 24 -10q14 -18 36 -47t47.5 -63l54 -72t57.5 -72q78 -98 132 -162t114 -94q35 -18 74.5 -26.5t117.5 -8.5h113q25 0 34 3t9 11 q0 14 -17 15q-8 0 -22 1t-41 5q-35 4 -82 25.5t-119 95.5q-78 82 -172 196.5t-205 253.5q125 106 173.5 203.5t48.5 193.5q0 45 -13.5 83t-33 69t-41 52.5t-37.5 33.5q-72 49 -161 62.5t-175 13.5q-20 0 -56 -1t-71 -1t-63.5 -1t-34.5 -1q-4 0 -27 1t-53 1q-31 0 -67 1 t-66 1q-29 0 -29 -15zM473 659v560q0 12 14 20q14 4 51 7t78 3q145 0 228.5 -89t83.5 -253q0 -100 -31 -167.5t-78 -98.5q-33 -23 -67.5 -27t-67.5 -4q-31 0 -61.5 2t-58 6.5t-48 8.5t-31.5 10q-12 8 -12 22z" />
<glyph unicode="s" horiz-adv-x="1073" d="M139 84q0 -35 4 -45t23 -21q55 -27 127 -37t135 -10q74 0 151.5 12.5t135.5 49.5q96 63 132 141t36 156q0 55 -15.5 107t-50.5 102.5t-91 102.5t-138 108l-51 34q-68 45 -112 81t-71.5 70t-39 68.5t-11.5 75.5q0 92 70.5 140.5t169.5 48.5q61 0 103 -10.5t69.5 -24.5 t42 -28.5t18.5 -22.5q8 -14 16.5 -42t10.5 -44q2 -10 4 -16.5t12 -6.5q14 0 15 39q0 90 4 134t4 50q0 12 -19 13q-10 0 -23.5 1t-39.5 7q-33 8 -83 14t-104 6q-90 0 -162.5 -22.5t-126 -64.5t-82 -103.5t-28.5 -136.5q0 -90 56.5 -177.5t201.5 -195.5l82 -62 q59 -45 102 -79.5t71 -68.5t41 -71t13 -84q0 -98 -67.5 -164.5t-202.5 -66.5q-45 0 -91 9t-86 29.5t-68.5 53.5t-39.5 80q-4 18 -5 35.5t-1 27.5q0 20 -16 21q-14 0 -14 -29q-2 -23 -6.5 -70.5t-4.5 -113.5z" />
<glyph unicode="t" horiz-adv-x="1249" d="M45 1114q0 -8 4 -11t8 -3q14 0 19 16q4 10 8 21.5t20 33.5q20 31 58.5 42.5t124.5 13.5l260 4v-731q0 -127 -1 -225.5t-7 -151.5q-4 -39 -14.5 -63.5t-39.5 -30.5q-12 -4 -26.5 -6.5t-26.5 -2.5q-14 0 -14 -12q0 -14 28 -14q20 0 50 1l60 2t51.5 2t25.5 1t25.5 -1t53 -2 t69.5 -2t75 -1q29 0 29 14t-15 15q-12 0 -37.5 2t-44.5 6q-41 6 -53 29.5t-16 62.5q-6 53 -7 151.5t-1 225.5v731l225 -4q63 -2 105 -9.5t65.5 -20.5t34 -29.5t12.5 -37.5l2 -18q2 -18 5 -24.5t9 -6.5q16 0 17 23q0 8 1 32.5t2 54.5t2 60.5t1 51.5q0 20 -8 20q-6 0 -18.5 -2 t-32.5 -6q-23 -4 -53.5 -6t-75.5 -2h-680q-16 0 -59.5 2t-82.5 6q-37 4 -53 12t-27 8q-4 0 -9 -12t-9 -20q0 -6 -6 -34t-13.5 -59.5t-13.5 -60.5t-6 -35z" />
<glyph unicode="u" horiz-adv-x="1499" d="M86 1282q12 0 31.5 -1t29.5 -3q45 -6 57.5 -30.5t16.5 -65.5q2 -20 3 -44t1 -65v-102v-164v-256q0 -96 12.5 -168t34 -125t50 -93t61.5 -71q47 -45 103.5 -69.5t109.5 -37t96 -14.5t66 -2q39 0 85 4.5t94 17.5t98 37.5t100 67.5q53 45 85.5 106.5t51 130t25 141.5 t6.5 145v186v164v102v64q0 25 2 45q4 43 15 65.5t48 30.5q16 4 25 4h20q14 0 14 14t-28 15q-41 0 -91.5 -2t-60.5 -2q-4 0 -23.5 1t-47.5 1q-27 0 -60 1t-63 1q-29 0 -29 -15q0 -14 14 -14q12 0 32 -1t30 -3q45 -6 57 -30.5t14 -65.5q0 -20 1.5 -44t2.5 -64t1 -103v-164 v-219q0 -135 -19.5 -240.5t-83.5 -181.5q-47 -55 -120.5 -89t-157.5 -34q-78 0 -140.5 17.5t-128.5 76.5q-29 27 -53 60.5t-41.5 84t-28 119t-10.5 162.5v244v164v102q0 41 1 64.5t3 44.5q4 43 15.5 66.5t46.5 29.5q16 4 24 4h21q16 0 16 14t-31 15q-20 0 -48.5 -1t-57.5 -1 q-27 0 -48.5 -1t-27.5 -1t-27.5 1t-52.5 1q-29 0 -62.5 1t-64.5 1q-28 0 -28 -14q0 -15 14 -15z" />
<glyph unicode="v" horiz-adv-x="1337" d="M-47 1298q0 -4 3 -10t11 -6t27.5 -1t42.5 -5q23 -6 39 -13.5t30.5 -20.5t26.5 -36.5t29 -60.5l442 -1067q27 -63 39 -85t29 -22q14 0 27.5 27t50.5 104q31 66 89 201t142 328q35 80 67.5 156.5t59.5 140t46.5 109.5t27.5 65q18 45 32.5 72.5t26.5 45t21.5 26.5t19.5 16 q25 16 50.5 18t35.5 2q20 0 21 16q0 12 -29 13q-41 0 -87 -2t-54 -2q-16 0 -69.5 2t-107.5 2q-41 0 -41 -15q0 -14 21 -14q16 0 30.5 -1t30.5 -5q14 -4 19.5 -15.5t5.5 -21.5t-5 -27.5t-11 -37.5q-10 -31 -35 -97.5t-57.5 -153.5t-72.5 -185.5t-79 -193.5t-74 -180t-61 -143 l-340 877q-20 53 -34.5 91t-14.5 54q0 10 3 17.5t17 13.5q12 4 30.5 6t35.5 2q18 0 18 16q0 12 -49 13q-53 0 -103.5 -2t-64.5 -2q-8 0 -30.5 1t-51.5 1t-62.5 1t-66.5 1q-47 0 -47 -13z" />
<glyph unicode="w" horiz-adv-x="1982" d="M-20 1298q0 -16 16 -16q10 0 36.5 -2t45.5 -8q18 -6 30.5 -14.5t23.5 -22.5t20.5 -36.5t19.5 -57.5l320 -1032q14 -45 24 -72t17.5 -41t14.5 -19.5t13 -5.5q16 0 28.5 18.5t35.5 73.5q16 41 45.5 117t65.5 168t75 193.5t75 193.5t64.5 166t44.5 113l353 -953 q18 -51 31.5 -70.5t27.5 -19.5q8 0 14 5.5t14.5 21.5t19.5 45t30 78q18 49 43.5 123.5t55.5 164t62.5 186.5t63.5 188t57.5 171t47.5 136q27 72 51 121t65 63q16 4 37 6t25 2q10 0 13 6t3 12q0 10 -24 11q-20 0 -44 -1t-47 -1q-20 0 -35.5 -1t-19.5 -1q-12 0 -63.5 2 t-120.5 2q-31 0 -31 -13q0 -4 4 -10t12 -6q61 0 79 -14.5t18 -36.5q0 -16 -3 -38t-18 -71q-16 -55 -38.5 -132t-49 -161t-54.5 -172t-52.5 -165.5t-45 -141t-30.5 -98.5h-8l-353 971q-16 45 -27 63.5t-22 18.5q-8 0 -18 -13.5t-31 -66.5l-377 -973h-4q-6 18 -23.5 77.5 t-41 142.5t-51 176t-51 178t-42 153t-26.5 94q-16 59 -25.5 102.5t-9.5 59.5t7 24.5t17 12.5q16 8 35 9t29 1q6 0 12 4t6 12q0 12 -32 13q-68 0 -122.5 -2t-66.5 -2q-14 0 -77.5 2t-135.5 2q-29 0 -28 -13z" />
<glyph unicode="x" horiz-adv-x="1251" d="M-8 6q0 -12 16 -12q23 0 49.5 1t50 2t41 2t23.5 1t28.5 -1t50.5 -2t55.5 -2t43.5 -1q23 0 23 12q0 16 -17 17q-12 0 -32 4q-29 6 -29 28q0 14 5 35t17 43l277 457q82 -133 156.5 -259t148.5 -255q12 -23 5 -35t-15 -14q-10 -4 -10 -15q0 -6 10 -9t45 -5q74 -4 141 -4h154 q24 0 24 13q0 15 -14 16q-20 0 -61 10t-60.5 28.5t-42.5 47.5q-10 12 -39.5 57t-68.5 108.5t-83 135t-84 135t-69 110.5t-37 60l289 422q39 57 67.5 91t67.5 46q16 4 33.5 6t28.5 2q10 0 14 6t4 10q0 12 -29 13q-47 0 -93 -2t-58 -2t-60.5 2t-99.5 2q-31 0 -31 -13 q0 -16 17 -16h20q14 0 29 -4q31 -10 31 -29q0 -16 -4.5 -29.5t-14.5 -31.5q-6 -14 -40 -68.5t-75.5 -120t-82.5 -127t-62 -90.5q-72 113 -126 210.5t-111 201.5q-8 14 -13.5 29.5t-5.5 27.5q0 10 5 17.5t18 9.5q10 4 24 4h25q16 0 16 16q0 6 -6 9.5t-25 3.5q-23 0 -51 -1 t-55 -1q-25 0 -44.5 -1t-25.5 -1t-31.5 1t-60.5 1q-33 0 -66.5 1t-52.5 1q-31 0 -30 -13q0 -4 4 -10t12 -6t30.5 -3t45.5 -9q47 -14 76.5 -49t60.5 -86l287 -467l-324 -500q-43 -66 -74.5 -95.5t-72.5 -39.5q-45 -10 -68 -10q-14 0 -14 -17z" />
<glyph unicode="y" horiz-adv-x="1179" d="M-49 1298q0 -16 18 -16q10 0 33 -6t43 -19q25 -16 55.5 -46.5t63.5 -80.5q14 -23 43 -67.5t63.5 -99t70.5 -110.5t66.5 -105.5t51 -83t24.5 -39.5q20 -37 29.5 -73t9.5 -106v-149v-72t-4 -102q-4 -39 -14 -62.5t-39 -29.5q-12 -4 -26.5 -6t-26.5 -2q-14 0 -15 -15 q0 -14 29 -14q20 0 49 1t56.5 2t47 2t23.5 1t25.5 -1t54.5 -2t72 -2t75 -1q29 0 29 14t-14 15q-12 0 -38 2t-44 6q-41 6 -53.5 29.5t-16.5 62.5q-4 53 -5 102t-1 72v149v84q0 43 23 91q8 18 33.5 61t59.5 99.5t72.5 118t74.5 116.5t65.5 97t44.5 61q29 35 46 52t44 34 q23 12 45.5 17t38.5 5q10 0 16 6t6 12q0 10 -22 11q-12 0 -40 -1t-56 -1q-29 0 -52.5 -1t-27.5 -1q-10 0 -50 2t-75 2q-29 0 -29 -11q0 -14 27 -20q29 -8 28 -45q0 -16 -7 -38.5t-23 -51.5q-8 -14 -31 -52t-52.5 -88.5t-63 -105.5t-63.5 -106.5t-53.5 -92.5t-31.5 -59 l-328 543q-10 16 -17 32.5t-7 34.5t22 29q29 10 29 18q0 6 -4 9.5t-21 3.5q-53 0 -99 -2t-56 -2q-4 0 -27 1t-53 1q-29 0 -57.5 1t-41.5 1q-23 0 -22 -13z" />
<glyph unicode="z" horiz-adv-x="1247" d="M139 14q0 -14 33 -14q238 0 466 -4t456 -4q31 0 38 6t15 39q4 16 10 41.5t12.5 54.5t10.5 56.5t4 48.5q0 25 -3 31.5t-12 6.5q-14 0 -20 -26q-4 -18 -13.5 -48t-23.5 -46q-16 -18 -34.5 -32.5t-49.5 -26t-78 -16.5t-119 -5h-479q205 299 401.5 590.5t395.5 595.5 q6 8 8 16t2 14q0 14 -37 15h-504h-114q-72 0 -201 4q-35 2 -49 7t-27 5q-14 0 -16 -33q-4 -20 -10 -56t-12.5 -72t-10.5 -65.5t-4 -37.5q0 -23 10 -23q8 0 14.5 5.5t10.5 25.5q4 31 29.5 72t72.5 65q43 23 115 26t141 3h381q-186 -293 -382.5 -582t-401.5 -583 q-16 -25 -20.5 -36.5t-4.5 -17.5z" />
<glyph unicode="{" horiz-adv-x="737" d="M115 702q0 -8 4 -10t20 -6q43 -8 74 -16t47 -35q14 -23 14 -66q0 -51 -7 -111.5t-7 -107.5q0 -109 9.5 -185.5t23.5 -129.5t32.5 -89t39.5 -63q29 -39 59.5 -65.5t59 -42t53 -22.5t38.5 -7q23 0 30 2t7 8t-8 11.5t-37 15.5q-27 10 -53.5 35.5t-49 78t-36.5 136.5t-14 213 v106t-2 81t-6.5 63.5t-12.5 56.5q-16 61 -51 103.5t-68 58.5q33 12 71 57t52 98q8 31 12.5 67t5.5 80t0 98t-1 124q0 66 18.5 112t45 76.5t54 46t46.5 21.5q33 10 32 18q0 10 -26 11q-33 0 -89.5 -20.5t-103.5 -63.5q-29 -27 -53.5 -57.5t-41.5 -72.5t-26.5 -97.5 t-9.5 -133.5q0 -37 10.5 -99t10.5 -120q0 -47 -7.5 -73.5t-24 -41t-44 -18.5t-66.5 -6q-16 -2 -20 -5t-4 -14z" />
<glyph unicode="|" horiz-adv-x="1044" d="M467 -512h111v2048h-111v-2048z" />
<glyph unicode="}" horiz-adv-x="737" d="M125 -246q0 -4 7 -6t30 -2q14 0 38.5 7t53.5 22.5t59.5 42t59.5 65.5q20 27 38.5 63t33 89t23.5 130t9 185q0 33 -5 74t-8 81t-1 74.5t14 55.5q16 27 47 35t74 16q16 4 20.5 6t4.5 10q0 10 -4.5 13.5t-20.5 5.5q-23 2 -56.5 3t-62.5 30q-18 18 -21 59t2 90t11 97.5 t6 78.5q0 78 -9 133.5t-26.5 97.5t-42 72.5t-53.5 57.5q-47 43 -103.5 63.5t-88.5 20.5q-27 0 -27 -13q0 -6 7 -8t26 -8q18 -6 45.5 -21.5t53.5 -46t45.5 -76.5t19.5 -112q0 -70 -1 -124t0 -98t5 -80t12 -67q14 -53 52 -98t71 -57q-33 -16 -68 -58.5t-51 -103.5 q-10 -33 -14 -64.5t-5 -66.5t-1 -78v-98q0 -129 -14.5 -214t-37 -137.5t-49 -78t-53.5 -33.5q-29 -10 -37 -15.5t-8 -13.5z" />
<glyph unicode="~" horiz-adv-x="1044" d="M125 410l100 2q2 72 25.5 103.5t64.5 31.5t87.5 -20.5t101.5 -49.5q78 -39 128 -54t97 -15q39 0 75 12t61.5 40.5t40 75t12.5 115.5h-101q-4 -137 -84 -135q-41 0 -86 19.5t-104 48.5q-78 37 -125 53t-99 16q-84 0 -141 -59t-53 -184z" />
<glyph unicode="&#xa1;" horiz-adv-x="655" d="M221 -219q0 -20 12 -21q10 0 31 11q43 23 86 62.5t66 76.5q10 16 10 29q0 8 -2 17t-6 21q-6 25 -11.5 83.5t-9.5 123t-7 116.5t-3 65l-33 544q-4 59 -9 83t-21 24t-19.5 -21.5t-5.5 -44.5q-2 -12 -5 -80.5t-8 -166t-11.5 -208t-10.5 -205.5t-8 -163t-4 -76 q-8 -115 -19.5 -187.5t-11.5 -82.5zM225 1255q0 -45 30 -71.5t75 -26.5q55 0 79.5 36t24.5 69q0 35 -24.5 69.5t-77.5 34.5q-47 0 -77 -31.5t-30 -79.5z" />
<glyph unicode="&#xa2;" d="M125 780q0 -111 34 -201t93 -156.5t138 -109.5t171 -59l-37 -311q-4 -18 19 -13l47 11q16 4 18 22l29 277q23 -2 43 -2h45q57 0 130 7t142 25q12 4 17.5 11.5t9.5 23.5q2 14 7 44t9 59.5t7.5 54t3.5 31.5q0 25 -13 24q-12 0 -18 -31q-23 -98 -90.5 -127.5t-175.5 -29.5 q-27 0 -50.5 1t-50.5 3l92 889q92 -4 151.5 -31t80.5 -49q23 -29 30 -58.5t11 -56.5q0 -25 10 -24q14 0 16 24q2 10 4.5 34.5t4.5 52.5t3 55.5t1 46.5q0 12 -2 17t-13 11q-74 29 -152.5 40t-129.5 11l26 222q4 16 -20 12l-41 -8q-12 -4 -15 -7.5t-5 -11.5l-23 -205 q-68 -4 -123 -12t-103 -24.5t-89 -41t-82 -59.5q-23 -18 -50.5 -53t-52 -83t-41 -109.5t-16.5 -135.5zM276 836q0 82 27 153.5t78 123.5t122.5 82t164.5 30l-93 -869q-53 18 -106 55.5t-96 95.5t-70 139t-27 190z" />
<glyph unicode="&#xa3;" d="M-23 20q0 -14 18.5 -17t41.5 -3h477q66 0 119 -1t104 -3q51 -4 100.5 -5t106.5 -1q43 0 67.5 1t36 6t14.5 13t7 21q6 27 12 65.5t11.5 76.5t8.5 67.5t3 38.5q0 18 -4 24t-10 6q-14 0 -17 -20q-16 -92 -60 -129t-130 -39l-639 -6l-4 4q63 55 104 127.5t66.5 146.5 t38 140.5t18.5 109.5l10 86h287q25 0 33 16l22 50q8 20 -10 20q-8 0 -30.5 -5t-65.5 -5h-224l37 309q23 186 103 285.5t200 99.5q76 0 125.5 -20.5t77.5 -57.5q25 -33 37 -73.5t12 -63.5q0 -31 17 -31q12 0 16 25q2 8 3 31.5t3 56.5t3 71t1 74q0 23 -14 25t-26.5 4t-28.5 6 q-33 10 -81 17.5t-97 7.5q-59 0 -141.5 -20.5t-168.5 -94.5q-53 -45 -89 -105.5t-60.5 -128t-40 -138t-23.5 -136.5l-20 -143h-162q-10 0 -17.5 -3t-11.5 -14l-24 -43q-8 -18 6 -18q6 0 15.5 2t27.5 2h154l-27 -215q-10 -86 -26.5 -163t-46 -137t-79 -102t-125.5 -59 q-16 -4 -28.5 -11t-12.5 -24z" />
<glyph unicode="&#xa4;" d="M172 920l135 -125q-27 -37 -47 -91.5t-20 -125.5q0 -66 19.5 -120.5t45.5 -88.5l-129 -125l82 -88l121 135q35 -35 91 -54.5t110 -17.5q51 0 105 19.5t95 56.5l123 -139l86 88l-133 127q25 35 41 91t18 128q0 66 -17 118t-40 87l139 125l-86 88l-127 -134 q-37 33 -88 51.5t-112 18.5h-2q-59 0 -111.5 -18.5t-91.5 -53.5l-123 136zM379 582q0 100 53 168.5t146 68.5h2q47 0 83.5 -19.5t62.5 -52t39 -74.5t13 -87q0 -66 -17.5 -112t-46 -74.5t-64.5 -42t-72 -13.5q-33 0 -68 13.5t-64.5 43t-48 74.5t-18.5 107z" />
<glyph unicode="&#xa5;" d="M-106 1526q0 -8 7 -11.5t15 -3.5q10 0 37 -5t53 -21q25 -16 59.5 -56t67.5 -96q16 -29 47 -80t68 -114.5t78 -132t77.5 -130t65.5 -107.5t41 -64h-305q-18 0 -23 -13l-14 -43q-4 -10 -2 -16t16 -6h332v-289v-111q0 -55 -2 -90q-2 -47 -22.5 -72.5t-73.5 -33.5 q-20 -4 -49 -5t-45 -1q-14 0 -15 -17q0 -14 35 -14q41 0 83 1t77 2t58.5 2t27.5 1q2 0 25.5 -1t58.5 -2t78 -2t84 -1q33 0 32 14q0 6 -6 11.5t-12 5.5q-14 0 -42 1t-50 5q-53 8 -72.5 33.5t-21.5 72.5q-2 35 -1 90.5t1 110.5v289h311q25 0 28 12l13 47q8 18 -19 19h-331 q18 31 49.5 87t69.5 124.5t80 142.5t79 138.5t67.5 114.5t47.5 70q31 41 51 64.5t55 40.5q20 10 46 17t42 7q25 0 25 17q0 8 -8 11t-19 3q-14 0 -43.5 -1t-60.5 -2t-56.5 -2t-29.5 -1q-10 0 -49 3t-78 3q-33 0 -33 -14q0 -10 10.5 -14.5t22.5 -8.5q33 -14 33 -47 q0 -43 -39 -108q-10 -18 -34 -61.5t-54.5 -101t-65.5 -120.5t-65.5 -119.5t-55 -100.5t-35.5 -63q-12 16 -39.5 63.5t-63.5 111t-76 133t-74.5 132t-60.5 108.5t-34 61q-27 49 -26 77q0 29 28 37q10 4 19.5 8.5t9.5 10.5q0 10 -8 13t-19 3q-59 0 -106 -3t-57 -3q-4 0 -30 1 t-57.5 2t-62.5 2t-45 1q-20 0 -20 -16z" />
<glyph unicode="&#xa6;" horiz-adv-x="1044" d="M467 358v-716h111v716h-111zM467 666h111v716h-111v-716z" />
<glyph unicode="&#xa7;" horiz-adv-x="1220" d="M174 664q0 -61 17.5 -110.5t54.5 -94.5t92 -90t129 -99l65 -47q61 -45 110.5 -83t85.5 -77.5t54.5 -84t18.5 -99.5q0 -115 -78 -181.5t-203 -66.5q-106 0 -189 38t-106 134q-4 18 -5 36t-1 28q0 20 -16 20q-14 0 -15 -28q-2 -23 -6 -71t-4 -114q0 -35 4 -45t23 -20 q55 -27 121.5 -37t173.5 -10q57 0 135 16t137 55q96 63 133 146.5t37 157.5q0 68 -22.5 129t-83.5 124q90 51 149 134.5t59 207.5q0 57 -19 106.5t-57 95.5t-96.5 93t-134.5 101l-53 37q-66 45 -118 81.5t-89 73.5t-57.5 76t-20.5 88q0 55 21.5 96t57.5 68t81 39t94 12 q70 0 116 -10t72.5 -24.5t39 -29t16.5 -22.5q8 -14 16.5 -42t10.5 -44q2 -10 4 -16t12 -6q14 0 14 38q0 90 4.5 134.5t4.5 50.5q0 12 -19 12q-10 0 -23.5 1t-39.5 7q-33 8 -73 14.5t-122 6.5q-78 0 -152.5 -19.5t-133 -60.5t-94.5 -103.5t-36 -148.5q0 -72 37 -134.5 t103 -127.5q-41 -16 -83 -45t-76 -69t-55.5 -89t-21.5 -108zM289 709q0 72 52 133t124 84q27 -23 52.5 -42.5t55.5 -41.5l86 -62q61 -43 110.5 -77.5t84.5 -69.5t53.5 -74t18.5 -90q0 -29 -9.5 -61.5t-28 -64.5t-45 -59.5t-59.5 -45.5q-35 33 -81 65.5t-93 63.5l-57 39 q-66 45 -116 80.5t-82.5 69.5t-49 70t-16.5 83z" />
<glyph unicode="&#xa8;" horiz-adv-x="1865" d="M639 1788q0 -29 19.5 -58.5t66.5 -29.5q41 0 65.5 26.5t24.5 67.5q0 39 -25.5 60.5t-62.5 21.5q-47 0 -67.5 -29.5t-20.5 -58.5zM1051 1788q0 -29 19.5 -58.5t66.5 -29.5q41 0 65.5 26.5t24.5 67.5q0 39 -25.5 60.5t-62.5 21.5q-47 0 -67.5 -29.5t-20.5 -58.5z" />
<glyph unicode="&#xa9;" horiz-adv-x="1855" d="M127 766q0 -166 62.5 -312.5t172 -255t256 -171t312.5 -62.5t311 62.5t254 171t171.5 255t62.5 312.5q0 168 -62.5 314.5t-171.5 255t-254 172t-311 63.5t-312.5 -63.5t-256 -172t-172 -255t-62.5 -314.5zM244 768q0 147 52 276.5t143 226.5t217 153.5t274 56.5 q147 0 272 -56.5t216 -153.5t142.5 -226.5t51.5 -276.5q0 -145 -51.5 -275.5t-142.5 -227.5t-216 -153.5t-272 -56.5t-273.5 56.5t-217.5 153.5t-143 227.5t-52 275.5zM461 786q0 -109 38 -197.5t106.5 -151t162.5 -96.5t209 -34q25 0 88 3t131 22q25 6 31 17t14 46 q10 47 15.5 90t5.5 56q0 8 -3.5 13t-15.5 5q-16 0 -22 -20q-6 -25 -15.5 -50.5t-31.5 -46.5q-18 -18 -57.5 -34.5t-125.5 -16.5q-72 0 -140.5 29t-120.5 84t-84 138t-32 192q0 162 82 247.5t236 85.5q63 0 108 -9t75 -20.5t46.5 -23.5t22.5 -18q23 -25 26.5 -49.5t6.5 -47.5 q0 -23 18 -22q18 0 20 16q2 14 4.5 46t4.5 65t3 58.5t1 29.5q0 10 -4 10t-10.5 -1t-12.5 -1q-2 0 -16.5 3t-35 7t-40 8.5t-31.5 6.5q-53 10 -99 13t-69 3q-117 0 -202.5 -31.5t-147.5 -91.5q-18 -18 -43 -48t-46.5 -72t-35.5 -95t-14 -117z" />
<glyph unicode="&#xaa;" horiz-adv-x="819" d="M-20 846q0 -10 20 -10q41 0 77 2t52 2q14 0 43 -2t49 -2q18 0 19 10q0 8 -13 8h-10q-10 0 -19.5 7t-9.5 22q0 10 4.5 24.5t8.5 28.5l45 123q4 10 10 10h246q6 0 12 -8l82 -184q6 -16 -8 -21q-8 -4 -8 -10t34 -6q78 -4 134 -4h67q23 0 23 10q0 8 -11 8h-22q-10 0 -23 4 q-18 4 -37.5 24.5t-50.5 78.5q-18 35 -43.5 89t-54.5 115.5t-56.5 124t-50 114.5t-39 88t-20.5 44q-10 23 -16 29t-13 6q-16 0 -26 -25l-260 -604q-16 -37 -37 -59.5t-55 -26.5q-8 -2 -19 -2h-14q-10 0 -10 -8zM276 1139l89 229q10 25 20 0l94 -229q4 -8 -6 -9h-192 q-8 0 -5 9z" />
<glyph unicode="&#xab;" horiz-adv-x="1146" d="M154 614q0 -10 8 -19t28 -30q14 -16 55.5 -59t86.5 -92t86 -94.5t59 -65.5q23 -27 33 -36t14 -9q10 0 17 10l61 68q8 8 8 14q0 4 -6 9t-22 22q-37 33 -83 78t-88 88t-75 77.5t-45 49.5q14 20 42.5 55t62.5 75t69 82t64.5 75.5t49 56t21.5 26.5q12 12 12 27q0 6 -6 11 t-12 5q-10 0 -37 -22l-29.5 -29.5t-63.5 -62.5t-80 -79t-82 -80t-69.5 -67.5t-39.5 -38.5q-39 -33 -39 -45zM537 614q0 -10 8 -19t28 -30q14 -16 55.5 -59t86.5 -92t86 -94.5t59 -65.5q23 -27 33 -36t14 -9q10 0 17 10l61 68q8 8 8 14q0 4 -6 9t-22 22q-37 33 -83 78t-88 88 t-75 77.5t-45 49.5q14 20 42.5 55t62.5 75t69 82t64.5 75.5t49 56t21.5 26.5q12 12 12 27q0 6 -6 11t-12 5q-10 0 -37 -22l-29.5 -29.5t-63.5 -62.5t-80 -79t-82 -80t-69.5 -67.5t-40.5 -38.5q-39 -33 -38 -45z" />
<glyph unicode="&#xac;" horiz-adv-x="1044" d="M92 655h754v-329h106v434h-860v-105z" />
<glyph unicode="&#xad;" horiz-adv-x="798" d="M74 504q-6 -31 10 -31q8 0 31.5 11.5t52.5 19.5q16 4 56 11t89 14.5t103.5 15.5t102.5 15t85 12.5t51 7.5q25 4 48.5 10t23.5 24q0 12 -17.5 16.5t-43.5 4.5h-516q-25 0 -33 -3t-13 -14z" />
<glyph unicode="&#xae;" horiz-adv-x="421" d="M23 1391q0 -76 53 -127.5t135 -51.5t135 51.5t53 127.5q0 78 -53 129t-135 51t-135 -51.5t-53 -128.5zM57 1393q0 66 44 106.5t110 40.5t110 -41t44 -106q0 -66 -43 -108t-109 -42q-68 0 -112 42t-44 108zM111 1300q0 -4 8 -4h10q4 0 15.5 1t15.5 1q8 0 18 -1t15 -1h8 q8 0 8 7q0 4 -6 4q-12 0 -21 4q-2 2 -3 8t-1 37v18h37l29 -39q23 -31 37 -35t34 -4q14 0 15 7q0 4 -6 4q-4 0 -11.5 5t-27.5 29l-35 43q23 18 30 32t7 30q0 37 -30 46t-56 9q-12 0 -20.5 -1t-22.5 -1q-4 0 -13.5 1t-13.5 1h-10q-10 0 -10 -6q0 -4 6 -4q23 0 22 -14 q0 -8 1 -20.5t1 -35.5v-45q0 -25 -1 -37t-1 -20q-2 -10 -4 -11t-16 -1q-8 0 -8 -7zM178 1397v82q4 4 10 4h9q25 0 38 -13.5t13 -35.5q0 -27 -19 -37q-10 -6 -20 -6q-23 0 -31 6z" />
<glyph unicode="&#xaf;" horiz-adv-x="1865" d="M664 1780q-2 -14 20 -15h481q14 0 19 13l16 45q8 20 -16 20h-482q-20 0 -22 -12z" />
<glyph unicode="&#xb0;" horiz-adv-x="630" d="M86 1210q0 -84 58.5 -145t154.5 -61q43 0 82 15t68.5 44t48 68.5t18.5 89.5l2 -2q0 41 -15.5 78.5t-43 66.5t-66.5 45t-88 16h-4q-92 0 -153.5 -61t-61.5 -154zM176 1214q0 47 31 90.5t90 43.5q66 0 95.5 -42t29.5 -87q0 -55 -35 -93.5t-88 -38.5t-88 37t-35 90z" />
<glyph unicode="&#xb1;" horiz-adv-x="1044" d="M86 0h872v102h-872v-102zM86 586h385v-387h107v387h380v104h-383v383h-104v-383h-385v-104z" />
<glyph unicode="&#xb2;" horiz-adv-x="909" d="M106 641q0 -16 23 -16h518q25 0 45.5 7t30.5 27q8 14 16.5 39t15.5 49.5t11 46t4 29.5q0 18 -10 19q-10 0 -19 -21q-16 -49 -47.5 -73.5t-107.5 -30.5q-8 0 -43 -2t-75 -3t-75 -2t-43 -1h-67q-6 0 -5 3t-2 5q76 59 156 127.5t146.5 145.5t109.5 161t43 176q0 47 -19.5 91 t-58.5 78t-97 54.5t-134 20.5q-72 0 -131.5 -14.5t-104.5 -36.5q-10 -4 -12 -9.5t-2 -19.5q0 -12 1 -34.5l2 -45t3 -40t2 -21.5q4 -23 13 -23q16 0 16 23q0 39 13.5 65.5t31.5 46.5q31 33 64.5 44.5t78.5 11.5q31 0 66 -11.5t64.5 -38t49 -70.5t19.5 -112q0 -92 -43 -175 t-110.5 -160t-150.5 -145.5t-161 -131.5q-6 -6 -15.5 -14.5t-9.5 -18.5z" />
<glyph unicode="&#xb3;" horiz-adv-x="845" d="M121 698q0 -29 3 -37t19 -18q23 -12 75.5 -19.5t105.5 -7.5q84 0 156.5 26t125.5 70t84 101t31 121q0 57 -27.5 99t-65.5 71t-80 45t-71 20v5q20 8 53 27.5t64 47t52.5 65.5t21.5 83q0 23 -11.5 52.5t-41 57t-82 46t-134.5 18.5q-88 0 -143 -12.5t-88 -26.5 q-14 -6 -16 -14.5t-2 -16.5q0 -23 4 -57.5t8 -63.5q2 -23 14 -22q10 0 10 26q0 57 53.5 95.5t125.5 38.5q53 0 87.5 -17.5t54 -42t28 -50.5t8.5 -42q0 -49 -23.5 -87t-57.5 -63.5t-69 -41t-55 -17.5q-37 -6 -37 -22q0 -6 8 -10.5t33 -8.5q39 -4 82 -19.5t78 -41t58.5 -64.5 t23.5 -90q0 -111 -64.5 -167t-157.5 -56q-59 0 -98 12t-63.5 33.5t-35.5 49.5t-13 58q-2 16 -13 17q-10 0 -12 -19q-4 -20 -5 -62t-1 -69z" />
<glyph unicode="&#xb4;" horiz-adv-x="1865" d="M823 1712q0 -12 11 -12q6 0 30 10q25 10 63 23.5t81 26t87 22.5t81 14q27 4 42 2t19 -2q6 0 11 5t-3 20q-16 31 -28.5 52.5t-22.5 37.5q-12 18 -20 18t-19.5 -5t-38.5 -21q-6 -4 -40 -23.5t-78 -47.5t-89 -56.5t-71 -46.5q-14 -8 -15 -17z" />
<glyph unicode="&#xb6;" horiz-adv-x="1458" d="M109 1063q0 -102 37.5 -185t105 -141.5t161 -90.5t201.5 -32h21q14 0 22 2q8 0 15.5 3.5t7.5 11.5q0 16 -16.5 19t-42.5 20q-72 47 -113 149.5t-41 243.5q0 25 3 60.5t10 75.5t21.5 81t37.5 76q37 59 99 92t114 33q34 0 34 -82v-1247q0 -74 -1 -146t-2 -134t-4 -113.5 t-5 -82.5q-4 -43 -8 -58t-4 -19q0 -12 16 -13q23 0 52.5 12.5t50.5 30.5q14 14 12 27q-4 33 -5 86t-1 121v139v150v796v195v123v77q0 31 2 62q4 41 22.5 58.5t53.5 17.5q45 0 62 -23.5t17 -56.5v-1258q0 -147 -3 -252.5t-7 -140.5q-2 -33 -6 -51t-4 -27q0 -10 12 -10 q20 0 49 12.5t50 30.5q14 14 14 29q-4 66 -4 164v245v805v195v121q0 47 1 74.5t3 52.5q4 53 18.5 79.5t55.5 36.5q25 6 57 6q16 0 16 13q0 16 -32 16q-35 0 -88.5 -1t-104.5 -2t-90 -2t-47 -1q-16 0 -47 1t-63.5 2t-62.5 2t-44 1q-92 0 -166 -12t-130 -33.5t-99 -49.5 t-74 -58q-53 -51 -96 -134.5t-43 -191.5z" />
<glyph unicode="&#xb7;" horiz-adv-x="512" d="M143 588q0 -39 26 -76t85 -37q53 0 84 35t31 84t-33 77.5t-80 28.5q-31 0 -51.5 -11t-34.5 -27.5t-20.5 -36t-6.5 -37.5z" />
<glyph unicode="&#xb8;" horiz-adv-x="1865" d="M768 -473q0 -16 27 -16q29 0 73.5 9t85.5 27q27 10 52.5 26.5t46 38t34 47.5t13.5 56q0 63 -54.5 99t-150.5 47q6 8 28.5 28.5t47 44t47 43t31.5 23.5h-82l-158 -129q-27 -20 -27 -29q0 -10 31 -18q90 -27 119 -66t29 -84q0 -29 -13.5 -50t-35 -36.5t-49 -26t-54.5 -12.5 q-16 -2 -28.5 -5t-12.5 -17z" />
<glyph unicode="&#xb9;" horiz-adv-x="675" d="M61 1352q0 -12 13 -13q4 0 9 2t9 5q12 6 37 16t51.5 20.5t49 17.5t32.5 7q16 0 19.5 -9t5.5 -24q2 -16 2 -61v-94v-226q0 -84 -1 -155.5t-5 -112.5q-4 -27 -14.5 -42t-47.5 -24q-10 -2 -27.5 -4t-35 -3t-32.5 -2t-22 -1q-16 0 -16 -14t25 -14q37 0 77.5 1t73.5 1 q35 0 57.5 1t26.5 1q6 0 68.5 -2t146.5 -2q25 0 25 16q0 12 -19 12q-10 0 -42.5 3t-51.5 7q-35 8 -45 23.5t-14 42.5q-4 41 -5 112.5t-1 155.5v226q0 152 3 234.5t3 90.5q0 27 -13 27q-8 0 -18 -6t-18 -13q-4 -2 -27 -16t-55.5 -34.5t-69.5 -43t-68.5 -42t-54 -34 t-24.5 -16.5q-6 -6 -7 -14z" />
<glyph unicode="&#xba;" horiz-adv-x="894" d="M41 1200q0 -70 23.5 -136.5t72.5 -118.5t125 -84t180 -32q94 0 171 31t130.5 83t83 123t29.5 151q0 82 -30.5 148.5t-84 111.5t-129 69.5t-163.5 24.5q-104 0 -180 -35t-127.5 -88t-76 -119.5t-24.5 -128.5zM186 1223q0 76 21.5 131t56.5 92t79 54.5t87 17.5 q51 0 101.5 -21.5t90.5 -63.5t64.5 -102.5t24.5 -140.5q0 -98 -27 -157.5t-65.5 -92.5t-79.5 -44t-68 -11q-57 0 -108.5 25.5t-90.5 70.5t-62.5 106.5t-23.5 135.5z" />
<glyph unicode="&#xbb;" horiz-adv-x="1146" d="M152 225q0 -6 6 -11t12 -5q10 0 37 22q4 4 29.5 30t63.5 62.5t80 78.5t82 80t69.5 68t39.5 38q23 18 31 29.5t8 15.5q0 10 -8 19.5t-29 29.5q-16 14 -56 58l-85 93.5t-86 94.5t-59 65q-23 27 -33 36t-14 9q-10 0 -17 -10l-61 -67q-8 -8 -8 -15q0 -4 6 -9t22 -22 q37 -33 83 -77.5t88 -87.5t75 -78t45 -49q-16 -20 -44 -55.5t-61.5 -75t-68.5 -81.5t-64.5 -76t-49 -57.5t-21.5 -25.5q-12 -12 -12 -27zM535 225q0 -6 6 -11t12 -5q10 0 37 22q4 4 29.5 30t63.5 62.5t80 78.5t82 80t69.5 68t39.5 38q23 18 31 29.5t8 15.5q0 10 -8 19.5 t-29 29.5q-16 14 -56 58l-85 93.5t-86 94.5t-59 65q-23 27 -33 36t-14 9q-10 0 -17 -10l-61 -67q-8 -8 -8 -15q0 -4 6 -9t22 -22q37 -33 83 -77.5t88 -87.5t75 -78t45 -49q-16 -20 -44 -55.5t-61.5 -75t-68.5 -81.5t-64.5 -76t-49 -57.5t-21.5 -25.5q-12 -12 -12 -27z" />
<glyph unicode="&#xbc;" horiz-adv-x="1624" d="M57 1284q0 -12 13 -12q4 0 9 2t9 4q12 6 35.5 15.5t48.5 19.5t47.5 17t30.5 7q16 0 18 -9t4 -23t2 -58v-90v-213q0 -78 -1 -147.5t-5 -108.5q-4 -25 -13 -39t-44 -22q-10 -2 -26.5 -4t-34 -3.5t-32 -2.5t-20.5 -1q-14 0 -14 -14q0 -12 22 -12q37 0 75 1t69 1q33 0 54.5 1 t25.5 1q6 0 66.5 -2t138.5 -2q25 0 24 14q0 12 -18 12q-10 0 -42 3.5t-48 7.5q-35 8 -43.5 22.5t-12.5 38.5q-4 39 -5 108.5t-1 147.5v213q0 143 3 222t3 87q0 27 -12 27q-8 0 -17.5 -6t-17.5 -12q-4 -2 -25.5 -15.5t-52 -33t-66.5 -41t-65.5 -40t-51 -32t-24.5 -15.5 q-6 -6 -6 -14zM289 6l41 -35q14 -10 24 6l1110 1461q8 12 -4 20l-37 29q-10 8 -15 3t-11 -13l-1106 -1444q-14 -20 -2 -27zM788 270q0 -16 27 -16h428v-72t-2 -90q-2 -27 -12 -43t-43 -20q-14 -2 -31.5 -3t-26.5 -1q-16 0 -16 -15q0 -12 16 -12q53 0 100.5 2t53.5 2 q4 0 22.5 -1t43.5 -1q27 0 55.5 -1t54.5 -1q18 0 19 14q0 12 -13 13q-10 0 -25.5 1t-29.5 3q-31 4 -41 20.5t-14 42.5q-4 41 -3 90t1 72h133q18 0 24 16q4 16 8.5 35t4.5 23q0 12 -13 12q-4 0 -17 -6t-40 -6h-100v553q0 10 -1 15t-12 5q-14 0 -32 -22q-10 -12 -50 -59.5 t-95.5 -111t-117 -134t-113.5 -130t-87 -99.5t-37 -42q-4 -4 -11.5 -13t-7.5 -20zM905 328q8 10 35 40.5t62.5 71.5t74.5 87t74 86t59.5 69t30.5 35h2v-389h-338z" />
<glyph unicode="&#xbd;" horiz-adv-x="1742" d="M57 1284q0 -12 13 -12q4 0 9 2t9 4q12 6 35.5 15.5t48.5 19.5t47.5 17t30.5 7q16 0 18 -9t4 -23t2 -58v-90v-213q0 -78 -1 -147.5t-5 -108.5q-4 -25 -13 -39t-44 -22q-10 -2 -26.5 -4t-34 -3.5t-32 -2.5t-20.5 -1q-14 0 -14 -14q0 -12 22 -12q37 0 75 1t69 1q33 0 54.5 1 t25.5 1q6 0 66.5 -2t138.5 -2q25 0 24 14q0 12 -18 12q-10 0 -42 3.5t-48 7.5q-35 8 -43.5 22.5t-12.5 38.5q-4 39 -5 108.5t-1 147.5v213q0 143 3 222t3 87q0 27 -12 27q-8 0 -17.5 -6t-17.5 -12q-4 -2 -25.5 -15.5t-52 -33t-66.5 -41t-65.5 -40t-51 -32t-24.5 -15.5 q-6 -6 -6 -14zM221 6l41 -35q14 -12 27 6l1110 1461q8 12 -4 20l-37 29q-10 8 -15.5 3t-11.5 -13l-1106 -1444q-14 -20 -4 -27zM1008 16q0 -16 22 -16h492q23 0 42 7t29 26q8 14 16.5 37.5t14.5 47t10 43t4 27.5q0 18 -10 19q-8 0 -16 -21q-14 -47 -46 -69.5t-104 -28.5 q-8 0 -40.5 -2t-70.5 -3t-71 -2t-41 -1h-63q-6 0 -5.5 3t-1.5 5q72 55 149 120.5t139.5 138.5t103.5 154t41 167q0 45 -18.5 86t-55.5 73.5t-92.5 52t-128.5 19.5q-70 0 -125.5 -14.5t-98.5 -34.5q-10 -4 -12 -8t-2 -19q0 -12 1 -33.5l2 -43t3 -38t2 -20.5q4 -20 13 -20 q16 0 16 20q0 37 12 63.5t29 45.5q29 31 61.5 41t75.5 10q29 0 61.5 -10.5t61.5 -36t47.5 -67.5t18.5 -105q0 -86 -41 -166t-105.5 -151.5t-143.5 -138.5t-153 -126q-6 -6 -14 -13t-8 -18z" />
<glyph unicode="&#xbe;" horiz-adv-x="1652" d="M115 664q0 -27 2 -35t18 -19q20 -12 70.5 -18t101.5 -6q80 0 148.5 24.5t120 65.5t80 95t28.5 116q0 53 -25.5 93t-62.5 67.5t-77 43t-66 19.5v4q20 8 51 25.5t59.5 45t50 63.5t21.5 79q0 20 -10.5 49t-39 55.5t-78.5 44t-128 17.5q-84 0 -136.5 -11.5t-82.5 -25.5 q-14 -6 -16.5 -14t-2.5 -17q0 -20 4.5 -54t8.5 -60q2 -20 14 -21q8 0 8 25q0 53 51.5 90t118.5 37q51 0 84 -16.5t52.5 -40t26.5 -48t7 -39.5q0 -47 -22.5 -82.5t-54 -60.5t-64.5 -39t-53 -16q-35 -6 -35 -23q0 -6 8 -9t31 -7q37 -4 76.5 -18.5t73.5 -39t56.5 -61.5 t22.5 -86q0 -104 -61.5 -158.5t-149.5 -54.5q-55 0 -93 12.5t-60.5 33t-34 47t-13.5 55.5q-2 14 -10 14q-10 0 -12 -17q-4 -18 -5 -59t-1 -65zM285 6l41 -35q14 -10 24 6l1110 1461q8 12 -2 20l-39 29q-10 8 -15 3t-11 -13l-1104 -1444q-14 -20 -4 -27zM815 270 q0 -16 27 -16h428v-72t-2 -90q-2 -27 -12.5 -43t-43.5 -20q-14 -2 -31.5 -3t-25.5 -1q-14 0 -14 -15q0 -4 2 -8t12 -4q53 0 100.5 2t53.5 2q4 0 22.5 -1t42.5 -1q27 0 55.5 -1t55.5 -1q18 0 18 14q0 12 -10 13q-10 0 -26.5 1t-30.5 3q-31 4 -41.5 20.5t-14.5 42.5 q-4 41 -2 90t2 72h131q18 0 25 16q4 16 8 35t4 23q0 12 -12 12q-4 0 -17.5 -6t-39.5 -6h-99v553q0 20 -14 20q-12 0 -31 -22q-10 -12 -50 -59.5t-95 -111t-116.5 -134t-114 -130t-87 -99.5t-36.5 -42q-4 -4 -12.5 -13t-8.5 -20zM932 328q8 10 34.5 40.5t62.5 71.5t75 87 t73.5 86t59.5 69t31 35h2v-389h-338z" />
<glyph unicode="&#xbf;" horiz-adv-x="999" d="M123 80q0 -53 19.5 -110.5t63.5 -103.5t114.5 -76t173.5 -30q119 0 205.5 27t134.5 55q16 10 19 16.5t3 16.5v68t-1 71.5t-3 62t-4 38.5q-2 20 -17 20q-12 0 -16 -35q-4 -53 -19.5 -99t-52.5 -91q-25 -31 -74.5 -55.5t-125.5 -24.5q-70 0 -116 26.5t-73.5 66.5t-39 85 t-11.5 82q0 55 8 103.5t28.5 99.5t55.5 107.5t88 123.5q35 43 71 83t71 87q45 57 45 103q0 29 -14.5 55.5t-45.5 65.5q-18 23 -44.5 47t-41.5 24q-6 0 -14 -6t-8 -12q0 -10 18 -35q23 -29 31 -55.5t8 -49.5q0 -12 -2 -26t-11 -32.5t-25.5 -43t-45.5 -61.5 q-74 -92 -138.5 -162t-111.5 -134.5t-74.5 -134t-27.5 -157.5zM432 1255q0 -45 30 -71.5t75 -26.5q55 0 79.5 36t24.5 69q0 35 -24.5 69.5t-77.5 34.5q-47 0 -77 -31.5t-30 -79.5z" />
<glyph unicode="&#xc0;" horiz-adv-x="1433" d="M-55 10q0 -16 39 -16q37 0 73.5 1t69.5 2t56.5 2t31.5 1t27.5 -1t42 -2t47 -2t43.5 -1q31 0 31 16q0 12 -21 13h-20q-27 0 -52.5 14t-25.5 45q0 57 28 137l123 363q6 16 21 16h440q12 0 19 -12l190 -504q10 -25 4 -38t-16 -17q-14 -4 -15 -15q0 -10 16.5 -11t45.5 -3 q53 -2 105 -3t95 -1h76h45q16 0 28.5 3t12.5 13q0 12 -20 13q-16 0 -38 2t-44 10q-16 4 -35.5 14t-41 35t-47.5 68t-52 110q-31 78 -77 194.5t-96 247t-101.5 263.5t-93.5 244.5t-71.5 189.5t-37.5 96q-18 47 -26.5 60.5t-18.5 13.5t-18.5 -14.5t-27.5 -65.5l-464 -1272 q-29 -78 -65 -130t-107 -62q-12 -2 -31 -3t-29 -1q-18 0 -18 -13zM391 1855q0 -12 60 -34q8 -4 35.5 -13.5t66.5 -24t82 -28.5t81 -26.5t66.5 -20.5t38.5 -8q18 0 19 10q0 6 -11.5 12.5t-27.5 16.5q-31 20 -65 43.5t-61.5 45t-48 38t-26.5 22.5q-14 14 -18 23.5t-13 9.5 q-6 0 -13 -3t-19 -7q-18 -8 -54.5 -18.5t-68.5 -20.5q-23 -6 -23 -17zM475 686l180 553q14 45 31 0l195 -553q4 -14 -9 -14h-391q-12 0 -6 14z" />
<glyph unicode="&#xc1;" horiz-adv-x="1433" d="M-55 10q0 -16 39 -16q37 0 73.5 1t69.5 2t56.5 2t31.5 1t27.5 -1t42 -2t47 -2t43.5 -1q31 0 31 16q0 12 -21 13h-20q-27 0 -52.5 14t-25.5 45q0 57 28 137l123 363q6 16 21 16h440q12 0 19 -12l190 -504q10 -25 4 -38t-16 -17q-14 -4 -15 -15q0 -10 16.5 -11t45.5 -3 q53 -2 105 -3t95 -1h76h45q16 0 28.5 3t12.5 13q0 12 -20 13q-16 0 -38 2t-44 10q-16 4 -35.5 14t-41 35t-47.5 68t-52 110q-31 78 -77 194.5t-96 247t-101.5 263.5t-93.5 244.5t-71.5 189.5t-37.5 96q-18 47 -26.5 60.5t-18.5 13.5t-18.5 -14.5t-27.5 -65.5l-464 -1272 q-29 -78 -65 -130t-107 -62q-12 -2 -31 -3t-29 -1q-18 0 -18 -13zM475 686l180 553q14 45 31 0l195 -553q4 -14 -9 -14h-391q-12 0 -6 14zM608 1712q0 -12 10 -12q6 0 31 10t63 23.5t81 26t87 22.5t81 14q27 4 42 2t19 -2q6 0 11 5t-3 20q-16 31 -28.5 52.5t-22.5 37.5 q-12 18 -21 18q-8 0 -19 -5t-38 -21q-6 -4 -40 -23.5t-78 -47.5t-89 -56.5t-71 -46.5q-14 -8 -15 -17z" />
<glyph unicode="&#xc2;" horiz-adv-x="1433" d="M-55 10q0 -16 39 -16q37 0 73.5 1t69.5 2t56.5 2t31.5 1t27.5 -1t42 -2t47 -2t43.5 -1q31 0 31 16q0 12 -21 13h-20q-27 0 -52.5 14t-25.5 45q0 57 28 137l123 363q6 16 21 16h440q12 0 19 -12l190 -504q10 -25 4 -38t-16 -17q-14 -4 -15 -15q0 -10 16.5 -11t45.5 -3 q53 -2 105 -3t95 -1h76h45q16 0 28.5 3t12.5 13q0 12 -20 13q-16 0 -38 2t-44 10q-16 4 -35.5 14t-41 35t-47.5 68t-52 110q-31 78 -77 194.5t-96 247t-101.5 263.5t-93.5 244.5t-71.5 189.5t-37.5 96q-18 47 -26.5 60.5t-18.5 13.5t-18.5 -14.5t-27.5 -65.5l-464 -1272 q-29 -78 -65 -130t-107 -62q-12 -2 -31 -3t-29 -1q-18 0 -18 -13zM449 1690q0 -16 14 -17q14 0 37 21q18 14 40.5 33.5t46 37t46 32.5t41.5 26q20 10 33 10q4 0 20 -8q8 -6 30.5 -22.5t49.5 -37t51.5 -43t40.5 -39.5q8 -10 16 -10q6 0 19 13l43 45q4 4 7 9t3 9t-24 20 q-10 8 -41 32t-66 49.5t-64.5 48t-35.5 26.5q-12 10 -19.5 15.5t-13.5 5.5q-10 0 -33 -21q-8 -8 -42 -39t-72.5 -67.5t-72.5 -67.5t-42 -39q-4 -6 -8 -11t-4 -11zM475 686l180 553q14 45 31 0l195 -553q4 -14 -9 -14h-391q-12 0 -6 14z" />
<glyph unicode="&#xc3;" horiz-adv-x="1433" d="M-55 10q0 -16 39 -16q37 0 73.5 1t69.5 2t56.5 2t31.5 1t27.5 -1t42 -2t47 -2t43.5 -1q31 0 31 16q0 12 -21 13h-20q-27 0 -52.5 14t-25.5 45q0 57 28 137l123 363q6 16 21 16h440q12 0 19 -12l190 -504q10 -25 4 -38t-16 -17q-14 -4 -15 -15q0 -10 16.5 -11t45.5 -3 q53 -2 105 -3t95 -1h76h45q16 0 28.5 3t12.5 13q0 12 -20 13q-16 0 -38 2t-44 10q-16 4 -35.5 14t-41 35t-47.5 68t-52 110q-31 78 -77 194.5t-96 247t-101.5 263.5t-93.5 244.5t-71.5 189.5t-37.5 96q-18 47 -26.5 60.5t-18.5 13.5t-18.5 -14.5t-27.5 -65.5l-464 -1272 q-29 -78 -65 -130t-107 -62q-12 -2 -31 -3t-29 -1q-18 0 -18 -13zM395 1720q0 -12 13 -12q12 0 28 18q6 6 15.5 18.5t25 25t37 21.5t47.5 9q47 0 79 -17.5t60 -29.5q23 -10 67 -31.5t95 -21.5q25 0 51.5 17.5t51 41t43 47t24.5 35.5q8 16 8 27q0 12 -14 12q-10 0 -25 -22 q-2 -4 -11 -13.5t-24.5 -19.5t-38 -18.5t-50.5 -8.5q-25 0 -61 12.5t-58 22.5q-47 23 -91 43t-81 20q-25 0 -51.5 -16t-51 -39.5t-44 -48.5t-29.5 -41q-6 -10 -10.5 -16t-4.5 -15zM475 686l180 553q14 45 31 0l195 -553q4 -14 -9 -14h-391q-12 0 -6 14z" />
<glyph unicode="&#xc4;" horiz-adv-x="1433" d="M-55 10q0 -16 39 -16q37 0 73.5 1t69.5 2t56.5 2t31.5 1t27.5 -1t42 -2t47 -2t43.5 -1q31 0 31 16q0 12 -21 13h-20q-27 0 -52.5 14t-25.5 45q0 57 28 137l123 363q6 16 21 16h440q12 0 19 -12l190 -504q10 -25 4 -38t-16 -17q-14 -4 -15 -15q0 -10 16.5 -11t45.5 -3 q53 -2 105 -3t95 -1h76h45q16 0 28.5 3t12.5 13q0 12 -20 13q-16 0 -38 2t-44 10q-16 4 -35.5 14t-41 35t-47.5 68t-52 110q-31 78 -77 194.5t-96 247t-101.5 263.5t-93.5 244.5t-71.5 189.5t-37.5 96q-18 47 -26.5 60.5t-18.5 13.5t-18.5 -14.5t-27.5 -65.5l-464 -1272 q-29 -78 -65 -130t-107 -62q-12 -2 -31 -3t-29 -1q-18 0 -18 -13zM424 1788q0 -29 19.5 -58.5t66.5 -29.5q41 0 65.5 26.5t24.5 67.5q0 39 -25.5 60.5t-62.5 21.5q-47 0 -67.5 -29.5t-20.5 -58.5zM475 686l180 553q14 45 31 0l195 -553q4 -14 -9 -14h-391q-12 0 -6 14z M836 1788q0 -29 19.5 -58.5t66.5 -29.5q41 0 65.5 26.5t24.5 67.5q0 39 -25.5 60.5t-62.5 21.5q-47 0 -67.5 -29.5t-20.5 -58.5z" />
<glyph unicode="&#xc5;" horiz-adv-x="1433" d="M-55 10q0 -16 39 -16q37 0 73.5 1t69.5 2t56.5 2t31.5 1t27.5 -1t42 -2t47 -2t43.5 -1q31 0 31 16q0 12 -21 13h-20q-27 0 -52.5 14t-25.5 45q0 57 28 137l123 363q6 16 21 16h440q12 0 19 -12l190 -504q10 -25 4 -38t-16 -17q-14 -4 -15 -15q0 -10 16.5 -11t45.5 -3 q53 -2 105 -3t95 -1h76h45q16 0 28.5 3t12.5 13q0 12 -20 13q-16 0 -38 2t-44 10q-16 4 -35.5 14t-41 35t-47.5 68t-52 110q-31 78 -77 194.5t-96 247t-101.5 263.5t-93.5 244.5t-71.5 189.5t-37.5 96q-18 47 -26.5 60.5t-18.5 13.5t-18.5 -14.5t-27.5 -65.5l-464 -1272 q-29 -78 -65 -130t-107 -62q-12 -2 -31 -3t-29 -1q-18 0 -18 -13zM475 686l180 553q14 45 31 0l195 -553q4 -14 -9 -14h-391q-12 0 -6 14zM514 1800q0 -53 41 -87t119 -34q45 0 90 12.5t81 36t57.5 56.5t21.5 76q0 53 -45 84.5t-123 31.5q-53 0 -97.5 -14t-77 -39t-50 -56.5 t-17.5 -66.5zM604 1827q0 27 11.5 45t29 30.5t37.5 18.5t39 6q55 0 80.5 -28.5t25.5 -65.5q0 -43 -34.5 -73.5t-85.5 -30.5q-37 0 -70 25.5t-33 72.5z" />
<glyph unicode="&#xc6;" horiz-adv-x="1867" d="M-143 10q0 -16 26 -16q37 0 76 1t70.5 2t55.5 2t30 1q8 0 32.5 -1t59.5 -2t78 -2t86 -1q14 0 24.5 4t10.5 10q0 14 -25 15q-16 0 -43 4t-47 12q-41 16 -41 59q0 29 17.5 75t70.5 132q12 23 47 80t74 119.5t71.5 115t40.5 64.5q8 10 16.5 12t20.5 2h361q18 0 18 -16v-94 q0 -147 -1 -263t-9 -182q-6 -45 -17.5 -75.5t-41.5 -36.5q-14 -4 -29 -6t-29 -2q-16 0 -16 -13q0 -16 33 -16q23 0 53.5 1t58.5 3q29 0 50.5 1t29.5 1q23 0 61.5 -1t98.5 -5q59 -2 144 -4t202 -2q31 0 49 1t30.5 6t18.5 15t13 31q4 14 8 45t8 62.5t7 57t3 32.5q0 10 -1 20 t-11 10q-12 0 -19 -30q-10 -63 -30.5 -96t-61.5 -50q-41 -16 -98 -19t-98 -3q-76 0 -121 6t-70.5 24.5t-35 50t-11.5 85.5v63v102v107v80v92q0 18 14 18h52h86t85 -1t56 -3q61 -6 88 -27.5t33 -43.5q4 -16 5 -28.5t1 -21.5q4 -23 16 -22q10 0 12.5 12t2.5 21q0 10 2 48t6 68 q4 51 10 78t6 37q0 16 -10 16q-8 0 -31 -26q-14 -16 -36.5 -20.5t-59.5 -8.5q-18 -2 -67.5 -3t-104.5 -1h-98h-56q-12 0 -12 21v649q0 20 12 20h47q41 0 88.5 -1t90.5 -2t55 -3q82 -10 108.5 -27.5t36.5 -42.5q8 -18 10.5 -40.5t2.5 -32.5q0 -27 16 -27q6 0 9 7t5 16 q2 8 3 27.5t3.5 41t3.5 40t1 26.5q4 43 10 64.5t6 31.5q0 18 -8 19q-8 0 -14.5 -4.5t-14.5 -6.5q-29 -6 -88 -10q-18 0 -91 -1t-157 -1h-149h-72q-14 0 -35 4q-10 0 -17 1t-13 1q-20 0 -27 -29q-4 -10 -10 -26.5t-35 -59.5q-141 -221 -266 -417.5t-225.5 -351t-168 -259 t-92.5 -137.5q-29 -41 -53.5 -73.5t-49 -59.5t-52 -48.5t-60.5 -37.5q-25 -12 -50.5 -16t-35.5 -4q-23 0 -22 -13zM633 791q4 8 27.5 48t58.5 96t75 121.5t75.5 124t62 102.5t37.5 58q6 10 12 11q6 0 6 -11v-553q0 -16 -18 -16h-328q-18 0 -8 19z" />
<glyph unicode="&#xc7;" horiz-adv-x="1648" d="M131 793q0 -74 11.5 -153t39 -156.5t75.5 -153.5t122 -144q104 -94 237.5 -148t313.5 -67l-121 -100q-27 -20 -27 -29q0 -10 31 -18q90 -27 119 -66t29 -84q0 -29 -13.5 -50t-35 -36.5t-49 -26t-54.5 -12.5q-16 -2 -28.5 -5t-12.5 -17q0 -16 27 -16q29 0 73.5 9t85.5 27 q27 10 52.5 26.5t46 38t34 47.5t13.5 56q0 63 -54.5 99t-150.5 47l19.5 19.5t30 28.5t34.5 31.5t31 26.5q10 -2 20 -2h25q49 0 101 3t101.5 8.5t92.5 14.5t73 21q29 12 36 21.5t18 38.5q8 27 16 68.5t14 82.5t10.5 73t4.5 38q0 12 -3 21.5t-12 9.5q-14 0 -20 -31 q-4 -29 -23.5 -83t-52.5 -89q-61 -63 -150.5 -83t-205.5 -20q-164 0 -300.5 62.5t-233.5 166t-151.5 239t-54.5 282.5q0 158 36 292t149 242q27 27 65.5 53.5t95 48t132 35t178.5 13.5q135 0 245.5 -35t163.5 -82q41 -35 63.5 -92t22.5 -117q0 -43 17 -43q16 0 18 43 q0 12 1 37t1 56t1 62.5t3 55.5q4 55 7.5 79t3.5 36q0 10 -5.5 15t-21.5 8q-49 4 -99.5 12t-109.5 18q-76 14 -155.5 19.5t-141.5 5.5q-119 0 -214 -17.5t-171 -46t-135 -69.5t-105 -86q-68 -68 -112.5 -145t-70 -151.5t-36 -143t-10.5 -119.5z" />
<glyph unicode="&#xc8;" horiz-adv-x="1249" d="M186 1526q0 -12 17 -13q14 0 35.5 -1t33.5 -5q51 -10 67.5 -36.5t20.5 -79.5q2 -25 3.5 -52.5t1.5 -74.5v-121v-195v-360q0 -147 -1.5 -263t-9.5 -182q-6 -45 -17 -75.5t-42 -36.5q-14 -4 -30.5 -6t-31.5 -2q-16 0 -16 -13q0 -16 33 -16q23 0 55.5 2t63.5 2q33 2 55 2h27 q23 0 61.5 -1t97.5 -5q59 -2 144.5 -4t201.5 -2q31 0 49.5 1t31 6t18.5 15t12 31q4 16 8 47t8 62.5t7.5 57t3.5 32.5q0 10 -1 20t-12 10q-12 0 -18 -30q-10 -63 -30.5 -97t-61.5 -51q-41 -16 -98.5 -19t-98.5 -3q-76 0 -121 6t-70.5 24.5t-34.5 51t-11 86.5v63v102v107v78 v180q0 14 14 14q12 0 52 -1t86 -2t90 -3t65 -4q59 -6 79.5 -27.5t26.5 -44.5q6 -20 7 -35.5t1 -31.5q0 -18 15 -19q10 0 12 13.5t2 25.5q0 6 1 21.5t2 35l2 39t3 35.5q4 51 10.5 78t6.5 37q0 16 -11 16q-8 0 -30 -26q-14 -16 -37 -20.5t-60 -8.5q-18 -2 -67 -3t-105 -1h-98 h-55q-12 0 -12 21v565q0 20 12 20h47q41 0 88 -1t90 -2t55 -3q82 -10 109 -27.5t37 -42.5q8 -18 10 -40.5t2 -32.5q0 -27 17 -27q6 0 9 7t5 16q2 8 3 27.5t3 41t3 40t1 26.5q4 43 10 64.5t6 31.5q0 18 -8 19q-8 0 -14 -4.5t-14 -6.5q-29 -6 -88 -10q-18 0 -91 -1t-157 -1 h-150h-71l-84 4q-35 2 -74 2h-74q-33 0 -33 -16zM338 1855q0 -12 59 -34q8 -4 36 -13.5t67 -24t82 -28.5t80.5 -26.5t66.5 -20.5t39 -8q18 0 18 10q0 6 -11 12.5t-27 16.5q-31 20 -65 43.5t-61.5 45t-48 38t-26.5 22.5q-14 14 -18.5 23.5t-12.5 9.5q-6 0 -13 -3t-20 -7 q-18 -8 -54 -18.5t-69 -20.5q-23 -6 -22 -17z" />
<glyph unicode="&#xc9;" horiz-adv-x="1249" d="M186 1526q0 -12 17 -13q14 0 35.5 -1t33.5 -5q51 -10 67.5 -36.5t20.5 -79.5q2 -25 3.5 -52.5t1.5 -74.5v-121v-195v-360q0 -147 -1.5 -263t-9.5 -182q-6 -45 -17 -75.5t-42 -36.5q-14 -4 -30.5 -6t-31.5 -2q-16 0 -16 -13q0 -16 33 -16q23 0 55.5 2t63.5 2q33 2 55 2h27 q23 0 61.5 -1t97.5 -5q59 -2 144.5 -4t201.5 -2q31 0 49.5 1t31 6t18.5 15t12 31q4 16 8 47t8 62.5t7.5 57t3.5 32.5q0 10 -1 20t-12 10q-12 0 -18 -30q-10 -63 -30.5 -97t-61.5 -51q-41 -16 -98.5 -19t-98.5 -3q-76 0 -121 6t-70.5 24.5t-34.5 51t-11 86.5v63v102v107v78 v180q0 14 14 14q12 0 52 -1t86 -2t90 -3t65 -4q59 -6 79.5 -27.5t26.5 -44.5q6 -20 7 -35.5t1 -31.5q0 -18 15 -19q10 0 12 13.5t2 25.5q0 6 1 21.5t2 35l2 39t3 35.5q4 51 10.5 78t6.5 37q0 16 -11 16q-8 0 -30 -26q-14 -16 -37 -20.5t-60 -8.5q-18 -2 -67 -3t-105 -1h-98 h-55q-12 0 -12 21v565q0 20 12 20h47q41 0 88 -1t90 -2t55 -3q82 -10 109 -27.5t37 -42.5q8 -18 10 -40.5t2 -32.5q0 -27 17 -27q6 0 9 7t5 16q2 8 3 27.5t3 41t3 40t1 26.5q4 43 10 64.5t6 31.5q0 18 -8 19q-8 0 -14 -4.5t-14 -6.5q-29 -6 -88 -10q-18 0 -91 -1t-157 -1 h-150h-71l-84 4q-35 2 -74 2h-74q-33 0 -33 -16zM535 1712q0 -12 10 -12q6 0 30 10q25 10 63 23.5t81 26t87 22.5t81 14q27 4 42 2t19 -2q6 0 11.5 5t-3.5 20q-16 31 -28.5 52.5t-22.5 37.5q-12 18 -20 18t-19.5 -5t-38.5 -21q-6 -4 -39.5 -23.5t-77.5 -47.5t-89.5 -56.5 t-71.5 -46.5q-14 -8 -14 -17z" />
<glyph unicode="&#xca;" horiz-adv-x="1249" d="M186 1526q0 -12 17 -13q14 0 35.5 -1t33.5 -5q51 -10 67.5 -36.5t20.5 -79.5q2 -25 3.5 -52.5t1.5 -74.5v-121v-195v-360q0 -147 -1.5 -263t-9.5 -182q-6 -45 -17 -75.5t-42 -36.5q-14 -4 -30.5 -6t-31.5 -2q-16 0 -16 -13q0 -16 33 -16q23 0 55.5 2t63.5 2q33 2 55 2h27 q23 0 61.5 -1t97.5 -5q59 -2 144.5 -4t201.5 -2q31 0 49.5 1t31 6t18.5 15t12 31q4 16 8 47t8 62.5t7.5 57t3.5 32.5q0 10 -1 20t-12 10q-12 0 -18 -30q-10 -63 -30.5 -97t-61.5 -51q-41 -16 -98.5 -19t-98.5 -3q-76 0 -121 6t-70.5 24.5t-34.5 51t-11 86.5v63v102v107v78 v180q0 14 14 14q12 0 52 -1t86 -2t90 -3t65 -4q59 -6 79.5 -27.5t26.5 -44.5q6 -20 7 -35.5t1 -31.5q0 -18 15 -19q10 0 12 13.5t2 25.5q0 6 1 21.5t2 35l2 39t3 35.5q4 51 10.5 78t6.5 37q0 16 -11 16q-8 0 -30 -26q-14 -16 -37 -20.5t-60 -8.5q-18 -2 -67 -3t-105 -1h-98 h-55q-12 0 -12 21v565q0 20 12 20h47q41 0 88 -1t90 -2t55 -3q82 -10 109 -27.5t37 -42.5q8 -18 10 -40.5t2 -32.5q0 -27 17 -27q6 0 9 7t5 16q2 8 3 27.5t3 41t3 40t1 26.5q4 43 10 64.5t6 31.5q0 18 -8 19q-8 0 -14 -4.5t-14 -6.5q-29 -6 -88 -10q-18 0 -91 -1t-157 -1 h-150h-71l-84 4q-35 2 -74 2h-74q-33 0 -33 -16zM395 1690q0 -16 15 -17q14 0 36 21q18 14 41 33.5t46.5 37t46 32.5t41.5 26q20 10 32 10q4 0 21 -8q8 -6 30.5 -22.5t49 -37t51 -43t41.5 -39.5q8 -10 16 -10q6 0 19 13l43 45q4 4 7 9t3 9t-25 20q-10 8 -40.5 32t-65.5 49.5 t-64.5 48t-36.5 26.5q-12 10 -19 15.5t-13 5.5q-10 0 -33 -21q-8 -8 -42 -39t-73 -67.5t-72.5 -67.5t-41.5 -39q-4 -6 -8.5 -11t-4.5 -11z" />
<glyph unicode="&#xcb;" horiz-adv-x="1249" d="M186 1526q0 -12 17 -13q14 0 35.5 -1t33.5 -5q51 -10 67.5 -36.5t20.5 -79.5q2 -25 3.5 -52.5t1.5 -74.5v-121v-195v-360q0 -147 -1.5 -263t-9.5 -182q-6 -45 -17 -75.5t-42 -36.5q-14 -4 -30.5 -6t-31.5 -2q-16 0 -16 -13q0 -16 33 -16q23 0 55.5 2t63.5 2q33 2 55 2h27 q23 0 61.5 -1t97.5 -5q59 -2 144.5 -4t201.5 -2q31 0 49.5 1t31 6t18.5 15t12 31q4 16 8 47t8 62.5t7.5 57t3.5 32.5q0 10 -1 20t-12 10q-12 0 -18 -30q-10 -63 -30.5 -97t-61.5 -51q-41 -16 -98.5 -19t-98.5 -3q-76 0 -121 6t-70.5 24.5t-34.5 51t-11 86.5v63v102v107v78 v180q0 14 14 14q12 0 52 -1t86 -2t90 -3t65 -4q59 -6 79.5 -27.5t26.5 -44.5q6 -20 7 -35.5t1 -31.5q0 -18 15 -19q10 0 12 13.5t2 25.5q0 6 1 21.5t2 35l2 39t3 35.5q4 51 10.5 78t6.5 37q0 16 -11 16q-8 0 -30 -26q-14 -16 -37 -20.5t-60 -8.5q-18 -2 -67 -3t-105 -1h-98 h-55q-12 0 -12 21v565q0 20 12 20h47q41 0 88 -1t90 -2t55 -3q82 -10 109 -27.5t37 -42.5q8 -18 10 -40.5t2 -32.5q0 -27 17 -27q6 0 9 7t5 16q2 8 3 27.5t3 41t3 40t1 26.5q4 43 10 64.5t6 31.5q0 18 -8 19q-8 0 -14 -4.5t-14 -6.5q-29 -6 -88 -10q-18 0 -91 -1t-157 -1 h-150h-71l-84 4q-35 2 -74 2h-74q-33 0 -33 -16zM371 1788q0 -29 19.5 -58.5t66.5 -29.5q41 0 65.5 26.5t24.5 67.5q0 39 -25.5 60.5t-62.5 21.5q-47 0 -67.5 -29.5t-20.5 -58.5zM782 1788q0 -29 19.5 -58.5t66.5 -29.5q41 0 65.5 26.5t24.5 67.5q0 39 -25.5 60.5 t-62.5 21.5q-47 0 -67.5 -29.5t-20.5 -58.5z" />
<glyph unicode="&#xcc;" horiz-adv-x="901" d="M125 1855q0 -12 59 -34q8 -4 36 -13.5t67 -24t82 -28.5t80.5 -26.5t67.5 -20.5t38 -8q18 0 18 10q0 6 -11 12.5t-27 16.5q-31 20 -65 43.5t-61.5 45t-48 38t-26.5 22.5q-14 14 -18.5 23.5t-12.5 9.5q-6 0 -13 -3t-20 -7q-18 -8 -54 -18.5t-69 -20.5q-23 -6 -22 -17z M211 1526q0 -12 16 -13q10 0 28.5 -2t35.5 -6q63 -14 69 -114q2 -25 3.5 -52.5t1.5 -74.5v-121v-195v-360q0 -147 -1.5 -263t-9.5 -182q-6 -45 -17 -75.5t-42 -36.5q-14 -4 -30.5 -6t-31.5 -2q-16 0 -16 -13q0 -16 33 -16q23 0 55.5 1t63 2t54 2t28.5 1q4 0 27.5 -1t59 -2 t78.5 -2t86 -1q33 0 33 16q0 12 -16 13q-14 0 -42 2t-50 6q-47 6 -61.5 36.5t-18.5 75.5q-8 66 -9 181.5t-1 263.5v360v195v121q0 47 1 74.5t3 52.5q4 53 19 80.5t56 35.5q18 4 29.5 5t22.5 1q16 0 16 13q0 16 -33 16q-23 0 -55.5 -1t-63 -2t-54 -2t-27.5 -1t-28 1t-54.5 2 t-65.5 2t-59 1q-33 0 -33 -16z" />
<glyph unicode="&#xcd;" horiz-adv-x="901" d="M211 1526q0 -12 16 -13q10 0 28.5 -2t35.5 -6q63 -14 69 -114q2 -25 3.5 -52.5t1.5 -74.5v-121v-195v-360q0 -147 -1.5 -263t-9.5 -182q-6 -45 -17 -75.5t-42 -36.5q-14 -4 -30.5 -6t-31.5 -2q-16 0 -16 -13q0 -16 33 -16q23 0 55.5 1t63 2t54 2t28.5 1q4 0 27.5 -1 t59 -2t78.5 -2t86 -1q33 0 33 16q0 12 -16 13q-14 0 -42 2t-50 6q-47 6 -61.5 36.5t-18.5 75.5q-8 66 -9 181.5t-1 263.5v360v195v121q0 47 1 74.5t3 52.5q4 53 19 80.5t56 35.5q18 4 29.5 5t22.5 1q16 0 16 13q0 16 -33 16q-23 0 -55.5 -1t-63 -2t-54 -2t-27.5 -1t-28 1 t-54.5 2t-65.5 2t-59 1q-33 0 -33 -16zM342 1712q0 -12 10 -12q6 0 31 10t62.5 23.5t80.5 26t87 22.5t81 14q27 4 42.5 2t19.5 -2q6 0 11 5t-3 20q-16 31 -28.5 52.5t-22.5 37.5q-12 18 -21 18q-8 0 -19 -5t-38 -21q-6 -4 -40 -23.5t-78 -47.5t-89 -56.5t-72 -46.5 q-14 -8 -14 -17z" />
<glyph unicode="&#xce;" horiz-adv-x="901" d="M182 1690q0 -16 15 -17q14 0 36 21q18 14 41 33.5t46.5 37t46 32.5t41.5 26q20 10 32 10q4 0 21 -8q8 -6 30.5 -22.5t49 -37t51 -43t41.5 -39.5q8 -10 16 -10q6 0 19 13l43 45q4 4 7 9t3 9t-25 20q-10 8 -40.5 32t-65.5 49.5t-64.5 48t-36.5 26.5q-12 10 -19 15.5 t-13 5.5q-10 0 -33 -21q-8 -8 -42 -39t-73 -67.5t-72.5 -67.5t-41.5 -39q-4 -6 -8.5 -11t-4.5 -11zM211 1526q0 -12 16 -13q10 0 28.5 -2t35.5 -6q63 -14 69 -114q2 -25 3.5 -52.5t1.5 -74.5v-121v-195v-360q0 -147 -1.5 -263t-9.5 -182q-6 -45 -17 -75.5t-42 -36.5 q-14 -4 -30.5 -6t-31.5 -2q-16 0 -16 -13q0 -16 33 -16q23 0 55.5 1t63 2t54 2t28.5 1q4 0 27.5 -1t59 -2t78.5 -2t86 -1q33 0 33 16q0 12 -16 13q-14 0 -42 2t-50 6q-47 6 -61.5 36.5t-18.5 75.5q-8 66 -9 181.5t-1 263.5v360v195v121q0 47 1 74.5t3 52.5q4 53 19 80.5 t56 35.5q18 4 29.5 5t22.5 1q16 0 16 13q0 16 -33 16q-23 0 -55.5 -1t-63 -2t-54 -2t-27.5 -1t-28 1t-54.5 2t-65.5 2t-59 1q-33 0 -33 -16z" />
<glyph unicode="&#xcf;" horiz-adv-x="901" d="M158 1788q0 -29 19.5 -58.5t66.5 -29.5q41 0 65.5 26.5t24.5 67.5q0 39 -25.5 60.5t-62.5 21.5q-47 0 -67.5 -29.5t-20.5 -58.5zM211 1526q0 -12 16 -13q10 0 28.5 -2t35.5 -6q63 -14 69 -114q2 -25 3.5 -52.5t1.5 -74.5v-121v-195v-360q0 -147 -1.5 -263t-9.5 -182 q-6 -45 -17 -75.5t-42 -36.5q-14 -4 -30.5 -6t-31.5 -2q-16 0 -16 -13q0 -16 33 -16q23 0 55.5 1t63 2t54 2t28.5 1q4 0 27.5 -1t59 -2t78.5 -2t86 -1q33 0 33 16q0 12 -16 13q-14 0 -42 2t-50 6q-47 6 -61.5 36.5t-18.5 75.5q-8 66 -9 181.5t-1 263.5v360v195v121 q0 47 1 74.5t3 52.5q4 53 19 80.5t56 35.5q18 4 29.5 5t22.5 1q16 0 16 13q0 16 -33 16q-23 0 -55.5 -1t-63 -2t-54 -2t-27.5 -1t-28 1t-54.5 2t-65.5 2t-59 1q-33 0 -33 -16zM569 1788q0 -29 19.5 -58.5t66.5 -29.5q41 0 65.5 26.5t24.5 67.5q0 39 -25.5 60.5t-62.5 21.5 q-47 0 -67.5 -29.5t-20.5 -58.5z" />
<glyph unicode="&#xd0;" horiz-adv-x="1878" d="M170 745.5q2 -6.5 14 -6.5h181v-151q0 -147 -1.5 -263t-9.5 -182q-6 -45 -17 -75.5t-42 -36.5q-14 -4 -30.5 -6t-31.5 -2q-16 0 -16 -13q0 -16 33 -16q23 0 55.5 2t63.5 2q33 2 55 2h27q8 0 55 -4t115 -8q66 -4 142.5 -8.5t141.5 -4.5q131 0 231.5 24t176.5 59.5 t128 76.5t85 76q43 45 83 104.5t70.5 132t49 158.5t18.5 182q0 92 -16.5 170t-44 142.5t-63.5 116t-75 92.5q-92 94 -202.5 142t-223 68.5t-216 21.5t-179.5 1q-47 0 -92 -1t-83 -2t-65.5 -2t-35.5 -1q-4 0 -28 1t-57.5 2t-72.5 2t-74 1q-33 0 -33 -16q0 -12 17 -13 q14 0 35.5 -1t33.5 -5q51 -10 67.5 -36.5t20.5 -79.5q2 -25 3.5 -52.5t1.5 -74.5v-121v-195v-135h-162q-20 0 -27 -18l-6 -33q-2 -10 0 -16.5zM537 629v108h399q10 0 17.5 3t9.5 14l8 39q4 23 -15 22h-419l2 602q0 31 24 41q12 6 54 10.5t77 4.5q92 0 182.5 -7.5t174.5 -32 t163.5 -70.5t151.5 -122q31 -33 65.5 -81t64.5 -112.5t48.5 -144.5t18.5 -178q0 -72 -10.5 -141.5t-32 -134t-52 -120t-69.5 -93.5q-92 -92 -218 -141.5t-270 -49.5q-90 0 -152.5 7t-102.5 19.5t-61.5 27t-31.5 28.5q-6 8 -10 26.5t-6 41t-4 46t-2 42.5q-2 25 -3 120t-1 226 z" />
<glyph unicode="&#xd1;" horiz-adv-x="1939" d="M135 10q0 -16 33 -16q70 0 126 3t71 3q14 0 71.5 -3t145.5 -3q37 0 36 16q0 12 -16 13q-14 0 -44 2t-58 10q-20 6 -34.5 20.5t-24 42t-14.5 69.5t-7 105l-27 981q25 -29 78 -87t125 -138t157 -173t175 -189q82 -88 172 -182.5t168 -175.5t132 -135l62 -62 q41 -41 66.5 -67t42 -40t26 -19t15.5 -5t9 4t5 18t3 43t1 80l4 1200q0 92 12.5 132t63.5 50q18 4 29.5 5t19.5 1q23 0 23 15q0 14 -37 14q-63 0 -110.5 -3t-63.5 -3q-8 0 -29.5 1t-51.5 2t-63.5 2t-68.5 1q-41 0 -41 -14t16 -15q12 0 42 -2t59 -8q47 -12 62 -53t17 -141 l23 -1041q-25 25 -76 81.5t-118.5 130t-144.5 157.5t-153 166q-119 127 -230.5 247.5t-201.5 217t-148 161t-71 76.5q-16 16 -37.5 41t-33.5 25t-17.5 -21.5t-5.5 -81.5l-2 -1173q0 -139 -11.5 -194.5t-49.5 -65.5q-23 -8 -47.5 -10t-36.5 -2q-16 0 -17 -13zM668 1720 q0 -12 12 -12t29 18q6 6 15 18.5t24.5 25t37 21.5t48.5 9q47 0 78.5 -17.5t60.5 -29.5q23 -10 67 -31.5t95 -21.5q25 0 51 17.5t51 41t43 47t25 35.5q8 16 8 27q0 12 -15 12q-10 0 -24 -22q-2 -4 -11.5 -13.5t-24.5 -19.5t-37.5 -18.5t-51.5 -8.5q-25 0 -60.5 12.5 t-58.5 22.5q-47 23 -91 43t-81 20q-25 0 -51.5 -16t-51 -39.5t-44 -48.5t-29.5 -41q-6 -10 -10 -16t-4 -15z" />
<glyph unicode="&#xd2;" horiz-adv-x="1873" d="M131 770q0 -139 45 -281.5t141.5 -259t247 -190.5t361.5 -74q184 0 335.5 66.5t258 180.5t165 266.5t58.5 324.5q0 178 -61.5 320.5t-169 241.5t-255 152.5t-319.5 53.5q-141 0 -256 -36t-205 -97.5t-154.5 -142.5t-107.5 -170t-63.5 -181t-20.5 -174zM326 827 q0 168 45 294t124.5 211t189.5 127t239 42q121 0 233.5 -49t198.5 -144.5t138 -236.5t52 -326q0 -223 -62.5 -361t-151.5 -214t-185 -101.5t-166 -25.5q-139 0 -258 55.5t-208 157.5t-139 247.5t-50 323.5zM610 1855q0 -12 60 -34q8 -4 35.5 -13.5t66.5 -24t82 -28.5 t81 -26.5t66.5 -20.5t38.5 -8q18 0 19 10q0 6 -11.5 12.5t-27.5 16.5q-31 20 -64.5 43.5t-61.5 45t-48.5 38t-26.5 22.5q-14 14 -18 23.5t-13 9.5q-6 0 -13 -3t-19 -7q-18 -8 -54 -18.5t-69 -20.5q-23 -6 -23 -17z" />
<glyph unicode="&#xd3;" horiz-adv-x="1873" d="M131 770q0 -139 45 -281.5t141.5 -259t247 -190.5t361.5 -74q184 0 335.5 66.5t258 180.5t165 266.5t58.5 324.5q0 178 -61.5 320.5t-169 241.5t-255 152.5t-319.5 53.5q-141 0 -256 -36t-205 -97.5t-154.5 -142.5t-107.5 -170t-63.5 -181t-20.5 -174zM326 827 q0 168 45 294t124.5 211t189.5 127t239 42q121 0 233.5 -49t198.5 -144.5t138 -236.5t52 -326q0 -223 -62.5 -361t-151.5 -214t-185 -101.5t-166 -25.5q-139 0 -258 55.5t-208 157.5t-139 247.5t-50 323.5zM827 1712q0 -12 11 -12q6 0 30 10q25 10 63 23.5t81 26t87 22.5 t81 14q27 4 42 2t19 -2q6 0 11 5t-3 20q-16 31 -28.5 52.5t-22.5 37.5q-12 18 -20 18t-19.5 -5t-38.5 -21q-6 -4 -39.5 -23.5t-78 -47.5t-89.5 -56.5t-71 -46.5q-14 -8 -15 -17z" />
<glyph unicode="&#xd4;" horiz-adv-x="1873" d="M131 770q0 -139 45 -281.5t141.5 -259t247 -190.5t361.5 -74q184 0 335.5 66.5t258 180.5t165 266.5t58.5 324.5q0 178 -61.5 320.5t-169 241.5t-255 152.5t-319.5 53.5q-141 0 -256 -36t-205 -97.5t-154.5 -142.5t-107.5 -170t-63.5 -181t-20.5 -174zM326 827 q0 168 45 294t124.5 211t189.5 127t239 42q121 0 233.5 -49t198.5 -144.5t138 -236.5t52 -326q0 -223 -62.5 -361t-151.5 -214t-185 -101.5t-166 -25.5q-139 0 -258 55.5t-208 157.5t-139 247.5t-50 323.5zM668 1690q0 -16 14 -17q14 0 37 21q18 14 40.5 33.5t46 37t46 32.5 t41.5 26q20 10 33 10q4 0 20 -8q8 -6 30.5 -22.5t49.5 -37t51.5 -43t40.5 -39.5q8 -10 17 -10q6 0 18 13l43 45q4 4 7 9t3 9t-24 20q-10 8 -41 32t-66 49.5t-64.5 48t-35.5 26.5q-12 10 -19.5 15.5t-13.5 5.5q-10 0 -33 -21q-8 -8 -41.5 -39t-72.5 -67.5t-73 -67.5t-42 -39 q-4 -6 -8 -11t-4 -11z" />
<glyph unicode="&#xd5;" horiz-adv-x="1873" d="M131 770q0 -139 45 -281.5t141.5 -259t247 -190.5t361.5 -74q184 0 335.5 66.5t258 180.5t165 266.5t58.5 324.5q0 178 -61.5 320.5t-169 241.5t-255 152.5t-319.5 53.5q-141 0 -256 -36t-205 -97.5t-154.5 -142.5t-107.5 -170t-63.5 -181t-20.5 -174zM326 827 q0 168 45 294t124.5 211t189.5 127t239 42q121 0 233.5 -49t198.5 -144.5t138 -236.5t52 -326q0 -223 -62.5 -361t-151.5 -214t-185 -101.5t-166 -25.5q-139 0 -258 55.5t-208 157.5t-139 247.5t-50 323.5zM614 1720q0 -12 13 -12q12 0 28 18q6 6 15.5 18.5t25 25t37 21.5 t47.5 9q47 0 79 -17.5t61 -29.5q23 -10 66.5 -31.5t94.5 -21.5q25 0 51.5 17.5t51 41t43 47t24.5 35.5q8 16 9 27q0 12 -15 12q-10 0 -24 -22q-2 -4 -11.5 -13.5t-25 -19.5t-38 -18.5t-50.5 -8.5q-25 0 -61 12.5t-58 22.5q-47 23 -91 43t-81 20q-25 0 -51.5 -16t-51 -39.5 t-44 -48.5t-29.5 -41q-6 -10 -10.5 -16t-4.5 -15z" />
<glyph unicode="&#xd6;" horiz-adv-x="1873" d="M131 770q0 -139 45 -281.5t141.5 -259t247 -190.5t361.5 -74q184 0 335.5 66.5t258 180.5t165 266.5t58.5 324.5q0 178 -61.5 320.5t-169 241.5t-255 152.5t-319.5 53.5q-141 0 -256 -36t-205 -97.5t-154.5 -142.5t-107.5 -170t-63.5 -181t-20.5 -174zM326 827 q0 168 45 294t124.5 211t189.5 127t239 42q121 0 233.5 -49t198.5 -144.5t138 -236.5t52 -326q0 -223 -62.5 -361t-151.5 -214t-185 -101.5t-166 -25.5q-139 0 -258 55.5t-208 157.5t-139 247.5t-50 323.5zM643 1788q0 -29 19.5 -58.5t66.5 -29.5q41 0 65.5 26.5t24.5 67.5 q0 39 -25.5 60.5t-62.5 21.5q-47 0 -67.5 -29.5t-20.5 -58.5zM1055 1788q0 -29 19.5 -58.5t66.5 -29.5q41 0 65.5 26.5t24.5 67.5q0 39 -25.5 60.5t-62.5 21.5q-47 0 -67.5 -29.5t-20.5 -58.5z" />
<glyph unicode="&#xd7;" horiz-adv-x="1044" d="M113 199l77 -76l332 340l334 -340l76 76l-334 340l334 342l-78 75l-334 -342l-332 342l-73 -75l331 -342z" />
<glyph unicode="&#xd8;" horiz-adv-x="1873" d="M131 770q0 -150 52.5 -303.5t164.5 -269.5l-178 -193q-8 -8 4 -20l41 -39q12 -12 21 0l178 190q94 -78 221 -124t291 -46q184 0 335.5 66.5t258 180.5t165 266.5t58.5 324.5q0 170 -53.5 305t-151.5 233l166 179q12 12 0 26l-41 33q-18 14 -29 4l-168 -180 q-104 82 -232 125t-296 43q-141 0 -256 -36t-205 -97.5t-154.5 -142.5t-107.5 -170t-63.5 -181t-20.5 -174zM326 827q0 168 45 294t124.5 211t189.5 127t237 42q125 0 240.5 -51t203.5 -156l-901 -972q-66 98 -102.5 225t-36.5 280zM520 250l903 969q57 -90 90 -208t33 -266 q0 -223 -62.5 -361t-151.5 -214t-185 -101.5t-166 -25.5q-137 0 -254 53.5t-207 153.5z" />
<glyph unicode="&#xd9;" horiz-adv-x="1699" d="M68 1526q0 -12 16 -13q14 0 35.5 -1t34.5 -5q51 -10 67.5 -36.5t20.5 -79.5q2 -25 3 -52.5t1 -74.5v-121v-195v-299q0 -113 13 -196.5t38 -148t57.5 -111t69.5 -82.5q55 -51 117.5 -81t122 -44.5t107.5 -17.5t75 -3q45 0 96 5t104.5 21.5t109.5 46.5t112 79 q61 55 98 125.5t57.5 151.5t26.5 166t6 169v219v195v121q0 47 1 74.5t3 52.5q4 53 19.5 79.5t56.5 36.5q18 4 29.5 5t21.5 1q16 0 17 13q0 16 -33 16q-23 0 -50.5 -1t-53 -2t-44 -2t-24.5 -1q-4 0 -25.5 1t-52.5 2t-67.5 2t-71.5 1q-33 0 -33 -16q0 -12 16 -13q14 0 36 -1 t34 -5q51 -10 67.5 -36.5t20.5 -79.5q2 -25 3 -52.5t1 -74.5v-121v-195v-256q0 -160 -23.5 -286.5t-95.5 -215.5q-55 -66 -141 -106.5t-180 -40.5q-88 0 -161 20.5t-148 92.5q-33 31 -62 72.5t-49.5 101t-31.5 140.5t-11 192v286v195v121q0 47 1 74.5t3 52.5q4 53 19.5 81.5 t56.5 34.5q18 4 29.5 5t21.5 1q16 0 16 13q0 16 -32 16q-23 0 -54.5 -1t-62.5 -2t-55.5 -2t-30.5 -1t-31.5 1t-59.5 2t-72 2t-73 1q-33 0 -32 -16zM532 1855q0 -12 60 -34q8 -4 35.5 -13.5t66.5 -24t82 -28.5t81 -26.5t68 -20.5t38 -8q18 0 18 10q0 6 -11.5 12.5t-27.5 16.5 q-31 20 -64.5 43.5t-61.5 45t-48 38t-27 22.5q-14 14 -18 23.5t-12 9.5q-6 0 -13.5 -3t-19.5 -7q-18 -8 -54 -18.5t-69 -20.5q-23 -6 -23 -17z" />
<glyph unicode="&#xda;" horiz-adv-x="1699" d="M68 1526q0 -12 16 -13q14 0 35.5 -1t34.5 -5q51 -10 67.5 -36.5t20.5 -79.5q2 -25 3 -52.5t1 -74.5v-121v-195v-299q0 -113 13 -196.5t38 -148t57.5 -111t69.5 -82.5q55 -51 117.5 -81t122 -44.5t107.5 -17.5t75 -3q45 0 96 5t104.5 21.5t109.5 46.5t112 79 q61 55 98 125.5t57.5 151.5t26.5 166t6 169v219v195v121q0 47 1 74.5t3 52.5q4 53 19.5 79.5t56.5 36.5q18 4 29.5 5t21.5 1q16 0 17 13q0 16 -33 16q-23 0 -50.5 -1t-53 -2t-44 -2t-24.5 -1q-4 0 -25.5 1t-52.5 2t-67.5 2t-71.5 1q-33 0 -33 -16q0 -12 16 -13q14 0 36 -1 t34 -5q51 -10 67.5 -36.5t20.5 -79.5q2 -25 3 -52.5t1 -74.5v-121v-195v-256q0 -160 -23.5 -286.5t-95.5 -215.5q-55 -66 -141 -106.5t-180 -40.5q-88 0 -161 20.5t-148 92.5q-33 31 -62 72.5t-49.5 101t-31.5 140.5t-11 192v286v195v121q0 47 1 74.5t3 52.5q4 53 19.5 81.5 t56.5 34.5q18 4 29.5 5t21.5 1q16 0 16 13q0 16 -32 16q-23 0 -54.5 -1t-62.5 -2t-55.5 -2t-30.5 -1t-31.5 1t-59.5 2t-72 2t-73 1q-33 0 -32 -16zM780 1712q0 -12 11 -12q6 0 30 10q25 10 63 23.5t81 26t87 22.5t81 14q27 4 42 2t19 -2q6 0 11 5t-3 20q-16 31 -28.5 52.5 t-22.5 37.5q-12 18 -21 18q-8 0 -19 -5t-38 -21q-6 -4 -40 -23.5t-78 -47.5t-89 -56.5t-71 -46.5q-14 -8 -15 -17z" />
<glyph unicode="&#xdb;" horiz-adv-x="1699" d="M68 1526q0 -12 16 -13q14 0 35.5 -1t34.5 -5q51 -10 67.5 -36.5t20.5 -79.5q2 -25 3 -52.5t1 -74.5v-121v-195v-299q0 -113 13 -196.5t38 -148t57.5 -111t69.5 -82.5q55 -51 117.5 -81t122 -44.5t107.5 -17.5t75 -3q45 0 96 5t104.5 21.5t109.5 46.5t112 79 q61 55 98 125.5t57.5 151.5t26.5 166t6 169v219v195v121q0 47 1 74.5t3 52.5q4 53 19.5 79.5t56.5 36.5q18 4 29.5 5t21.5 1q16 0 17 13q0 16 -33 16q-23 0 -50.5 -1t-53 -2t-44 -2t-24.5 -1q-4 0 -25.5 1t-52.5 2t-67.5 2t-71.5 1q-33 0 -33 -16q0 -12 16 -13q14 0 36 -1 t34 -5q51 -10 67.5 -36.5t20.5 -79.5q2 -25 3 -52.5t1 -74.5v-121v-195v-256q0 -160 -23.5 -286.5t-95.5 -215.5q-55 -66 -141 -106.5t-180 -40.5q-88 0 -161 20.5t-148 92.5q-33 31 -62 72.5t-49.5 101t-31.5 140.5t-11 192v286v195v121q0 47 1 74.5t3 52.5q4 53 19.5 81.5 t56.5 34.5q18 4 29.5 5t21.5 1q16 0 16 13q0 16 -32 16q-23 0 -54.5 -1t-62.5 -2t-55.5 -2t-30.5 -1t-31.5 1t-59.5 2t-72 2t-73 1q-33 0 -32 -16zM610 1690q0 -16 15 -17q14 0 37 21q18 14 40.5 33.5t46 37t46 32.5t41.5 26q20 10 32 10q4 0 21 -8q8 -6 30.5 -22.5t49 -37 t51 -43t41.5 -39.5q8 -10 16 -10q6 0 19 13l43 45q4 4 7 9t3 9t-25 20q-10 8 -40.5 32t-65.5 49.5t-64.5 48t-35.5 26.5q-12 10 -19.5 15.5t-13.5 5.5q-10 0 -33 -21q-8 -8 -42 -39t-73 -67.5t-72.5 -67.5t-41.5 -39q-4 -6 -8.5 -11t-4.5 -11z" />
<glyph unicode="&#xdc;" horiz-adv-x="1699" d="M68 1526q0 -12 16 -13q14 0 35.5 -1t34.5 -5q51 -10 67.5 -36.5t20.5 -79.5q2 -25 3 -52.5t1 -74.5v-121v-195v-299q0 -113 13 -196.5t38 -148t57.5 -111t69.5 -82.5q55 -51 117.5 -81t122 -44.5t107.5 -17.5t75 -3q45 0 96 5t104.5 21.5t109.5 46.5t112 79 q61 55 98 125.5t57.5 151.5t26.5 166t6 169v219v195v121q0 47 1 74.5t3 52.5q4 53 19.5 79.5t56.5 36.5q18 4 29.5 5t21.5 1q16 0 17 13q0 16 -33 16q-23 0 -50.5 -1t-53 -2t-44 -2t-24.5 -1q-4 0 -25.5 1t-52.5 2t-67.5 2t-71.5 1q-33 0 -33 -16q0 -12 16 -13q14 0 36 -1 t34 -5q51 -10 67.5 -36.5t20.5 -79.5q2 -25 3 -52.5t1 -74.5v-121v-195v-256q0 -160 -23.5 -286.5t-95.5 -215.5q-55 -66 -141 -106.5t-180 -40.5q-88 0 -161 20.5t-148 92.5q-33 31 -62 72.5t-49.5 101t-31.5 140.5t-11 192v286v195v121q0 47 1 74.5t3 52.5q4 53 19.5 81.5 t56.5 34.5q18 4 29.5 5t21.5 1q16 0 16 13q0 16 -32 16q-23 0 -54.5 -1t-62.5 -2t-55.5 -2t-30.5 -1t-31.5 1t-59.5 2t-72 2t-73 1q-33 0 -32 -16zM596 1788q0 -29 19.5 -58.5t66.5 -29.5q41 0 65.5 26.5t24.5 67.5q0 39 -25.5 60.5t-62.5 21.5q-47 0 -67.5 -29.5 t-20.5 -58.5zM1008 1788q0 -29 19.5 -58.5t66.5 -29.5q41 0 65.5 26.5t24.5 67.5q0 39 -25.5 60.5t-62.5 21.5q-47 0 -67.5 -29.5t-20.5 -58.5z" />
<glyph unicode="&#xdd;" horiz-adv-x="1339" d="M-63 1528q0 -14 20 -15q14 0 40 -8t48 -24q29 -18 64.5 -56.5t74.5 -95.5q18 -27 51 -79t72 -114.5t79 -129t75 -123t57.5 -96t26.5 -48.5q10 -23 18 -43t14.5 -44.5t10.5 -55.5t4 -72v-176q0 -25 -1 -82t-5 -123q-4 -45 -18.5 -75.5t-45.5 -36.5q-14 -4 -30.5 -6 t-30.5 -2q-16 0 -17 -13q0 -16 33 -16q23 0 55.5 1t63.5 2t54.5 2t27.5 1t27.5 -1t59.5 -2t79 -2t86 -1q33 0 33 16q0 12 -17 13q-14 0 -41.5 2t-50.5 6q-47 6 -63.5 36.5t-20.5 75.5q-4 66 -5 123.5t-1 81.5v176q0 51 4 100.5t27 104.5q8 23 36.5 74t66.5 116.5t81 138 t84 137.5t73.5 115t49.5 70q35 41 56.5 63.5t51.5 41.5q25 16 51.5 22t43.5 6q27 0 26 17q0 12 -26 12q-14 0 -46 -1l-64 -2t-58.5 -2t-30.5 -1q-12 0 -53 3t-82 3q-33 0 -33 -12q0 -10 31 -21q18 -4 25 -19t7 -38q0 -20 -7 -46t-27 -58q-10 -16 -37 -61.5t-61.5 -106 t-72.5 -128t-73 -128t-60.5 -108.5t-35.5 -71q-10 14 -39 64.5t-68 117t-83 142.5t-83 142.5t-67.5 116.5t-36.5 65q-12 23 -19.5 42t-7.5 38q0 23 27 36q14 6 22.5 9.5t8.5 9.5t-5.5 10t-21.5 4q-59 0 -110.5 -3t-61.5 -3q-4 0 -30.5 1t-60.5 2t-66 2t-46 1q-27 0 -26 -14z M621 1712q0 -12 10 -12q6 0 31 10t62.5 23.5t80.5 26t87 22.5t81 14q27 4 42 2t19 -2q6 0 11.5 5t-3.5 20q-16 31 -28.5 52.5t-22.5 37.5q-12 18 -20 18t-19.5 -5t-38.5 -21q-6 -4 -39.5 -23.5t-77.5 -47.5t-89 -56.5t-72 -46.5q-14 -8 -14 -17z" />
<glyph unicode="&#xde;" horiz-adv-x="1325" d="M186 1526q0 -12 17 -13q14 0 35.5 -1t33.5 -5q51 -10 67.5 -36.5t20.5 -79.5q2 -25 3.5 -52.5t1.5 -74.5v-121v-195v-360q0 -147 -1.5 -263t-9.5 -182q-6 -45 -17 -75.5t-42 -36.5q-14 -4 -30.5 -6t-31.5 -2q-16 0 -16 -13q0 -16 33 -16q23 0 55.5 1t63 2t53 2t24.5 1 q4 0 28 -1t59.5 -2t78.5 -2t86 -1q33 0 33 16q0 12 -16 13q-14 0 -42 2t-50 6q-47 6 -61.5 36.5t-18.5 75.5q-8 66 -9.5 181.5t-1.5 263.5v514q0 33 17 39q14 6 37.5 9t50.5 3h49t69 -9t80 -30.5t83 -62.5t63.5 -86t33.5 -88t14 -80t3 -62q0 -72 -27.5 -132t-74.5 -105 t-112.5 -71t-139.5 -26q-33 0 -44 -3t-11 -15q0 -8 7 -11t15 -3q8 -2 21 -2h22q109 0 201 34.5t159.5 99t105.5 154.5t38 199q0 80 -33 145.5t-67 96.5q-12 12 -38 31.5t-70 38t-110.5 32.5t-162.5 14q-59 0 -96 -2t-83 -6q0 31 1.5 79t3.5 114q2 45 22.5 71.5t69.5 36.5 q23 4 44 6t36 2q16 0 16 15q0 14 -33 14q-37 0 -78 -1t-75.5 -2t-59 -2t-28.5 -1q-6 0 -30 1t-57.5 2t-71.5 2t-73 1q-33 0 -33 -16z" />
<glyph unicode="&#xdf;" horiz-adv-x="2146" d="M139 84q0 -35 4 -45t23 -21q55 -27 127 -37t135 -10q74 0 151.5 12.5t135.5 49.5q96 63 132 141t36 156q0 55 -15.5 107t-50.5 102.5t-91 102.5t-138 108l-51 34q-68 45 -112 81t-71.5 70t-39 68.5t-11.5 75.5q0 92 70.5 140.5t169.5 48.5q61 0 103 -10.5t69.5 -24.5 t42 -28.5t18.5 -22.5q8 -14 16.5 -42t10.5 -44q2 -10 4 -16.5t12 -6.5q14 0 15 39q0 90 4 134t4 50q0 12 -19 13q-10 0 -23.5 1t-39.5 7q-33 8 -83 14t-104 6q-90 0 -162.5 -22.5t-126 -64.5t-82 -103.5t-28.5 -136.5q0 -90 56.5 -177.5t201.5 -195.5l82 -62 q59 -45 102 -79.5t71 -68.5t41 -71t13 -84q0 -98 -67.5 -164.5t-202.5 -66.5q-45 0 -91 9t-86 29.5t-68.5 53.5t-39.5 80q-4 18 -5 35.5t-1 27.5q0 20 -16 21q-14 0 -14 -29q-2 -23 -6.5 -70.5t-4.5 -113.5zM1212 84q0 -35 4.5 -45t22.5 -21q55 -27 127 -37t135 -10 q74 0 152 12.5t135 49.5q96 63 132 141t36 156q0 55 -15.5 107t-50.5 102.5t-91 102.5t-138 108l-51 34q-68 45 -112 81t-71.5 70t-39 68.5t-11.5 75.5q0 92 71 140.5t169 48.5q61 0 103 -10.5t70 -24.5t42 -28.5t18 -22.5q8 -14 16.5 -42t10.5 -44q2 -10 4 -16.5t12 -6.5 q14 0 15 39q0 90 4 134t4 50q0 12 -19 13q-10 0 -23 1t-40 7q-33 8 -83 14t-103 6q-90 0 -163 -22.5t-126 -64.5t-82 -103.5t-29 -136.5q0 -90 56.5 -177.5t201.5 -195.5l82 -62q59 -45 102.5 -79.5t71 -68.5t41 -71t13.5 -84q0 -98 -68 -164.5t-203 -66.5q-45 0 -91 9 t-86 29.5t-68.5 53.5t-38.5 80q-4 18 -5.5 35.5t-1.5 27.5q0 20 -16 21q-14 0 -14 -29q-2 -23 -6.5 -70.5t-4.5 -113.5z" />
<glyph unicode="&#xe0;" horiz-adv-x="1277" d="M-53 8q0 -14 35 -14q27 0 56.5 1t55 2t45 2t25.5 1q8 0 27.5 -1t44 -2l49 -2t41.5 -1q27 0 26 14q0 14 -18 15h-17q-23 0 -42 10t-19 37q0 47 27 116l102 279q6 14 18 14h416q10 0 17 -10l161 -399q10 -23 1 -33t-17 -14q-6 -4 -9 -5.5t-3 -7.5q0 -8 18.5 -9t44.5 -3 q47 -2 93 -3t85 -1h68h39q16 0 28.5 3t12.5 11t-7.5 11.5t-15.5 3.5q-14 0 -32.5 2t-38.5 8q-14 4 -30.5 12t-36 28.5t-41 55.5t-46.5 94q-29 66 -69 165t-85 210t-91 224.5t-85 208.5t-66.5 163t-35.5 86q-14 29 -21.5 46t-21.5 17q-10 0 -18.5 -12t-24.5 -55l-424 -1090 q-27 -66 -58.5 -108.5t-93.5 -50.5q-10 -2 -26.5 -3t-26.5 -1q-16 0 -16 -15zM313 1620q0 -12 60 -35q8 -4 35.5 -13t66.5 -23.5t82 -29t81 -26.5t66.5 -20.5t38.5 -8.5q18 0 19 11q0 6 -11.5 12t-27.5 16q-31 20 -64.5 44t-61.5 45.5t-48.5 38t-26.5 22.5q-14 14 -18 23.5 t-12 9.5q-6 0 -13.5 -3.5t-19.5 -7.5q-18 -8 -54 -18t-69 -21q-23 -6 -23 -16zM422 563l168 477q14 39 31 0l178 -477q2 -12 -6 -12h-365q-10 0 -6 12z" />
<glyph unicode="&#xe1;" horiz-adv-x="1277" d="M-53 8q0 -14 35 -14q27 0 56.5 1t55 2t45 2t25.5 1q8 0 27.5 -1t44 -2l49 -2t41.5 -1q27 0 26 14q0 14 -18 15h-17q-23 0 -42 10t-19 37q0 47 27 116l102 279q6 14 18 14h416q10 0 17 -10l161 -399q10 -23 1 -33t-17 -14q-6 -4 -9 -5.5t-3 -7.5q0 -8 18.5 -9t44.5 -3 q47 -2 93 -3t85 -1h68h39q16 0 28.5 3t12.5 11t-7.5 11.5t-15.5 3.5q-14 0 -32.5 2t-38.5 8q-14 4 -30.5 12t-36 28.5t-41 55.5t-46.5 94q-29 66 -69 165t-85 210t-91 224.5t-85 208.5t-66.5 163t-35.5 86q-14 29 -21.5 46t-21.5 17q-10 0 -18.5 -12t-24.5 -55l-424 -1090 q-27 -66 -58.5 -108.5t-93.5 -50.5q-10 -2 -26.5 -3t-26.5 -1q-16 0 -16 -15zM422 563l168 477q14 39 31 0l178 -477q2 -12 -6 -12h-365q-10 0 -6 12zM530 1477q0 -12 11 -13q6 0 30 11q25 10 63 23t81 25.5t87 22.5t81 15q27 4 42 2t19 -2q6 0 11.5 5t-3.5 19 q-16 31 -28.5 52.5t-22.5 37.5q-12 18 -20 19q-8 0 -19.5 -5.5t-38.5 -21.5q-6 -4 -39.5 -23.5t-77.5 -47t-89.5 -56.5t-71.5 -47q-14 -8 -15 -16z" />
<glyph unicode="&#xe2;" horiz-adv-x="1277" d="M-53 8q0 -14 35 -14q27 0 56.5 1t55 2t45 2t25.5 1q8 0 27.5 -1t44 -2l49 -2t41.5 -1q27 0 26 14q0 14 -18 15h-17q-23 0 -42 10t-19 37q0 47 27 116l102 279q6 14 18 14h416q10 0 17 -10l161 -399q10 -23 1 -33t-17 -14q-6 -4 -9 -5.5t-3 -7.5q0 -8 18.5 -9t44.5 -3 q47 -2 93 -3t85 -1h68h39q16 0 28.5 3t12.5 11t-7.5 11.5t-15.5 3.5q-14 0 -32.5 2t-38.5 8q-14 4 -30.5 12t-36 28.5t-41 55.5t-46.5 94q-29 66 -69 165t-85 210t-91 224.5t-85 208.5t-66.5 163t-35.5 86q-14 29 -21.5 46t-21.5 17q-10 0 -18.5 -12t-24.5 -55l-424 -1090 q-27 -66 -58.5 -108.5t-93.5 -50.5q-10 -2 -26.5 -3t-26.5 -1q-16 0 -16 -15zM371 1454q0 -16 14 -16t37 20q18 14 40.5 33.5t46 37t46.5 33t41 25.5q20 10 33 10q4 0 20 -8q8 -6 30.5 -22.5t49.5 -37t51.5 -43t40.5 -38.5q8 -10 17 -10q6 0 18 12l43 45q4 4 7 9t3 9t-24 21 q-10 8 -41 31.5t-66 49t-64.5 48.5t-35.5 27q-12 10 -19.5 15t-13.5 5q-10 0 -33 -20q-8 -8 -41.5 -39t-72.5 -68t-73 -67.5t-42 -38.5q-4 -6 -8 -11.5t-4 -11.5zM422 563l168 477q14 39 31 0l178 -477q2 -12 -6 -12h-365q-10 0 -6 12z" />
<glyph unicode="&#xe3;" horiz-adv-x="1277" d="M-53 8q0 -14 35 -14q27 0 56.5 1t55 2t45 2t25.5 1q8 0 27.5 -1t44 -2l49 -2t41.5 -1q27 0 26 14q0 14 -18 15h-17q-23 0 -42 10t-19 37q0 47 27 116l102 279q6 14 18 14h416q10 0 17 -10l161 -399q10 -23 1 -33t-17 -14q-6 -4 -9 -5.5t-3 -7.5q0 -8 18.5 -9t44.5 -3 q47 -2 93 -3t85 -1h68h39q16 0 28.5 3t12.5 11t-7.5 11.5t-15.5 3.5q-14 0 -32.5 2t-38.5 8q-14 4 -30.5 12t-36 28.5t-41 55.5t-46.5 94q-29 66 -69 165t-85 210t-91 224.5t-85 208.5t-66.5 163t-35.5 86q-14 29 -21.5 46t-21.5 17q-10 0 -18.5 -12t-24.5 -55l-424 -1090 q-27 -66 -58.5 -108.5t-93.5 -50.5q-10 -2 -26.5 -3t-26.5 -1q-16 0 -16 -15zM317 1485q0 -12 13 -12q12 0 28 18q6 6 15.5 18.5t25 24.5t37 21.5t47.5 9.5q47 0 79 -17.5t61 -29.5q23 -10 66.5 -32t94.5 -22q25 0 51.5 17.5t51 41t43 47t24.5 36.5q8 16 9 26q0 12 -15 13 q-10 0 -24 -23q-2 -4 -11.5 -13.5t-25 -19.5t-38 -18t-50.5 -8q-25 0 -61 12t-58 22q-47 23 -91 43.5t-81 20.5q-25 0 -51.5 -16.5t-51 -40t-44 -48t-29.5 -40.5q-6 -10 -10.5 -16.5t-4.5 -14.5zM422 563l168 477q14 39 31 0l178 -477q2 -12 -6 -12h-365q-10 0 -6 12z" />
<glyph unicode="&#xe4;" horiz-adv-x="1277" d="M-53 8q0 -14 35 -14q27 0 56.5 1t55 2t45 2t25.5 1q8 0 27.5 -1t44 -2l49 -2t41.5 -1q27 0 26 14q0 14 -18 15h-17q-23 0 -42 10t-19 37q0 47 27 116l102 279q6 14 18 14h416q10 0 17 -10l161 -399q10 -23 1 -33t-17 -14q-6 -4 -9 -5.5t-3 -7.5q0 -8 18.5 -9t44.5 -3 q47 -2 93 -3t85 -1h68h39q16 0 28.5 3t12.5 11t-7.5 11.5t-15.5 3.5q-14 0 -32.5 2t-38.5 8q-14 4 -30.5 12t-36 28.5t-41 55.5t-46.5 94q-29 66 -69 165t-85 210t-91 224.5t-85 208.5t-66.5 163t-35.5 86q-14 29 -21.5 46t-21.5 17q-10 0 -18.5 -12t-24.5 -55l-424 -1090 q-27 -66 -58.5 -108.5t-93.5 -50.5q-10 -2 -26.5 -3t-26.5 -1q-16 0 -16 -15zM346 1552q0 -29 19.5 -58.5t66.5 -29.5q41 0 65.5 27t24.5 68q0 39 -25.5 60t-62.5 21q-47 0 -67.5 -29.5t-20.5 -58.5zM422 563l168 477q14 39 31 0l178 -477q2 -12 -6 -12h-365q-10 0 -6 12z M758 1552q0 -29 19.5 -58.5t66.5 -29.5q41 0 65.5 27t24.5 68q0 39 -25.5 60t-62.5 21q-47 0 -67.5 -29.5t-20.5 -58.5z" />
<glyph unicode="&#xe5;" horiz-adv-x="1277" d="M-53 8q0 -14 35 -14q27 0 56.5 1t55 2t45 2t25.5 1q8 0 27.5 -1t44 -2l49 -2t41.5 -1q27 0 26 14q0 14 -18 15h-17q-23 0 -42 10t-19 37q0 47 27 116l102 279q6 14 18 14h416q10 0 17 -10l161 -399q10 -23 1 -33t-17 -14q-6 -4 -9 -5.5t-3 -7.5q0 -8 18.5 -9t44.5 -3 q47 -2 93 -3t85 -1h68h39q16 0 28.5 3t12.5 11t-7.5 11.5t-15.5 3.5q-14 0 -32.5 2t-38.5 8q-14 4 -30.5 12t-36 28.5t-41 55.5t-46.5 94q-29 66 -69 165t-85 210t-91 224.5t-85 208.5t-66.5 163t-35.5 86q-14 29 -21.5 46t-21.5 17q-10 0 -18.5 -12t-24.5 -55l-424 -1090 q-27 -66 -58.5 -108.5t-93.5 -50.5q-10 -2 -26.5 -3t-26.5 -1q-16 0 -16 -15zM422 563l168 477q14 39 31 0l178 -477q2 -12 -6 -12h-365q-10 0 -6 12zM436 1565q0 -53 41 -87t119 -34q45 0 90 12t81 36t57.5 56.5t21.5 75.5q0 53 -45 85t-123 32q-53 0 -97 -14.5t-77 -39 t-50.5 -56.5t-17.5 -66zM526 1591q0 27 11.5 45.5t29 30.5t38 18.5t38.5 6.5q55 0 81 -29t26 -66q0 -43 -35 -73.5t-86 -30.5q-37 0 -70 25.5t-33 72.5z" />
<glyph unicode="&#xe6;" horiz-adv-x="1669" d="M-127 8q0 -14 25 -14q33 0 66.5 1t62 2t48 2t25.5 1q14 0 83 -3t145 -3q12 0 21 4t9 8q0 16 -20 17q-16 0 -39 4t-39 10q-35 12 -35 47q0 23 16.5 62.5t63.5 113.5q12 18 42 65.5t63.5 99.5t61.5 95t36 53q6 10 13 11.5t18 1.5h319q16 0 16 -15v-71q0 -127 -1 -225.5 t-7 -151.5q-4 -39 -14 -63.5t-39 -28.5q-12 -2 -27.5 -5t-27.5 -3q-14 0 -15 -15q0 -14 29 -14q20 0 47 1t51 3q25 0 44.5 1t25.5 1q20 0 57 -1t95 -3q113 -6 315 -6q27 0 43 1t26.5 5t16.5 13t10 26q4 12 8.5 38.5t8.5 53.5t6 48.5t2 27.5q0 10 -1 17t-11 7q-14 0 -21 -24 q-10 -53 -25.5 -78t-50.5 -41q-35 -14 -87 -16t-87 -2q-66 0 -107.5 3t-65 16t-33 39t-11.5 71v55v88v94v68v71q0 16 12 17h47h78t79 -1t50 -3q53 -4 76 -20.5t27 -35.5q4 -14 5 -21t1 -11q0 -27 18 -27q10 0 11.5 10t1.5 17q0 10 1 41.5t5 58.5q4 43 9 65.5t5 30.5 q0 14 -8 15q-10 0 -27 -23q-10 -14 -30.5 -16t-53.5 -6q-16 -2 -61 -3.5t-94 -1.5h-90h-50q-12 0 -12 19v543q0 18 12 18h43t80 -1t81 -2t50 -3q37 -4 59.5 -9t35 -11.5t18.5 -14.5t12 -18q6 -16 8.5 -34t2.5 -28q0 -23 18 -22q4 0 7 6t5 12q2 8 3 24.5t3 35t3 34t1 21.5 q4 37 9.5 54t5.5 28q0 16 -8 16q-6 0 -12.5 -4t-12.5 -4q-10 -4 -30.5 -7t-47.5 -3h-434q-14 0 -30.5 2t-26.5 2q-16 0 -23 -25q-4 -10 -10 -23.5t-31 -50.5q-123 -186 -233.5 -353t-198.5 -299t-147.5 -220t-81.5 -117q-27 -35 -48.5 -62.5t-43 -50t-44 -41t-53.5 -32.5 q-23 -10 -44 -14.5t-31 -4.5q-20 0 -21 -10zM563 672q4 6 25.5 41t51.5 83t64.5 103t66.5 105.5t55.5 87t31.5 49.5q6 8 10 8q6 0 6 -8v-471q0 -14 -16 -15h-289q-16 0 -6 17z" />
<glyph unicode="&#xe7;" horiz-adv-x="1449" d="M113 674q0 -61 9 -129t33.5 -134.5t67.5 -131t109 -121.5q86 -74 194.5 -119t253.5 -62l-131 -106q-27 -20 -26 -29q0 -10 30 -18q90 -27 119 -66t29 -84q0 -29 -13.5 -50t-35 -36.5t-49 -26t-54.5 -12.5q-16 -2 -28.5 -5t-12.5 -17q0 -16 27 -16q29 0 74 9t86 27 q27 10 52 26.5t45.5 38t34 47.5t13.5 56q0 63 -54.5 99t-150.5 47q6 6 19.5 18t31 28.5t36 34t34.5 31.5q16 -2 33 -2h37q88 0 179 8.5t146 30.5q23 10 30 18.5t15 32.5q6 23 14.5 59t14.5 70.5t10 62.5t4 32q0 10 -5 17t-11 7q-10 0 -12 -5t-6 -19q-4 -25 -22.5 -71 t-47.5 -75q-53 -53 -124 -67.5t-173 -14.5q-145 0 -264 51.5t-205 138.5t-133 201.5t-47 239.5q0 133 30.5 248t131.5 207q25 23 58.5 44t81.5 38.5t113.5 28t151.5 10.5q121 0 214 -28t140 -69q35 -29 55.5 -76t20.5 -98q0 -37 14 -37q18 0 21 37q0 8 1 29.5t1 46.5 q0 27 1 53.5t1 48.5q4 47 6 68t2 31q0 18 -22 18q-45 2 -89 11.5t-96 17.5q-66 10 -137 14t-125 4q-104 0 -187 -14t-149.5 -40t-119 -59.5t-93.5 -72.5q-59 -59 -99 -123.5t-62.5 -128t-31.5 -122t-9 -101.5z" />
<glyph unicode="&#xe8;" horiz-adv-x="1128" d="M164 1296q0 -14 14 -14q12 0 31.5 -1t30.5 -3q45 -6 57 -28.5t16 -67.5q2 -20 3 -44t1 -65v-102v-164v-307q0 -127 -1 -225.5t-9 -151.5q-6 -39 -13 -63.5t-34 -28.5q-12 -2 -27.5 -5t-27.5 -3q-14 0 -15 -15q0 -14 29 -14q23 0 50.5 1t54.5 3q29 2 51 2h26h56 q37 0 94 -4q55 -2 133 -4t180 -2q27 0 44.5 1t27.5 5t17.5 13t11.5 26q4 14 8 39.5t8 53.5t6 49.5t2 25.5q0 10 -2 18t-10 8q-12 0 -19 -26q-8 -53 -27.5 -79t-53.5 -42q-35 -14 -90.5 -16.5t-90.5 -2.5q-68 0 -108.5 5.5t-64 20.5t-32 43t-10.5 71v51v88v90v68v145 q0 12 13 12h49t80 -1t84 -3t59 -4q53 -6 70.5 -20.5t21.5 -32.5q6 -16 7 -30.5t1 -26.5q0 -16 13 -17q10 0 13 11.5t3 21.5t2 48t6 65q4 43 9.5 65.5t5.5 30.5q0 14 -11 14q-4 0 -26 -22q-14 -14 -35 -17.5t-53 -7.5q-16 -2 -61.5 -3t-96.5 -1h-94h-49q-10 0 -11 18v474 q0 18 11 18h45t81 -1t82.5 -2t51.5 -3q37 -4 59.5 -9t36.5 -11.5t21.5 -14.5t11.5 -18q6 -16 8 -34t2 -28q0 -23 14 -22q6 0 10.5 6t6.5 12q2 8 3 24.5t3 35t3 34t1 21.5q4 37 9 54t5 28q0 16 -8 16q-6 0 -12 -3t-13 -5q-10 -2 -32.5 -5t-49.5 -5h-45h-81h-101h-96h-74h-33 q-4 0 -25.5 1t-51.5 1q-31 0 -66 1t-65 1q-29 0 -29 -15zM279 1620q0 -12 59 -35q8 -4 35.5 -13t66.5 -23.5t82 -29t81 -26.5t67 -20.5t39 -8.5q18 0 18 11q0 6 -11 12t-28 16q-31 20 -64.5 44t-61 45.5t-48 38t-27.5 22.5q-14 14 -18 23.5t-12 9.5q-6 0 -13.5 -3.5 t-19.5 -7.5q-18 -8 -54 -18t-69 -21q-23 -6 -22 -16z" />
<glyph unicode="&#xe9;" horiz-adv-x="1128" d="M164 1296q0 -14 14 -14q12 0 31.5 -1t30.5 -3q45 -6 57 -28.5t16 -67.5q2 -20 3 -44t1 -65v-102v-164v-307q0 -127 -1 -225.5t-9 -151.5q-6 -39 -13 -63.5t-34 -28.5q-12 -2 -27.5 -5t-27.5 -3q-14 0 -15 -15q0 -14 29 -14q23 0 50.5 1t54.5 3q29 2 51 2h26h56 q37 0 94 -4q55 -2 133 -4t180 -2q27 0 44.5 1t27.5 5t17.5 13t11.5 26q4 14 8 39.5t8 53.5t6 49.5t2 25.5q0 10 -2 18t-10 8q-12 0 -19 -26q-8 -53 -27.5 -79t-53.5 -42q-35 -14 -90.5 -16.5t-90.5 -2.5q-68 0 -108.5 5.5t-64 20.5t-32 43t-10.5 71v51v88v90v68v145 q0 12 13 12h49t80 -1t84 -3t59 -4q53 -6 70.5 -20.5t21.5 -32.5q6 -16 7 -30.5t1 -26.5q0 -16 13 -17q10 0 13 11.5t3 21.5t2 48t6 65q4 43 9.5 65.5t5.5 30.5q0 14 -11 14q-4 0 -26 -22q-14 -14 -35 -17.5t-53 -7.5q-16 -2 -61.5 -3t-96.5 -1h-94h-49q-10 0 -11 18v474 q0 18 11 18h45t81 -1t82.5 -2t51.5 -3q37 -4 59.5 -9t36.5 -11.5t21.5 -14.5t11.5 -18q6 -16 8 -34t2 -28q0 -23 14 -22q6 0 10.5 6t6.5 12q2 8 3 24.5t3 35t3 34t1 21.5q4 37 9 54t5 28q0 16 -8 16q-6 0 -12 -3t-13 -5q-10 -2 -32.5 -5t-49.5 -5h-45h-81h-101h-96h-74h-33 q-4 0 -25.5 1t-51.5 1q-31 0 -66 1t-65 1q-29 0 -29 -15zM455 1477q0 -12 10 -13q6 0 31 11q25 10 62.5 23t80.5 25.5t87 22.5t81 15q27 4 42 2t19 -2q6 0 11.5 5t-2.5 19q-16 31 -29 52.5t-23 37.5q-12 18 -20 19q-8 0 -19.5 -5.5t-37.5 -21.5q-6 -4 -40 -23.5t-78 -47 t-89 -56.5t-72 -47q-14 -8 -14 -16z" />
<glyph unicode="&#xea;" horiz-adv-x="1128" d="M164 1296q0 -14 14 -14q12 0 31.5 -1t30.5 -3q45 -6 57 -28.5t16 -67.5q2 -20 3 -44t1 -65v-102v-164v-307q0 -127 -1 -225.5t-9 -151.5q-6 -39 -13 -63.5t-34 -28.5q-12 -2 -27.5 -5t-27.5 -3q-14 0 -15 -15q0 -14 29 -14q23 0 50.5 1t54.5 3q29 2 51 2h26h56 q37 0 94 -4q55 -2 133 -4t180 -2q27 0 44.5 1t27.5 5t17.5 13t11.5 26q4 14 8 39.5t8 53.5t6 49.5t2 25.5q0 10 -2 18t-10 8q-12 0 -19 -26q-8 -53 -27.5 -79t-53.5 -42q-35 -14 -90.5 -16.5t-90.5 -2.5q-68 0 -108.5 5.5t-64 20.5t-32 43t-10.5 71v51v88v90v68v145 q0 12 13 12h49t80 -1t84 -3t59 -4q53 -6 70.5 -20.5t21.5 -32.5q6 -16 7 -30.5t1 -26.5q0 -16 13 -17q10 0 13 11.5t3 21.5t2 48t6 65q4 43 9.5 65.5t5.5 30.5q0 14 -11 14q-4 0 -26 -22q-14 -14 -35 -17.5t-53 -7.5q-16 -2 -61.5 -3t-96.5 -1h-94h-49q-10 0 -11 18v474 q0 18 11 18h45t81 -1t82.5 -2t51.5 -3q37 -4 59.5 -9t36.5 -11.5t21.5 -14.5t11.5 -18q6 -16 8 -34t2 -28q0 -23 14 -22q6 0 10.5 6t6.5 12q2 8 3 24.5t3 35t3 34t1 21.5q4 37 9 54t5 28q0 16 -8 16q-6 0 -12 -3t-13 -5q-10 -2 -32.5 -5t-49.5 -5h-45h-81h-101h-96h-74h-33 q-4 0 -25.5 1t-51.5 1q-31 0 -66 1t-65 1q-29 0 -29 -15zM315 1454q0 -16 15 -16q14 0 37 20q18 14 40.5 33.5t46 37t46 33t41.5 25.5q20 10 32 10q4 0 21 -8q8 -6 30.5 -22.5t49 -37t51.5 -43t41 -38.5q8 -10 16 -10q6 0 19 12l43 45q4 4 7 9t3 9t-25 21q-10 8 -40.5 31.5 t-65.5 49t-64.5 48.5t-35.5 27q-12 10 -19.5 15t-13.5 5q-10 0 -33 -20q-8 -8 -42 -39t-73 -68t-72.5 -67.5t-41.5 -38.5q-4 -6 -8.5 -11.5t-4.5 -11.5z" />
<glyph unicode="&#xeb;" horiz-adv-x="1128" d="M164 1296q0 -14 14 -14q12 0 31.5 -1t30.5 -3q45 -6 57 -28.5t16 -67.5q2 -20 3 -44t1 -65v-102v-164v-307q0 -127 -1 -225.5t-9 -151.5q-6 -39 -13 -63.5t-34 -28.5q-12 -2 -27.5 -5t-27.5 -3q-14 0 -15 -15q0 -14 29 -14q23 0 50.5 1t54.5 3q29 2 51 2h26h56 q37 0 94 -4q55 -2 133 -4t180 -2q27 0 44.5 1t27.5 5t17.5 13t11.5 26q4 14 8 39.5t8 53.5t6 49.5t2 25.5q0 10 -2 18t-10 8q-12 0 -19 -26q-8 -53 -27.5 -79t-53.5 -42q-35 -14 -90.5 -16.5t-90.5 -2.5q-68 0 -108.5 5.5t-64 20.5t-32 43t-10.5 71v51v88v90v68v145 q0 12 13 12h49t80 -1t84 -3t59 -4q53 -6 70.5 -20.5t21.5 -32.5q6 -16 7 -30.5t1 -26.5q0 -16 13 -17q10 0 13 11.5t3 21.5t2 48t6 65q4 43 9.5 65.5t5.5 30.5q0 14 -11 14q-4 0 -26 -22q-14 -14 -35 -17.5t-53 -7.5q-16 -2 -61.5 -3t-96.5 -1h-94h-49q-10 0 -11 18v474 q0 18 11 18h45t81 -1t82.5 -2t51.5 -3q37 -4 59.5 -9t36.5 -11.5t21.5 -14.5t11.5 -18q6 -16 8 -34t2 -28q0 -23 14 -22q6 0 10.5 6t6.5 12q2 8 3 24.5t3 35t3 34t1 21.5q4 37 9 54t5 28q0 16 -8 16q-6 0 -12 -3t-13 -5q-10 -2 -32.5 -5t-49.5 -5h-45h-81h-101h-96h-74h-33 q-4 0 -25.5 1t-51.5 1q-31 0 -66 1t-65 1q-29 0 -29 -15zM270 1552q0 -29 19.5 -58.5t66.5 -29.5q41 0 65.5 27t24.5 68q0 39 -25.5 60t-62.5 21q-47 0 -67.5 -29.5t-20.5 -58.5zM682 1552q0 -29 19.5 -58.5t66.5 -29.5q41 0 65.5 27t24.5 68q0 39 -25.5 60t-62.5 21 q-47 0 -67.5 -29.5t-20.5 -58.5z" />
<glyph unicode="&#xec;" horiz-adv-x="796" d="M72 1620q0 -12 59 -35q8 -4 36 -13t66.5 -23.5t81.5 -29t81 -26.5t67 -20.5t39 -8.5q18 0 18 11q0 6 -11 12t-28 16q-31 20 -64.5 44t-61 45.5t-48 38t-26.5 22.5q-14 14 -18.5 23.5t-12.5 9.5q-6 0 -13.5 -3.5t-19.5 -7.5q-18 -8 -54 -18t-69 -21q-23 -6 -22 -16z M186 1296q0 -14 15 -14q10 0 24.5 -1t30.5 -5q29 -6 41 -27.5t16 -66.5q2 -20 3 -44t1 -65v-102v-164v-307q0 -127 -2 -225.5t-8 -151.5q-4 -39 -12 -62.5t-35 -29.5q-12 -4 -27.5 -6t-27.5 -2q-14 0 -15 -15q0 -14 29 -14q20 0 49 1t56.5 2t48 2t24.5 1q2 0 23.5 -1 t54.5 -2t72 -2t76 -1q29 0 28 14q0 14 -14 15q-12 0 -37 2t-45 6q-41 6 -51 29.5t-15 62.5q-6 53 -7 151.5t-1 225.5v307v164v102q0 41 1 64.5t1 44.5q4 47 15.5 67.5t48.5 28.5q16 4 24 4h21q14 0 14 14t-28 15q-20 0 -50 -1t-59 -1q-27 0 -48.5 -1t-23.5 -1q-4 0 -24.5 1 t-48.5 1q-27 0 -56.5 1t-52.5 1q-29 0 -29 -15z" />
<glyph unicode="&#xed;" horiz-adv-x="796" d="M186 1296q0 -14 15 -14q10 0 24.5 -1t30.5 -5q29 -6 41 -27.5t16 -66.5q2 -20 3 -44t1 -65v-102v-164v-307q0 -127 -2 -225.5t-8 -151.5q-4 -39 -12 -62.5t-35 -29.5q-12 -4 -27.5 -6t-27.5 -2q-14 0 -15 -15q0 -14 29 -14q20 0 49 1t56.5 2t48 2t24.5 1q2 0 23.5 -1 t54.5 -2t72 -2t76 -1q29 0 28 14q0 14 -14 15q-12 0 -37 2t-45 6q-41 6 -51 29.5t-15 62.5q-6 53 -7 151.5t-1 225.5v307v164v102q0 41 1 64.5t1 44.5q4 47 15.5 67.5t48.5 28.5q16 4 24 4h21q14 0 14 14t-28 15q-20 0 -50 -1t-59 -1q-27 0 -48.5 -1t-23.5 -1q-4 0 -24.5 1 t-48.5 1q-27 0 -56.5 1t-52.5 1q-29 0 -29 -15zM289 1477q0 -12 10 -13q6 0 31 11q25 10 62.5 23t80.5 25.5t87 22.5t81 15q27 4 42 2t19 -2q6 0 11.5 5t-2.5 19q-16 31 -29 52.5t-23 37.5q-12 18 -20 19q-8 0 -19.5 -5.5t-37.5 -21.5q-6 -4 -40 -23.5t-78 -47t-89 -56.5 t-72 -47q-14 -8 -14 -16z" />
<glyph unicode="&#xee;" horiz-adv-x="796" d="M129 1454q0 -16 14 -16t37 20q18 14 41 33.5t46.5 37t46 33t40.5 25.5q20 10 33 10q4 0 21 -8q8 -6 30.5 -22.5t49 -37t51 -43t41.5 -38.5q8 -10 16 -10q6 0 18 12l43 45q4 4 7.5 9t3.5 9t-25 21q-10 8 -41 31.5t-65.5 49t-64.5 48.5t-36 27q-12 10 -19 15t-14 5 q-10 0 -32 -20q-8 -8 -42 -39t-73 -68t-72.5 -67.5t-42.5 -38.5q-4 -6 -8 -11.5t-4 -11.5zM186 1296q0 -14 15 -14q10 0 24.5 -1t30.5 -5q29 -6 41 -27.5t16 -66.5q2 -20 3 -44t1 -65v-102v-164v-307q0 -127 -2 -225.5t-8 -151.5q-4 -39 -12 -62.5t-35 -29.5 q-12 -4 -27.5 -6t-27.5 -2q-14 0 -15 -15q0 -14 29 -14q20 0 49 1t56.5 2t48 2t24.5 1q2 0 23.5 -1t54.5 -2t72 -2t76 -1q29 0 28 14q0 14 -14 15q-12 0 -37 2t-45 6q-41 6 -51 29.5t-15 62.5q-6 53 -7 151.5t-1 225.5v307v164v102q0 41 1 64.5t1 44.5q4 47 15.5 67.5 t48.5 28.5q16 4 24 4h21q14 0 14 14t-28 15q-20 0 -50 -1t-59 -1q-27 0 -48.5 -1t-23.5 -1q-4 0 -24.5 1t-48.5 1q-27 0 -56.5 1t-52.5 1q-29 0 -29 -15z" />
<glyph unicode="&#xef;" horiz-adv-x="796" d="M104 1552q0 -29 19.5 -58.5t66.5 -29.5q41 0 66 27t25 68q0 39 -26 60t-62 21q-47 0 -68 -29.5t-21 -58.5zM186 1296q0 -14 15 -14q10 0 24.5 -1t30.5 -5q29 -6 41 -27.5t16 -66.5q2 -20 3 -44t1 -65v-102v-164v-307q0 -127 -2 -225.5t-8 -151.5q-4 -39 -12 -62.5 t-35 -29.5q-12 -4 -27.5 -6t-27.5 -2q-14 0 -15 -15q0 -14 29 -14q20 0 49 1t56.5 2t48 2t24.5 1q2 0 23.5 -1t54.5 -2t72 -2t76 -1q29 0 28 14q0 14 -14 15q-12 0 -37 2t-45 6q-41 6 -51 29.5t-15 62.5q-6 53 -7 151.5t-1 225.5v307v164v102q0 41 1 64.5t1 44.5 q4 47 15.5 67.5t48.5 28.5q16 4 24 4h21q14 0 14 14t-28 15q-20 0 -50 -1t-59 -1q-27 0 -48.5 -1t-23.5 -1q-4 0 -24.5 1t-48.5 1q-27 0 -56.5 1t-52.5 1q-29 0 -29 -15zM516 1552q0 -29 19.5 -58.5t66.5 -29.5q41 0 65.5 27t24.5 68q0 39 -25.5 60t-62.5 21 q-47 0 -67.5 -29.5t-20.5 -58.5z" />
<glyph unicode="&#xf0;" horiz-adv-x="1656" d="M150 643q-4 -18 12 -18h155v-125q0 -127 -1 -225.5t-9 -151.5q-6 -39 -13 -62.5t-34 -29.5q-12 -4 -27.5 -6t-27.5 -2q-14 0 -15 -15q0 -14 29 -14q23 0 50.5 1t56.5 3q29 0 48 1t23 1q6 0 48 -3t102 -7q59 -4 126.5 -7t127.5 -3q115 0 204 20t155.5 50t112.5 65t75 65 q37 39 72.5 89t62 111.5t43 134.5t16.5 155q0 156 -54 265t-122 177q-80 80 -177 122t-196.5 58.5t-190.5 17.5t-159 1q-41 0 -81 -1t-75 -1q-33 0 -57 -1t-33 -1q-4 0 -24.5 1t-50.5 1q-29 0 -64 1t-65 1q-29 0 -29 -15q0 -14 14 -14q12 0 31.5 -1t30.5 -3q45 -6 57 -28.5 t16 -67.5q2 -20 3 -44t1 -65v-102v-164v-115h-139q-20 0 -22 -14zM481 340v190v93h346q8 0 15.5 2t9.5 12l6 39q6 18 -12 18h-365v504q0 27 23 35q8 6 42 9t64 3q82 0 160 -6t151.5 -26.5t143.5 -59.5t133 -102q27 -29 56.5 -69t54 -93t41 -122t16.5 -151q0 -59 -8 -118.5 t-25.5 -113.5t-44 -100t-61.5 -79q-80 -78 -189.5 -119t-234.5 -41q-80 0 -133.5 6t-87 16.5t-52 22.5t-26.5 25q-10 14 -14.5 53t-6.5 72q-2 23 -2 100z" />
<glyph unicode="&#xf1;" horiz-adv-x="1705" d="M141 8q0 -14 29 -14q61 0 111.5 3t62.5 3t62.5 -3t128.5 -3q33 0 32 14q0 14 -14 15q-12 0 -39 2t-51 8q-18 4 -30.5 15t-21 34.5t-12.5 59.5t-6 89l-20 822q20 -23 66 -72t109.5 -115.5t138.5 -145.5t153 -161q72 -74 151.5 -154.5t147 -149.5t116 -115t54.5 -52 q37 -35 60.5 -55.5t38.5 -31.5t23.5 -15t14.5 -4q4 0 7 3t4 16t2 37.5t1 67.5l4 1020q0 39 2 66t8.5 44t18.5 27.5t35 14.5q16 4 26 4h17q10 0 15 6t5 10q0 12 -32 13q-55 0 -96.5 -2t-57.5 -2t-71.5 2t-116.5 2q-35 0 -35 -13q0 -4 2 -10t12 -6t37 -2t51 -6q41 -8 53.5 -43 t14.5 -119l18 -872q-20 20 -64 67t-102.5 108.5t-125 132t-134.5 140.5q-104 106 -202.5 208.5t-176.5 184.5t-129 136.5t-61 64.5l-33.5 33.5t-36.5 19.5q-10 0 -17 -17.5t-7 -70.5v-997q0 -59 -2.5 -99t-7.5 -65t-15 -37t-27 -16q-20 -6 -41.5 -8t-31.5 -2q-14 0 -15 -15z M530 1485q0 -12 13 -12q12 0 28 18q6 6 15.5 18.5t25 24.5t37 21.5t47.5 9.5q47 0 79 -17.5t61 -29.5q23 -10 66.5 -32t94.5 -22q25 0 51.5 17.5t51 41t43 47t24.5 36.5q8 16 9 26q0 12 -15 13q-10 0 -24 -23q-2 -4 -11.5 -13.5t-25 -19.5t-38 -18t-50.5 -8q-25 0 -61 12 t-58 22q-47 23 -91 43.5t-81 20.5q-25 0 -51.5 -16.5t-51 -40t-44 -48t-29.5 -40.5q-6 -10 -10.5 -16.5t-4.5 -14.5z" />
<glyph unicode="&#xf2;" horiz-adv-x="1654" d="M113 655q0 -117 41 -238.5t127 -221t219 -162t317 -62.5q162 0 296 56.5t228.5 152.5t146.5 226.5t52 275.5q0 152 -54 272.5t-149.5 205.5t-226.5 130t-283 45q-186 0 -321 -66.5t-222 -168t-129 -221.5t-42 -224zM299 702q0 141 39 248t107.5 177.5t164 106.5t207.5 36 q106 0 203.5 -41t172.5 -121t119 -200t44 -275q0 -188 -53.5 -304t-130 -179.5t-159.5 -85t-145 -21.5q-123 0 -226 46t-180 132t-120 207.5t-43 273.5zM502 1620q0 -12 59 -35q8 -4 36 -13t66.5 -23.5t81.5 -29t81 -26.5t67 -20.5t39 -8.5q18 0 18 11q0 6 -11 12t-28 16 q-31 20 -64.5 44t-61 45.5t-48 38t-26.5 22.5q-14 14 -18.5 23.5t-12.5 9.5q-6 0 -13.5 -3.5t-19.5 -7.5q-18 -8 -54 -18t-69 -21q-23 -6 -22 -16z" />
<glyph unicode="&#xf3;" horiz-adv-x="1654" d="M113 655q0 -117 41 -238.5t127 -221t219 -162t317 -62.5q162 0 296 56.5t228.5 152.5t146.5 226.5t52 275.5q0 152 -54 272.5t-149.5 205.5t-226.5 130t-283 45q-186 0 -321 -66.5t-222 -168t-129 -221.5t-42 -224zM299 702q0 141 39 248t107.5 177.5t164 106.5t207.5 36 q106 0 203.5 -41t172.5 -121t119 -200t44 -275q0 -188 -53.5 -304t-130 -179.5t-159.5 -85t-145 -21.5q-123 0 -226 46t-180 132t-120 207.5t-43 273.5zM719 1477q0 -12 10 -13q6 0 31 11q25 10 62.5 23t80.5 25.5t87 22.5t81 15q27 4 42 2t20 -2q6 0 11 5t-3 19 q-16 31 -28.5 52.5t-22.5 37.5q-12 18 -21 19q-8 0 -19.5 -5.5t-37.5 -21.5q-6 -4 -40 -23.5t-78 -47t-89 -56.5t-72 -47q-14 -8 -14 -16z" />
<glyph unicode="&#xf4;" horiz-adv-x="1654" d="M113 655q0 -117 41 -238.5t127 -221t219 -162t317 -62.5q162 0 296 56.5t228.5 152.5t146.5 226.5t52 275.5q0 152 -54 272.5t-149.5 205.5t-226.5 130t-283 45q-186 0 -321 -66.5t-222 -168t-129 -221.5t-42 -224zM299 702q0 141 39 248t107.5 177.5t164 106.5t207.5 36 q106 0 203.5 -41t172.5 -121t119 -200t44 -275q0 -188 -53.5 -304t-130 -179.5t-159.5 -85t-145 -21.5q-123 0 -226 46t-180 132t-120 207.5t-43 273.5zM559 1454q0 -16 14 -16t37 20q18 14 41 33.5t46.5 37t46 33t40.5 25.5q20 10 33 10q4 0 21 -8q8 -6 30.5 -22.5t49 -37 t51 -43t41.5 -38.5q8 -10 16 -10q6 0 18 12l43 45q4 4 7.5 9t3.5 9t-25 21q-10 8 -41 31.5t-65.5 49t-64.5 48.5t-36 27q-12 10 -19 15t-13 5q-10 0 -33 -20q-8 -8 -42 -39t-73 -68t-72.5 -67.5t-42.5 -38.5q-4 -6 -8 -11.5t-4 -11.5z" />
<glyph unicode="&#xf5;" horiz-adv-x="1654" d="M113 655q0 -117 41 -238.5t127 -221t219 -162t317 -62.5q162 0 296 56.5t228.5 152.5t146.5 226.5t52 275.5q0 152 -54 272.5t-149.5 205.5t-226.5 130t-283 45q-186 0 -321 -66.5t-222 -168t-129 -221.5t-42 -224zM299 702q0 141 39 248t107.5 177.5t164 106.5t207.5 36 q106 0 203.5 -41t172.5 -121t119 -200t44 -275q0 -188 -53.5 -304t-130 -179.5t-159.5 -85t-145 -21.5q-123 0 -226 46t-180 132t-120 207.5t-43 273.5zM524 1485q0 -12 13 -12q12 0 28 18q6 6 15.5 18.5t25 24.5t37 21.5t47.5 9.5q47 0 79 -17.5t60 -29.5q23 -10 67 -32 t95 -22q25 0 51.5 17.5t51 41t43 47t24.5 36.5q8 16 8 26q0 12 -14 13q-10 0 -25 -23q-2 -4 -11 -13.5t-24.5 -19.5t-38 -18t-50.5 -8q-25 0 -61 12t-58 22q-47 23 -91 43.5t-81 20.5q-25 0 -51.5 -16.5t-51 -40t-44 -48t-29.5 -40.5q-6 -10 -10.5 -16.5t-4.5 -14.5z" />
<glyph unicode="&#xf6;" horiz-adv-x="1654" d="M113 655q0 -117 41 -238.5t127 -221t219 -162t317 -62.5q162 0 296 56.5t228.5 152.5t146.5 226.5t52 275.5q0 152 -54 272.5t-149.5 205.5t-226.5 130t-283 45q-186 0 -321 -66.5t-222 -168t-129 -221.5t-42 -224zM299 702q0 141 39 248t107.5 177.5t164 106.5t207.5 36 q106 0 203.5 -41t172.5 -121t119 -200t44 -275q0 -188 -53.5 -304t-130 -179.5t-159.5 -85t-145 -21.5q-123 0 -226 46t-180 132t-120 207.5t-43 273.5zM535 1552q0 -29 19.5 -58.5t66.5 -29.5q41 0 65.5 27t24.5 68q0 39 -26 60t-62 21q-47 0 -67.5 -29.5t-20.5 -58.5z M946 1552q0 -29 19.5 -58.5t66.5 -29.5q41 0 65.5 27t24.5 68q0 39 -25.5 60t-62.5 21q-47 0 -67.5 -29.5t-20.5 -58.5z" />
<glyph unicode="&#xf7;" horiz-adv-x="1044" d="M86 498h872v104h-872v-104zM426 238q0 -43 27.5 -73t70.5 -30v2q47 0 77 30t28 75q0 43 -30 71.5t-75 28.5q-43 0 -70.5 -28.5t-27.5 -75.5zM426 858q0 -43 27.5 -72.5t70.5 -29.5l2 2q47 0 76 29.5t27 74.5q0 43 -30 72t-75 29q-43 0 -70.5 -29t-27.5 -76z" />
<glyph unicode="&#xf8;" horiz-adv-x="1654" d="M113 655q0 -129 46 -260t146 -229l-158 -162q-8 -8 5 -18l41 -35q12 -10 18 0l156 164q82 -66 194.5 -105t257.5 -39q162 0 295 56.5t228.5 152.5t146.5 226.5t51 275.5t-48 259t-134 200l145 149q6 6 7 10.5t-7 12.5l-35 35q-16 16 -26 4l-150 -160q-92 70 -205.5 106.5 t-261.5 36.5q-186 0 -321 -66.5t-222 -168t-128 -221t-41 -224.5zM297 702q0 141 39 248t107.5 177.5t162.5 106.5t207 36q111 0 210 -42t177 -130l-784 -824q-119 172 -119 428zM465 215l786 819q49 -78 76 -177t27 -224t-24.5 -217t-64.5 -157.5t-92.5 -107.5t-106.5 -66 t-106.5 -33t-93.5 -9q-246 0 -401 172z" />
<glyph unicode="&#xf9;" horiz-adv-x="1499" d="M72 1296q0 -14 14 -14q12 0 31.5 -1t29.5 -3q45 -6 57.5 -30.5t16.5 -65.5q2 -20 3 -44t1 -65v-102v-164v-256q0 -96 12.5 -168t34 -125t50 -93t61.5 -71q47 -45 103.5 -69.5t109.5 -37t96 -14.5t66 -2q39 0 85 4.5t94 17.5t98 37.5t100 67.5q53 45 85.5 106.5t51 130 t25 141.5t6.5 145v186v164v102v64q0 25 2 45q4 43 15 65.5t48 30.5q16 4 25 4h20q14 0 14 14t-28 15q-41 0 -91.5 -2t-60.5 -2q-4 0 -23.5 1t-47.5 1q-27 0 -60 1t-63 1q-29 0 -29 -15q0 -14 14 -14q12 0 32 -1t30 -3q45 -6 57 -30.5t14 -65.5q0 -20 1.5 -44t2.5 -64t1 -103 v-164v-219q0 -135 -19.5 -240.5t-83.5 -181.5q-47 -55 -120.5 -89t-157.5 -34q-78 0 -140.5 17.5t-128.5 76.5q-29 27 -53 60.5t-41.5 84t-28 119t-10.5 162.5v244v164v102q0 41 1 64.5t3 44.5q4 43 15.5 66.5t46.5 29.5q16 4 24 4h21q16 0 16 14t-31 15q-20 0 -48.5 -1 t-57.5 -1q-27 0 -48.5 -1t-27.5 -1t-27.5 1t-52.5 1q-29 0 -62.5 1t-64.5 1q-29 0 -28 -15zM463 1620q0 -12 59 -35q8 -4 36 -13t67 -23.5t82 -29t80.5 -26.5t66.5 -20.5t39 -8.5q18 0 18 11q0 6 -11 12t-28 16q-31 20 -64.5 44t-61 45.5t-48 38t-26.5 22.5 q-14 14 -18.5 23.5t-12.5 9.5q-6 0 -13 -3.5t-20 -7.5q-18 -8 -54 -18t-69 -21q-23 -6 -22 -16z" />
<glyph unicode="&#xfa;" horiz-adv-x="1499" d="M72 1296q0 -14 14 -14q12 0 31.5 -1t29.5 -3q45 -6 57.5 -30.5t16.5 -65.5q2 -20 3 -44t1 -65v-102v-164v-256q0 -96 12.5 -168t34 -125t50 -93t61.5 -71q47 -45 103.5 -69.5t109.5 -37t96 -14.5t66 -2q39 0 85 4.5t94 17.5t98 37.5t100 67.5q53 45 85.5 106.5t51 130 t25 141.5t6.5 145v186v164v102v64q0 25 2 45q4 43 15 65.5t48 30.5q16 4 25 4h20q14 0 14 14t-28 15q-41 0 -91.5 -2t-60.5 -2q-4 0 -23.5 1t-47.5 1q-27 0 -60 1t-63 1q-29 0 -29 -15q0 -14 14 -14q12 0 32 -1t30 -3q45 -6 57 -30.5t14 -65.5q0 -20 1.5 -44t2.5 -64t1 -103 v-164v-219q0 -135 -19.5 -240.5t-83.5 -181.5q-47 -55 -120.5 -89t-157.5 -34q-78 0 -140.5 17.5t-128.5 76.5q-29 27 -53 60.5t-41.5 84t-28 119t-10.5 162.5v244v164v102q0 41 1 64.5t3 44.5q4 43 15.5 66.5t46.5 29.5q16 4 24 4h21q16 0 16 14t-31 15q-20 0 -48.5 -1 t-57.5 -1q-27 0 -48.5 -1t-27.5 -1t-27.5 1t-52.5 1q-29 0 -62.5 1t-64.5 1q-29 0 -28 -15zM641 1477q0 -12 10 -13q6 0 31 11q25 10 62.5 23t80.5 25.5t87 22.5t81 15q27 4 42.5 2t19.5 -2q6 0 11 5t-3 19q-16 31 -28.5 52.5t-22.5 37.5q-12 18 -21 19q-8 0 -19 -5.5 t-38 -21.5q-6 -4 -40 -23.5t-78 -47t-89 -56.5t-72 -47q-14 -8 -14 -16z" />
<glyph unicode="&#xfb;" horiz-adv-x="1499" d="M72 1296q0 -14 14 -14q12 0 31.5 -1t29.5 -3q45 -6 57.5 -30.5t16.5 -65.5q2 -20 3 -44t1 -65v-102v-164v-256q0 -96 12.5 -168t34 -125t50 -93t61.5 -71q47 -45 103.5 -69.5t109.5 -37t96 -14.5t66 -2q39 0 85 4.5t94 17.5t98 37.5t100 67.5q53 45 85.5 106.5t51 130 t25 141.5t6.5 145v186v164v102v64q0 25 2 45q4 43 15 65.5t48 30.5q16 4 25 4h20q14 0 14 14t-28 15q-41 0 -91.5 -2t-60.5 -2q-4 0 -23.5 1t-47.5 1q-27 0 -60 1t-63 1q-29 0 -29 -15q0 -14 14 -14q12 0 32 -1t30 -3q45 -6 57 -30.5t14 -65.5q0 -20 1.5 -44t2.5 -64t1 -103 v-164v-219q0 -135 -19.5 -240.5t-83.5 -181.5q-47 -55 -120.5 -89t-157.5 -34q-78 0 -140.5 17.5t-128.5 76.5q-29 27 -53 60.5t-41.5 84t-28 119t-10.5 162.5v244v164v102q0 41 1 64.5t3 44.5q4 43 15.5 66.5t46.5 29.5q16 4 24 4h21q16 0 16 14t-31 15q-20 0 -48.5 -1 t-57.5 -1q-27 0 -48.5 -1t-27.5 -1t-27.5 1t-52.5 1q-29 0 -62.5 1t-64.5 1q-29 0 -28 -15zM481 1454q0 -16 15 -16q14 0 36 20q18 14 41 33.5t46.5 37t46 33t41.5 25.5q20 10 32 10q4 0 21 -8q8 -6 30.5 -22.5t49 -37t51 -43t41.5 -38.5q8 -10 16 -10q6 0 19 12l43 45 q4 4 7 9t3 9t-25 21q-10 8 -40.5 31.5t-65.5 49t-64.5 48.5t-36.5 27q-12 10 -19 15t-13 5q-10 0 -33 -20q-8 -8 -42 -39t-73 -68t-72.5 -67.5t-41.5 -38.5q-4 -6 -8.5 -11.5t-4.5 -11.5z" />
<glyph unicode="&#xfc;" horiz-adv-x="1499" d="M72 1296q0 -14 14 -14q12 0 31.5 -1t29.5 -3q45 -6 57.5 -30.5t16.5 -65.5q2 -20 3 -44t1 -65v-102v-164v-256q0 -96 12.5 -168t34 -125t50 -93t61.5 -71q47 -45 103.5 -69.5t109.5 -37t96 -14.5t66 -2q39 0 85 4.5t94 17.5t98 37.5t100 67.5q53 45 85.5 106.5t51 130 t25 141.5t6.5 145v186v164v102v64q0 25 2 45q4 43 15 65.5t48 30.5q16 4 25 4h20q14 0 14 14t-28 15q-41 0 -91.5 -2t-60.5 -2q-4 0 -23.5 1t-47.5 1q-27 0 -60 1t-63 1q-29 0 -29 -15q0 -14 14 -14q12 0 32 -1t30 -3q45 -6 57 -30.5t14 -65.5q0 -20 1.5 -44t2.5 -64t1 -103 v-164v-219q0 -135 -19.5 -240.5t-83.5 -181.5q-47 -55 -120.5 -89t-157.5 -34q-78 0 -140.5 17.5t-128.5 76.5q-29 27 -53 60.5t-41.5 84t-28 119t-10.5 162.5v244v164v102q0 41 1 64.5t3 44.5q4 43 15.5 66.5t46.5 29.5q16 4 24 4h21q16 0 16 14t-31 15q-20 0 -48.5 -1 t-57.5 -1q-27 0 -48.5 -1t-27.5 -1t-27.5 1t-52.5 1q-29 0 -62.5 1t-64.5 1q-29 0 -28 -15zM496 1552q0 -29 19.5 -58.5t66.5 -29.5q41 0 65.5 27t24.5 68q0 39 -25.5 60t-62.5 21q-47 0 -67.5 -29.5t-20.5 -58.5zM907 1552q0 -29 19.5 -58.5t66.5 -29.5q41 0 65.5 27 t24.5 68q0 39 -25.5 60t-62.5 21q-47 0 -67.5 -29.5t-20.5 -58.5z" />
<glyph unicode="&#xfd;" horiz-adv-x="1179" d="M-49 1298q0 -16 18 -16q10 0 33 -6t43 -19q25 -16 55.5 -46.5t63.5 -80.5q14 -23 43 -67.5t63.5 -99t70.5 -110.5t66.5 -105.5t51 -83t24.5 -39.5q20 -37 29.5 -73t9.5 -106v-149v-72t-4 -102q-4 -39 -14 -62.5t-39 -29.5q-12 -4 -26.5 -6t-26.5 -2q-14 0 -15 -15 q0 -14 29 -14q20 0 49 1t56.5 2t47 2t23.5 1t25.5 -1t54.5 -2t72 -2t75 -1q29 0 29 14t-14 15q-12 0 -38 2t-44 6q-41 6 -53.5 29.5t-16.5 62.5q-4 53 -5 102t-1 72v149v84q0 43 23 91q8 18 33.5 61t59.5 99.5t72.5 118t74.5 116.5t65.5 97t44.5 61q29 35 46 52t44 34 q23 12 45.5 17t38.5 5q10 0 16 6t6 12q0 10 -22 11q-12 0 -40 -1t-56 -1q-29 0 -52.5 -1t-27.5 -1q-10 0 -50 2t-75 2q-29 0 -29 -11q0 -14 27 -20q29 -8 28 -45q0 -16 -7 -38.5t-23 -51.5q-8 -14 -31 -52t-52.5 -88.5t-63 -105.5t-63.5 -106.5t-53.5 -92.5t-31.5 -59 l-328 543q-10 16 -17 32.5t-7 34.5t22 29q29 10 29 18q0 6 -4 9.5t-21 3.5q-53 0 -99 -2t-56 -2q-4 0 -27 1t-53 1q-29 0 -57.5 1t-41.5 1q-23 0 -22 -13zM481 1477q0 -12 11 -13q6 0 30 11q25 10 63 23t81 25.5t87 22.5t81 15q27 4 42 2t19 -2q6 0 11 5t-3 19 q-16 31 -28.5 52.5t-22.5 37.5q-12 18 -21 19q-8 0 -19 -5.5t-38 -21.5q-6 -4 -40 -23.5t-78 -47t-89 -56.5t-71 -47q-14 -8 -15 -16z" />
<glyph unicode="&#xfe;" horiz-adv-x="1200" d="M164 1296q0 -14 14 -14q12 0 31.5 -1t30.5 -3q41 -6 55 -28.5t18 -67.5q2 -20 3 -44t1 -65v-102v-164v-307q0 -127 -1 -225.5t-9 -151.5q-6 -39 -14 -62.5t-35 -29.5q-12 -4 -26.5 -6t-26.5 -2q-14 0 -15 -15q0 -14 29 -14q20 0 49 1t56.5 2t47 2t21.5 1t24.5 -1t54.5 -2 t71 -2t75 -1q29 0 29 14t-14 15q-12 0 -36 2t-42 6q-41 6 -53.5 29.5t-16.5 62.5q-6 53 -7 151.5t-1 225.5v430q0 27 15 33q14 4 32.5 8t40.5 4h45t67 -7t75 -24.5t73 -50.5q33 -33 53.5 -70t31 -70.5t13.5 -62t3 -45.5q0 -66 -27 -120t-71 -94t-103 -62.5t-125 -22.5 q-29 0 -38 -5t-9 -15q0 -6 6 -9.5t12 -3.5q8 -2 21 -2h22q96 0 181.5 29t150 82t102 128t37.5 167q0 70 -31.5 128t-62.5 85q-16 14 -42.5 31.5t-68.5 33t-102.5 25.5t-144.5 10q-53 0 -87 -1t-69 -5q0 27 1 68t3 96q0 76 76 88q18 4 38.5 5t31.5 1q6 0 11 6t5 10 q0 12 -31 13q-33 0 -69.5 -1t-67.5 -1t-52.5 -1t-25.5 -1q-6 0 -26.5 1t-51.5 1q-29 0 -62.5 1t-63.5 1q-29 0 -29 -15z" />
<glyph unicode="&#xff;" horiz-adv-x="1179" d="M-49 1298q0 -16 18 -16q10 0 33 -6t43 -19q25 -16 55.5 -46.5t63.5 -80.5q14 -23 43 -67.5t63.5 -99t70.5 -110.5t66.5 -105.5t51 -83t24.5 -39.5q20 -37 29.5 -73t9.5 -106v-149v-72t-4 -102q-4 -39 -14 -62.5t-39 -29.5q-12 -4 -26.5 -6t-26.5 -2q-14 0 -15 -15 q0 -14 29 -14q20 0 49 1t56.5 2t47 2t23.5 1t25.5 -1t54.5 -2t72 -2t75 -1q29 0 29 14t-14 15q-12 0 -38 2t-44 6q-41 6 -53.5 29.5t-16.5 62.5q-4 53 -5 102t-1 72v149v84q0 43 23 91q8 18 33.5 61t59.5 99.5t72.5 118t74.5 116.5t65.5 97t44.5 61q29 35 46 52t44 34 q23 12 45.5 17t38.5 5q10 0 16 6t6 12q0 10 -22 11q-12 0 -40 -1t-56 -1q-29 0 -52.5 -1t-27.5 -1q-10 0 -50 2t-75 2q-29 0 -29 -11q0 -14 27 -20q29 -8 28 -45q0 -16 -7 -38.5t-23 -51.5q-8 -14 -31 -52t-52.5 -88.5t-63 -105.5t-63.5 -106.5t-53.5 -92.5t-31.5 -59 l-328 543q-10 16 -17 32.5t-7 34.5t22 29q29 10 29 18q0 6 -4 9.5t-21 3.5q-53 0 -99 -2t-56 -2q-4 0 -27 1t-53 1q-29 0 -57.5 1t-41.5 1q-23 0 -22 -13zM315 1552q0 -29 19.5 -58.5t66.5 -29.5q41 0 66 27t25 68q0 39 -26 60t-63 21q-47 0 -67.5 -29.5t-20.5 -58.5z M727 1552q0 -29 19.5 -58.5t66.5 -29.5q41 0 65.5 27t24.5 68q0 39 -25.5 60t-62.5 21q-47 0 -67.5 -29.5t-20.5 -58.5z" />
<glyph unicode="&#x152;" horiz-adv-x="2430" d="M131 768q0 -139 45 -281.5t142.5 -258t248 -189.5t359.5 -74q150 0 257 36t181 83t118 95t64 71h6l-4 -180q0 -23 -3 -36.5t-3 -25.5q0 -14 21 -14q8 0 14 1t14 3q10 0 19.5 1t21.5 1q23 0 62 -1t98 -5q59 -2 144 -4t202 -2q31 0 49.5 1t30.5 6t18.5 15t12.5 31 q4 14 8 45t8 62.5t7 57t3 32.5q0 10 -1 20t-11 10q-12 0 -18 -30q-10 -63 -31 -96t-62 -50q-41 -16 -98 -19t-98 -3q-76 0 -121 6t-70.5 24.5t-35 50t-11.5 85.5v65v111v133v127v92q0 18 15 18h51h86t85 -1t56 -3q61 -6 88 -27.5t33 -43.5q4 -16 5 -28.5t1 -21.5 q4 -23 16 -22q10 0 12.5 12t2.5 21q0 10 2 48t6 68q4 51 10 78t6 37q0 16 -10 16q-8 0 -31 -26q-14 -16 -36.5 -20.5t-59.5 -8.5q-18 -2 -67.5 -3t-104.5 -1h-98h-55q-12 0 -13 21v565q0 25 13 24h47q41 0 88 -1t90 -2t55 -3q82 -10 108.5 -27.5t37.5 -41.5q8 -18 10 -41 t2 -33q0 -27 16 -27q6 0 9.5 7.5t5.5 15.5t3 27.5t3 41t3 40t1 26.5q4 41 10 61.5t6 30.5q0 18 -8 19q-8 0 -14 -4.5t-15 -6.5q-29 -6 -88 -10q-12 0 -50 -1t-89 -1h-109h-104h-84h-37q-12 0 -21.5 1t-19.5 3q-8 0 -13 1t-9 1q-20 0 -21 -18q0 -10 2 -30.5t2 -45.5v-133h-8 q-31 39 -82 84t-122.5 84t-167 63.5t-218.5 24.5q-143 0 -260 -36t-208 -97.5t-156.5 -141t-109.5 -169t-64.5 -182.5t-20.5 -177zM326 827q0 168 45 294t124.5 211t189.5 127t237 42q121 0 233.5 -49t199.5 -144.5t139 -236.5t52 -326q0 -150 -29.5 -259t-76.5 -187 t-107.5 -128t-124 -79t-123 -39t-106.5 -10q-137 0 -257 55.5t-208 157.5t-138 247.5t-50 323.5z" />
<glyph unicode="&#x153;" horiz-adv-x="2164" d="M113 653q0 -119 40 -239.5t126 -219t218 -161t316 -62.5q131 0 226.5 31t161 72t106.5 83t61 66h6l-4 -164q0 -18 -2 -30.5t-2 -22.5q0 -12 16 -12q12 0 21.5 3t32.5 3t57.5 -1t87.5 -3t137 -4t187 -2q27 0 43 1t26.5 5t16.5 13t10 26q4 12 8 38.5t8 53.5t6 48.5t2 27.5 q0 10 -2 17t-12 7q-12 0 -18 -24q-10 -53 -28.5 -78t-49.5 -41q-16 -8 -39 -12t-46.5 -5t-45.5 -1h-41q-66 0 -108 4t-65.5 17t-33.5 39t-12 71v55v96v115v108v74q0 16 12 17h47h78q43 0 81 -1.5t50 -3.5q53 -4 75.5 -21.5t26.5 -35.5q4 -14 5.5 -24.5t1.5 -16.5 q0 -18 16 -18q10 0 12 10t2 16q0 10 1 42t5 59q4 43 9.5 65.5t5.5 30.5q0 14 -8 14t-27 -22q-12 -14 -31.5 -16.5t-52.5 -6.5q-16 -2 -61.5 -3t-94.5 -1h-92h-49q-12 0 -12 19v471q0 23 12 22h43t80 -1t82 -2t51 -3q66 -10 90.5 -21.5t34.5 -33.5q6 -16 8 -34t2 -28 q0 -23 17 -22q4 0 8 6t6 12q2 8 3 24.5t3 35t3 35t1 22.5q4 35 9 51t5 27q0 16 -8 16q-6 0 -12 -3t-12 -5q-10 -2 -31 -6t-47 -4h-438q-23 0 -32 2t-18 2q-16 0 -16 -17q0 -10 1 -25.5t1 -37.5v-123h-6q-31 37 -77 78t-110.5 73.5t-149.5 54t-193 21.5q-188 0 -324.5 -66.5 t-224.5 -167t-130 -220t-42 -228.5zM297 702q0 141 39 248t107.5 177.5t162.5 106.5t207 36q106 0 206.5 -43t178.5 -124t125 -200t47 -270q0 -186 -56.5 -301t-136 -179.5t-166 -87t-147.5 -22.5q-121 0 -225 47t-180 134t-119 209t-43 269z" />
<glyph unicode="&#x178;" horiz-adv-x="1339" d="M-63 1528q0 -14 20 -15q14 0 40 -8t48 -24q29 -18 64.5 -56.5t74.5 -95.5q18 -27 51 -79t72 -114.5t79 -129t75 -123t57.5 -96t26.5 -48.5q10 -23 18 -43t14.5 -44.5t10.5 -55.5t4 -72v-176q0 -25 -1 -82t-5 -123q-4 -45 -18.5 -75.5t-45.5 -36.5q-14 -4 -30.5 -6 t-30.5 -2q-16 0 -17 -13q0 -16 33 -16q23 0 55.5 1t63.5 2t54.5 2t27.5 1t27.5 -1t59.5 -2t79 -2t86 -1q33 0 33 16q0 12 -17 13q-14 0 -41.5 2t-50.5 6q-47 6 -63.5 36.5t-20.5 75.5q-4 66 -5 123.5t-1 81.5v176q0 51 4 100.5t27 104.5q8 23 36.5 74t66.5 116.5t81 138 t84 137.5t73.5 115t49.5 70q35 41 56.5 63.5t51.5 41.5q25 16 51.5 22t43.5 6q27 0 26 17q0 12 -26 12q-14 0 -46 -1l-64 -2t-58.5 -2t-30.5 -1q-12 0 -53 3t-82 3q-33 0 -33 -12q0 -10 31 -21q18 -4 25 -19t7 -38q0 -20 -7 -46t-27 -58q-10 -16 -37 -61.5t-61.5 -106 t-72.5 -128t-73 -128t-60.5 -108.5t-35.5 -71q-10 14 -39 64.5t-68 117t-83 142.5t-83 142.5t-67.5 116.5t-36.5 65q-12 23 -19.5 42t-7.5 38q0 23 27 36q14 6 22.5 9.5t8.5 9.5t-5.5 10t-21.5 4q-59 0 -110.5 -3t-61.5 -3q-4 0 -30.5 1t-60.5 2t-66 2t-46 1q-27 0 -26 -14z M426 1788q0 -29 19.5 -58.5t66.5 -29.5q41 0 65.5 26.5t24.5 67.5q0 39 -25.5 60.5t-62.5 21.5q-47 0 -67.5 -29.5t-20.5 -58.5zM838 1788q0 -29 19.5 -58.5t66.5 -29.5q41 0 65.5 26.5t24.5 67.5q0 39 -25.5 60.5t-62.5 21.5q-47 0 -67.5 -29.5t-20.5 -58.5z" />
<glyph unicode="&#x2c6;" horiz-adv-x="1865" d="M664 1690q0 -16 14 -17q14 0 37 21q18 14 40.5 33.5t46 37t46 32.5t41.5 26q20 10 33 10q4 0 20 -8q8 -6 30.5 -22.5t49.5 -37t51.5 -43t40.5 -39.5q8 -10 16 -10q6 0 19 13l43 45q4 4 7 9t3 9t-24 20q-10 8 -41 32t-66 49.5t-64.5 48t-35.5 26.5q-12 10 -19.5 15.5 t-13.5 5.5q-10 0 -33 -21q-8 -8 -42 -39t-72.5 -67.5t-72.5 -67.5t-42 -39q-4 -6 -8 -11t-4 -11z" />
<glyph unicode="&#x2dc;" horiz-adv-x="1865" d="M610 1720q0 -12 13 -12q12 0 28 18q6 6 15.5 18.5t25 25t37 21.5t47.5 9q47 0 79 -17.5t60 -29.5q23 -10 67 -31.5t95 -21.5q25 0 51.5 17.5t51 41t43 47t24.5 35.5q8 16 8 27q0 12 -14 12q-10 0 -24 -22q-2 -4 -11.5 -13.5t-25 -19.5t-38 -18.5t-50.5 -8.5 q-25 0 -61 12.5t-58 22.5q-47 23 -91 43t-81 20q-25 0 -51.5 -16t-51 -39.5t-44 -48.5t-29.5 -41q-6 -10 -10.5 -16t-4.5 -15z" />
<glyph unicode="&#x2000;" horiz-adv-x="988" />
<glyph unicode="&#x2001;" horiz-adv-x="1976" />
<glyph unicode="&#x2002;" horiz-adv-x="988" />
<glyph unicode="&#x2003;" horiz-adv-x="1976" />
<glyph unicode="&#x2004;" horiz-adv-x="658" />
<glyph unicode="&#x2005;" horiz-adv-x="494" />
<glyph unicode="&#x2006;" horiz-adv-x="329" />
<glyph unicode="&#x2007;" horiz-adv-x="329" />
<glyph unicode="&#x2008;" horiz-adv-x="247" />
<glyph unicode="&#x2009;" horiz-adv-x="395" />
<glyph unicode="&#x200a;" horiz-adv-x="109" />
<glyph unicode="&#x2010;" horiz-adv-x="798" d="M74 504q-6 -31 10 -31q8 0 31.5 11.5t52.5 19.5q16 4 56 11t89 14.5t103.5 15.5t102.5 15t85 12.5t51 7.5q25 4 48.5 10t23.5 24q0 12 -17.5 16.5t-43.5 4.5h-516q-25 0 -33 -3t-13 -14z" />
<glyph unicode="&#x2011;" horiz-adv-x="798" d="M74 504q-6 -31 10 -31q8 0 31.5 11.5t52.5 19.5q16 4 56 11t89 14.5t103.5 15.5t102.5 15t85 12.5t51 7.5q25 4 48.5 10t23.5 24q0 12 -17.5 16.5t-43.5 4.5h-516q-25 0 -33 -3t-13 -14z" />
<glyph unicode="&#x2012;" horiz-adv-x="798" d="M74 504q-6 -31 10 -31q8 0 31.5 11.5t52.5 19.5q16 4 56 11t89 14.5t103.5 15.5t102.5 15t85 12.5t51 7.5q25 4 48.5 10t23.5 24q0 12 -17.5 16.5t-43.5 4.5h-516q-25 0 -33 -3t-13 -14z" />
<glyph unicode="&#x2013;" horiz-adv-x="1024" d="M0 578h1024v94h-1024v-94z" />
<glyph unicode="&#x2014;" horiz-adv-x="2048" d="M0 578h2048v94h-2048v-94z" />
<glyph unicode="&#x2018;" horiz-adv-x="409" d="M98 1260q0 -23 8.5 -33t26.5 -21q12 -4 31.5 -10t40 -12t40 -10.5t31.5 -4.5q6 0 12.5 4.5t6.5 8.5q0 8 -3 14t-16 21q-10 12 -25 49t-15 84q0 88 22.5 165.5t44.5 126.5q8 18 8 27q0 10 -10 10q-16 0 -27 -16q-27 -33 -57.5 -79t-57 -100t-44 -111.5t-17.5 -112.5z" />
<glyph unicode="&#x2019;" horiz-adv-x="409" d="M98 1180q0 -10 11 -11q16 0 26 17q27 33 57.5 79t57 100t44 111.5t17.5 112.5q0 23 -8 33t-27 20l-31.5 10.5t-40 12.5t-40 10t-31.5 4q-6 0 -12 -4t-6 -8q0 -8 3 -14t15 -21q10 -12 25.5 -49t15.5 -84q0 -88 -22.5 -166t-45.5 -127q-8 -18 -8 -26z" />
<glyph unicode="&#x201a;" horiz-adv-x="409" d="M98 -219q0 -10 11 -10q16 0 26 16q27 33 57.5 79t57 100t44 111.5t17.5 112.5q0 23 -8 33t-27 21q-12 4 -31.5 10t-40 12t-40 10.5t-31.5 4.5q-6 0 -12 -4.5t-6 -8.5q0 -8 3 -14t15 -21q10 -12 25.5 -49t15.5 -84q0 -88 -22.5 -165.5t-45.5 -127.5q-8 -18 -8 -26z" />
<glyph unicode="&#x201c;" horiz-adv-x="665" d="M94 1260q0 -23 8.5 -33t26.5 -21q12 -4 31.5 -10t40 -12t40 -10.5t31.5 -4.5q6 0 12.5 4.5t6.5 8.5q0 8 -3 14t-16 21q-10 12 -25.5 49t-15.5 84q0 88 22.5 165.5t45.5 126.5q8 18 8 27q0 10 -10 10q-16 0 -27 -16q-27 -33 -57.5 -79t-57 -100t-44 -111.5t-17.5 -112.5z M360 1260q0 -23 8.5 -33t26.5 -21q12 -4 31.5 -10t40 -12t40 -10.5t32.5 -4.5q6 0 12 4.5t6 8.5q0 8 -3 14t-15 21q-10 12 -25.5 49t-15.5 84q0 88 22.5 165.5t44.5 126.5q8 18 8 27q0 10 -10 10q-16 0 -26 -16q-27 -33 -57.5 -79t-57.5 -100t-44.5 -111.5t-17.5 -112.5z " />
<glyph unicode="&#x201d;" horiz-adv-x="665" d="M92 1180q0 -10 10 -11q16 0 27 17q27 33 57.5 79t57 100t44 111.5t17.5 112.5q0 23 -8 33t-27 20l-31.5 10.5t-40 12.5t-40 10t-31.5 4q-6 0 -12 -4t-6 -8q0 -8 3 -14t15 -21q10 -12 25.5 -49t15.5 -84q0 -88 -22.5 -166t-45.5 -127q-8 -18 -8 -26zM358 1180 q0 -10 11 -11q16 0 26 17q27 33 57.5 79t57.5 100t44 111.5t17 112.5q0 23 -8 33t-26 20q-12 4 -32 10.5t-40.5 12.5t-39.5 10t-32 4q-6 0 -12 -4t-6 -8q0 -8 3 -14t15 -21q10 -12 25.5 -49t15.5 -84q0 -88 -22.5 -166t-44.5 -127q-8 -18 -9 -26z" />
<glyph unicode="&#x201e;" horiz-adv-x="665" d="M92 -219q0 -10 10 -10q16 0 27 16q27 33 57.5 79t57 100t44 111.5t17.5 112.5q0 23 -8 33t-27 21q-12 4 -31.5 10t-40 12t-40 10.5t-31.5 4.5q-6 0 -12 -4.5t-6 -8.5q0 -8 3 -14t15 -21q10 -12 25.5 -49t15.5 -84q0 -88 -22.5 -165.5t-45.5 -127.5q-8 -18 -8 -26z M358 -219q0 -10 11 -10q16 0 26 16q27 33 57.5 79t57.5 100t44 111.5t17 112.5q0 23 -8 33t-26 21q-12 4 -32 10t-40.5 12t-39.5 10.5t-32 4.5q-6 0 -12 -4.5t-6 -8.5q0 -8 3 -14t15 -21q10 -12 25.5 -49t15.5 -84q0 -88 -22.5 -165.5t-44.5 -127.5q-8 -18 -9 -26z" />
<glyph unicode="&#x2022;" horiz-adv-x="860" d="M252 971q0 -10 8 -13.5t21 -9.5q18 -10 44.5 -38.5t26.5 -100.5q0 -31 -6 -79t-16 -85q-4 -10 -8.5 -22.5t-4.5 -18.5q0 -10 11 -10q8 0 19 9t22 20q63 57 122.5 114.5t106.5 128.5q4 8 8 18.5t4 22.5q0 23 -61 35q-39 8 -81 16.5t-81 14.5t-68.5 10t-42.5 4 q-25 0 -24 -16z" />
<glyph unicode="&#x2026;" horiz-adv-x="2048" d="M231 109q0 -37 26 -73t83 -36q49 0 80 34t31 81t-32 75.5t-79 28.5q-57 0 -83 -38t-26 -72zM915 109q0 -37 26 -73t83 -36q49 0 80 34t31 81t-32 75.5t-79 28.5q-57 0 -83 -38t-26 -72zM1599 109q0 -37 26 -73t83 -36q49 0 80 34t31 81t-32 75.5t-79 28.5q-57 0 -83 -38 t-26 -72z" />
<glyph unicode="&#x202f;" horiz-adv-x="395" />
<glyph unicode="&#x2039;" horiz-adv-x="768" d="M154 614q0 -10 8 -19t28 -30q14 -16 55.5 -59t86.5 -92t86 -94.5t59 -65.5q23 -27 33 -36t14 -9q10 0 17 10l61 68q8 8 8 14q0 4 -6 9t-22 22q-37 33 -83 78t-88 88t-75 77.5t-45 49.5q14 20 42.5 55t62.5 75t69 82t64.5 75.5t49 56t21.5 26.5q12 12 12 27q0 6 -6 11 t-12 5q-10 0 -37 -22l-29.5 -29.5t-63.5 -62.5t-80 -79t-82 -80t-69.5 -67.5t-39.5 -38.5q-39 -33 -39 -45z" />
<glyph unicode="&#x203a;" horiz-adv-x="768" d="M156 225q0 -6 6 -11t12 -5q10 0 37 22q4 4 29.5 30t63.5 62.5t80 78.5t82 80t69.5 68t39.5 38q23 18 31 29.5t8 15.5q0 10 -8 19.5t-28 29.5q-16 14 -56.5 58t-85.5 93.5t-86 94.5t-59 65q-23 27 -33 36t-14 9q-10 0 -17 -10l-61 -67q-8 -8 -8 -15q0 -4 6 -9t22 -22 q37 -33 83 -77.5t88 -87.5t75 -78t45 -49q-16 -20 -43.5 -55.5t-61.5 -75t-69 -81.5t-64.5 -76t-49 -57.5t-21.5 -25.5q-12 -12 -12 -27z" />
<glyph unicode="&#x205f;" horiz-adv-x="494" />
<glyph unicode="&#x20ac;" d="M-16 647q-8 -18 16 -18h166q16 -125 61 -245t123 -213t191.5 -149.5t271.5 -56.5q66 0 130.5 13.5t111.5 33.5q29 12 36 21.5t17 38.5q12 41 17 73.5t10 49.5q2 6 4 19t3 26.5t-2 23.5t-12 10q-10 0 -18 -15t-16 -38q-39 -102 -113 -141t-166 -39q-102 0 -183 48 t-140.5 129t-97.5 187.5t-52 223.5h549q25 0 29 12l18 47q9 19 -16 19h-586q-2 27 -3 41t-1 49q0 29 1 43t3 43h663q25 0 29 12l19 47q8 18 -17 19h-692q10 106 34.5 203.5t72 171t123 116.5t186.5 43q197 0 288 -113q14 -16 29.5 -51t22.5 -63q4 -25 8 -42.5t16 -17.5 q14 0 15.5 16.5t1.5 30.5q2 29 2 66t2 59q4 55 7 78t3 35q0 10 -5 15t-22 8q-49 4 -81.5 12t-73.5 18q-53 14 -107.5 19.5t-97.5 5.5q-125 0 -225.5 -48t-175 -131t-121.5 -195t-68 -236h-133q-25 0 -29 -13l-18 -47q-8 -18 16 -18h154q-4 -33 -4 -49v-41q0 -23 -1 -41.5 t3 -44.5h-129q-25 0 -29 -13z" />
<glyph unicode="&#x2122;" horiz-adv-x="575" d="M0 1505q0 -8 4 -8t6 8q4 20 37 21h49v-140q0 -29 -1 -44t-1 -25q0 -6 -3 -13.5t-15 -9.5h-10q-8 0 -9 -4q0 -4 9 -4q12 0 28.5 1t20.5 1t20.5 -1t26.5 -1t10 4t-10 4l-10 2q-16 4 -17 21v69v140h41q25 0 30 -4t7 -13l2 -8q2 -8 4 -8q6 0 6 10v37v12q-2 0 -5 -1t-7 -1 t-9 -1t-16 -1h-133q-4 0 -12 1t-16 1t-10.5 2t-6.5 2l-1 -1t-1 -5q0 -2 -4 -18.5t-4 -24.5zM213 1290q0 -4 6 -4q10 0 20.5 1t14.5 1t17.5 -1t23.5 -1q6 0 6 4t-14 4q-12 0 -13 15q0 10 1 16t1 12l13 131h2l80 -161q8 -20 14 -21q4 0 14 21l80 159h-2l19 -168q0 -8 8 -8 q6 -2 30.5 -3t34.5 -1q6 0 6 4t-8 4h-4q-14 0 -20 7.5t-11 29.5l-26 211q0 14 -6 14q-8 0 -11 -8l-96 -202l-96 200q-4 10 -10 10q-10 0 -11 -14l-28 -219q-2 -29 -21 -29h-6q-8 0 -8 -4z" />
<glyph unicode="&#x25fc;" horiz-adv-x="1310" d="M0 0v1311h1311v-1311h-1311z" />
<glyph unicode="&#xfb01;" horiz-adv-x="1892" d="M164 1296q0 -14 14 -14q12 0 31.5 -1t30.5 -3q45 -6 57 -28.5t16 -67.5q2 -20 3 -44t1 -65v-102v-164v-307q0 -127 -1 -225.5t-9 -151.5q-6 -39 -13 -63.5t-34 -28.5q-12 -2 -27.5 -5t-27.5 -3q-14 0 -15 -15q0 -14 29 -14q20 0 49 1t56.5 2t48 2t24.5 1q2 0 23.5 -1 t54.5 -2t72 -2t76 -1q29 0 28 14q0 14 -14 15q-12 0 -37 2t-45 6q-37 6 -49 29.5t-17 62.5q-6 51 -7 149.5t-1 227.5v139q0 16 13 16h51h88t90 -1t59 -3q41 -6 63.5 -21.5t28.5 -33.5q6 -16 8.5 -32.5t4.5 -31.5q0 -16 12 -16q10 0 13 11.5t3 23.5q0 10 1.5 50t5.5 67 q4 43 10 65.5t6 30.5q0 14 -10 14q-8 0 -23 -18q-12 -16 -31.5 -21.5t-52.5 -9.5q-18 -2 -39 -2h-43l-245 -2q-10 0 -11.5 4t-1.5 12v476q0 18 15 18l295 -4q53 0 83.5 -17.5t38.5 -33.5t12.5 -36t4.5 -30q0 -20 14 -20q6 0 10 6t7 12q2 8 3 24.5t2 35t2 34t1 21.5 q4 37 9 54t5 28q0 16 -12 16q-4 0 -10.5 -4t-14.5 -6q-12 -4 -33.5 -5t-48.5 -3h-47h-84h-104h-105h-84h-43q-4 0 -24.5 1t-50.5 1q-29 0 -64 1t-65 1q-29 0 -29 -15zM1282 1296q0 -14 14 -14q10 0 24.5 -1t31.5 -5q29 -6 41 -27.5t16 -66.5q2 -20 3 -44t1 -65v-102v-164 v-307q0 -127 -2 -225.5t-8 -151.5q-4 -39 -12.5 -62.5t-34.5 -29.5q-12 -4 -27.5 -6t-28.5 -2q-14 0 -14 -15q0 -14 29 -14q20 0 49 1t56.5 2t48 2t24.5 1q2 0 23.5 -1t54.5 -2t71.5 -2t75.5 -1q29 0 29 14t-14 15q-12 0 -37 2t-45 6q-41 6 -51.5 29.5t-14.5 62.5 q-6 53 -7 151.5t-1 225.5v307v164v102q0 41 1 64.5t1 44.5q4 47 15.5 67.5t47.5 28.5q16 4 25 4h21q14 0 14 14t-29 15q-20 0 -50 -1t-58 -1q-27 0 -48.5 -1t-23.5 -1q-4 0 -24.5 1t-49.5 1q-27 0 -56.5 1t-51.5 1q-29 0 -29 -15z" />
<glyph unicode="&#xfb02;" horiz-adv-x="2191" d="M164 1296q0 -14 14 -14q12 0 31.5 -1t30.5 -3q45 -6 57 -28.5t16 -67.5q2 -20 3 -44t1 -65v-102v-164v-307q0 -127 -1 -225.5t-9 -151.5q-6 -39 -13 -63.5t-34 -28.5q-12 -2 -27.5 -5t-27.5 -3q-14 0 -15 -15q0 -14 29 -14q20 0 49 1t56.5 2t48 2t24.5 1q2 0 23.5 -1 t54.5 -2t72 -2t76 -1q29 0 28 14q0 14 -14 15q-12 0 -37 2t-45 6q-37 6 -49 29.5t-17 62.5q-6 51 -7 149.5t-1 227.5v139q0 16 13 16h51h88t90 -1t59 -3q41 -6 63.5 -21.5t28.5 -33.5q6 -16 8.5 -32.5t4.5 -31.5q0 -16 12 -16q10 0 13 11.5t3 23.5q0 10 1.5 50t5.5 67 q4 43 10 65.5t6 30.5q0 14 -10 14q-8 0 -23 -18q-12 -16 -31.5 -21.5t-52.5 -9.5q-18 -2 -39 -2h-43l-245 -2q-10 0 -11.5 4t-1.5 12v476q0 18 15 18l295 -4q53 0 83.5 -17.5t38.5 -33.5t12.5 -36t4.5 -30q0 -20 14 -20q6 0 10 6t7 12q2 8 3 24.5t2 35t2 34t1 21.5 q4 37 9 54t5 28q0 16 -12 16q-4 0 -10.5 -4t-14.5 -6q-12 -4 -33.5 -5t-48.5 -3h-47h-84h-104h-105h-84h-43q-4 0 -24.5 1t-50.5 1q-29 0 -64 1t-65 1q-29 0 -29 -15zM1260 1296q0 -14 14 -14q12 0 31.5 -1t29.5 -3q45 -6 57.5 -28.5t16.5 -67.5q2 -20 3 -44t1 -65v-102 v-164v-307q0 -127 -1 -225.5t-9 -151.5q-6 -39 -13.5 -62.5t-33.5 -29.5q-12 -4 -27.5 -6t-28.5 -2q-14 0 -14 -15q0 -14 29 -14q23 0 49.5 1t54.5 3q27 2 47 2h27q41 0 88 -1t109 -3q125 -6 313 -6q37 0 57.5 2t31.5 6t16.5 13t9.5 26q6 18 10 46t8 53.5t6 47t2 27.5 q0 27 -12 27q-14 0 -18 -23q-4 -27 -15.5 -52.5t-27.5 -45.5q-33 -39 -89.5 -46.5t-128.5 -7.5q-106 0 -161.5 9.5t-77.5 31.5q-12 12 -19.5 39t-11.5 73t-5 114.5t-1 165.5v311v164v102q0 41 1 64.5t1 44.5q4 47 15.5 68.5t52.5 29.5q16 2 32.5 3t26.5 1q14 0 14 12 q0 14 -28 15q-20 0 -53 -1t-64 -1t-55.5 -1t-26.5 -1q-4 0 -24.5 1t-51.5 1q-29 0 -63.5 1t-65.5 1q-29 0 -28 -15z" />
</font>
</defs>
</svg>
